<svg id="Capa_1" data-name="Capa 1" xmlns="http://www.w3.org/2000/svg" viewBox="0 0 139.95 170.28"><defs><style>.cls-1{fill:#faeb15;}.cls-2{fill:#704790;}</style></defs><title>cobertura</title><path class="cls-1" d="M11.54,133.1a6.28,6.28,0,0,1,4.69-1.88q3.81,0,5.57,2.53a5.5,5.5,0,0,1,1,2.85H19.66a4.34,4.34,0,0,0-.78-1.66,3.14,3.14,0,0,0-2.52-1,3.11,3.11,0,0,0-2.69,1.4,6.84,6.84,0,0,0-1,4,6,6,0,0,0,1,3.85,3.25,3.25,0,0,0,2.64,1.28,3,3,0,0,0,2.5-1.1,4.83,4.83,0,0,0,.79-1.77h3.17a6.87,6.87,0,0,1-2.09,4.06,6.09,6.09,0,0,1-4.32,1.56,6.48,6.48,0,0,1-5.12-2.11,10,10,0,0,1,.26-12Z"/><path class="cls-1" d="M34.56,145.38a5.25,5.25,0,0,1-4.34,1.76,5.25,5.25,0,0,1-4.34-1.76,7,7,0,0,1,0-8.47,5.21,5.21,0,0,1,4.34-1.79,5.21,5.21,0,0,1,4.34,1.79,7,7,0,0,1,0,8.47Zm-2.36-1.63a5.27,5.27,0,0,0,0-5.22,2.62,2.62,0,0,0-4,0,5.23,5.23,0,0,0,0,5.22,2.61,2.61,0,0,0,4,0Z"/><path class="cls-1" d="M47.74,136.84A6.48,6.48,0,0,1,49,141a7.25,7.25,0,0,1-1.25,4.36A4.53,4.53,0,0,1,42,146.5a4.47,4.47,0,0,1-1.1-1.16v1.42H38V131.53h2.95v5.42a4.3,4.3,0,0,1,1.24-1.2,3.69,3.69,0,0,1,2-.52A4.21,4.21,0,0,1,47.74,136.84Zm-2.47,6.87a4.18,4.18,0,0,0,.64-2.42,5.41,5.41,0,0,0-.31-2,2.18,2.18,0,0,0-2.19-1.49,2.21,2.21,0,0,0-2.22,1.46,5.43,5.43,0,0,0-.31,2,4.18,4.18,0,0,0,.65,2.4,2.22,2.22,0,0,0,2,1A2,2,0,0,0,45.27,143.71Z"/><path class="cls-1" d="M58.4,135.71a4.6,4.6,0,0,1,2,1.67,5.55,5.55,0,0,1,.9,2.33,14.46,14.46,0,0,1,.1,2.24H53.13a2.7,2.7,0,0,0,1.18,2.38,3,3,0,0,0,1.63.42,2.29,2.29,0,0,0,2.25-1.29h3a3.69,3.69,0,0,1-1.09,2,5.48,5.48,0,0,1-4.24,1.65,6.15,6.15,0,0,1-4-1.39q-1.72-1.39-1.72-4.52a6.1,6.1,0,0,1,1.55-4.5,5.44,5.44,0,0,1,4-1.56A6.42,6.42,0,0,1,58.4,135.71ZM54,138.26A3.07,3.07,0,0,0,53.2,140h5.08a2.47,2.47,0,0,0-.79-1.78,2.59,2.59,0,0,0-1.75-.61A2.34,2.34,0,0,0,54,138.26Z"/><path class="cls-1" d="M69.11,135.22l.25,0v3l-.5,0h-.35a2.45,2.45,0,0,0-2.39,1.16,4.53,4.53,0,0,0-.34,2v5.39h-3V135.48h2.82v2a6.22,6.22,0,0,1,1.19-1.54,3.24,3.24,0,0,1,2.15-.69Z"/><path class="cls-1" d="M69.93,137.68v-2.1H71.5v-3.15h2.92v3.15h1.83v2.1H74.42v6a1.35,1.35,0,0,0,.18.86,1.93,1.93,0,0,0,1.08.17h.58v2.2l-1.4.05a3.75,3.75,0,0,1-2.86-.72,2.16,2.16,0,0,1-.5-1.56v-6.94Z"/><path class="cls-1" d="M81.09,135.48v6.8a3.57,3.57,0,0,0,.23,1.45,1.57,1.57,0,0,0,1.58.86,2.06,2.06,0,0,0,2.06-1.22,4.46,4.46,0,0,0,.29-1.75v-6.14h3v11.28H85.36v-1.59l-.21.31a2,2,0,0,1-.39.46,4.09,4.09,0,0,1-1.34.85,4.53,4.53,0,0,1-1.51.23,3.37,3.37,0,0,1-3.36-1.8,6.91,6.91,0,0,1-.49-2.93v-6.8Z"/><path class="cls-1" d="M97.36,135.22l.25,0v3l-.5,0h-.35a2.45,2.45,0,0,0-2.39,1.16,4.52,4.52,0,0,0-.34,2v5.39h-3V135.48h2.81v2a6.22,6.22,0,0,1,1.19-1.54,3.24,3.24,0,0,1,2.15-.69Z"/><path class="cls-1" d="M103.81,139.9a4.68,4.68,0,0,0,1.18-.26.89.89,0,0,0,.64-.84,1,1,0,0,0-.49-1,3.09,3.09,0,0,0-1.43-.26,1.88,1.88,0,0,0-1.5.52,2.13,2.13,0,0,0-.42,1H98.94a4.32,4.32,0,0,1,.83-2.43q1.17-1.49,4-1.49a7.19,7.19,0,0,1,3.31.73,2.82,2.82,0,0,1,1.44,2.77v5.17q0,.54,0,1.3a1.61,1.61,0,0,0,.18.79,1,1,0,0,0,.43.34v.43H106a3.32,3.32,0,0,1-.19-.64q-.05-.3-.08-.68a6.09,6.09,0,0,1-1.42,1.13,4.28,4.28,0,0,1-2.17.55,3.74,3.74,0,0,1-2.54-.87,3.11,3.11,0,0,1-1-2.48,3.21,3.21,0,0,1,1.62-3,7.21,7.21,0,0,1,2.61-.72Zm1.8,1.38a3.22,3.22,0,0,1-.57.28,4.65,4.65,0,0,1-.79.2l-.67.12a4.4,4.4,0,0,0-1.36.4,1.35,1.35,0,0,0-.7,1.25,1.31,1.31,0,0,0,.43,1.09,1.62,1.62,0,0,0,1,.34,3.08,3.08,0,0,0,1.78-.56,2.37,2.37,0,0,0,.85-2Z"/><path class="cls-1" d="M26.59,159.27a3.73,3.73,0,0,1,1.11,3v7.6h-3V163a3.14,3.14,0,0,0-.24-1.37,1.66,1.66,0,0,0-1.64-.87,2,2,0,0,0-2,1.27,4.39,4.39,0,0,0-.29,1.72v6.11H17.52V158.64h2.86v1.65A5,5,0,0,1,21.45,159a3.71,3.71,0,0,1,2.3-.68A4.32,4.32,0,0,1,26.59,159.27Z"/><path class="cls-1" d="M34.91,163a4.68,4.68,0,0,0,1.18-.26.89.89,0,0,0,.64-.84,1,1,0,0,0-.49-1,3.08,3.08,0,0,0-1.43-.26,1.88,1.88,0,0,0-1.5.52,2.14,2.14,0,0,0-.42,1H30a4.32,4.32,0,0,1,.83-2.43q1.17-1.49,4-1.49a7.19,7.19,0,0,1,3.31.73,2.82,2.82,0,0,1,1.45,2.77V167q0,.54,0,1.3a1.66,1.66,0,0,0,.18.79,1.06,1.06,0,0,0,.44.34v.43H37.08a3.24,3.24,0,0,1-.19-.64q-.05-.3-.08-.68a6.07,6.07,0,0,1-1.42,1.13,4.28,4.28,0,0,1-2.17.55,3.73,3.73,0,0,1-2.54-.87,3.11,3.11,0,0,1-1-2.48,3.21,3.21,0,0,1,1.62-3,7.18,7.18,0,0,1,2.61-.72Zm1.8,1.38a3.32,3.32,0,0,1-.57.28,4.73,4.73,0,0,1-.79.2l-.67.12a4.39,4.39,0,0,0-1.36.4,1.35,1.35,0,0,0-.7,1.25,1.31,1.31,0,0,0,.43,1.09,1.62,1.62,0,0,0,1,.34,3.08,3.08,0,0,0,1.78-.56,2.37,2.37,0,0,0,.85-2Z"/><path class="cls-1" d="M49,162.67a2.6,2.6,0,0,0-.43-1.14,1.79,1.79,0,0,0-1.54-.68,2,2,0,0,0-2,1.48,6.16,6.16,0,0,0-.29,2.09,5.66,5.66,0,0,0,.29,2,2,2,0,0,0,2,1.41,1.76,1.76,0,0,0,1.47-.56A2.78,2.78,0,0,0,49,165.8h3a4.93,4.93,0,0,1-1,2.55,4.73,4.73,0,0,1-4.11,1.94,4.82,4.82,0,0,1-4-1.61,6.52,6.52,0,0,1-1.28-4.19A6.62,6.62,0,0,1,43,160a4.94,4.94,0,0,1,3.92-1.61,5.91,5.91,0,0,1,3.48,1,4.43,4.43,0,0,1,1.6,3.36Z"/><path class="cls-1" d="M57.05,157.27h-3v-2.72h3Zm-3,1.35h3V169.9h-3Z"/><path class="cls-1" d="M69.32,168.52A5.25,5.25,0,0,1,65,170.28a5.25,5.25,0,0,1-4.34-1.76,7,7,0,0,1,0-8.47A5.21,5.21,0,0,1,65,158.26,5.21,5.21,0,0,1,69.32,160a7,7,0,0,1,0,8.47ZM67,166.89a5.27,5.27,0,0,0,0-5.22,2.62,2.62,0,0,0-4,0,5.23,5.23,0,0,0,0,5.22,2.61,2.61,0,0,0,4,0Z"/><path class="cls-1" d="M82,159.27a3.73,3.73,0,0,1,1.11,3v7.6H80V163a3.14,3.14,0,0,0-.24-1.37,1.66,1.66,0,0,0-1.64-.87,2,2,0,0,0-2,1.27,4.41,4.41,0,0,0-.29,1.72v6.11h-3V158.64h2.86v1.65A5,5,0,0,1,76.81,159a3.71,3.71,0,0,1,2.3-.68A4.32,4.32,0,0,1,82,159.27Z"/><path class="cls-1" d="M90.27,163a4.68,4.68,0,0,0,1.18-.26.89.89,0,0,0,.64-.84,1,1,0,0,0-.49-1,3.09,3.09,0,0,0-1.43-.26,1.88,1.88,0,0,0-1.5.52,2.13,2.13,0,0,0-.42,1H85.4a4.32,4.32,0,0,1,.83-2.43q1.17-1.49,4-1.49a7.19,7.19,0,0,1,3.31.73A2.82,2.82,0,0,1,95,161.86V167q0,.54,0,1.3a1.61,1.61,0,0,0,.18.79,1,1,0,0,0,.43.34v.43H92.44a3.32,3.32,0,0,1-.19-.64q-.05-.3-.08-.68a6.09,6.09,0,0,1-1.42,1.13,4.28,4.28,0,0,1-2.17.55,3.74,3.74,0,0,1-2.54-.87,3.11,3.11,0,0,1-1-2.48,3.21,3.21,0,0,1,1.62-3,7.21,7.21,0,0,1,2.61-.72Zm1.8,1.38a3.22,3.22,0,0,1-.57.28,4.65,4.65,0,0,1-.79.2L90,165a4.4,4.4,0,0,0-1.36.4,1.35,1.35,0,0,0-.7,1.25,1.31,1.31,0,0,0,.43,1.09,1.62,1.62,0,0,0,1,.34,3.08,3.08,0,0,0,1.78-.56,2.37,2.37,0,0,0,.85-2Z"/><path class="cls-1" d="M100.6,169.9h-3V154.64h3Z"/><path class="cls-1" d="M119.45,59.72a59.72,59.72,0,1,0-59.72,59.73A59.73,59.73,0,0,0,119.45,59.72Z"/><path class="cls-2" d="M81.46,61.23l.83.38,2.88,1.31a1.67,1.67,0,0,0,.56.11,1.48,1.48,0,0,0,.74-.2,1.35,1.35,0,0,0,.61-1.15V22.15a1.34,1.34,0,0,0-.88-1.26l-3.72-1.35a1.34,1.34,0,0,0-1.24.16,1.37,1.37,0,0,0-.59,1.1v8l-18.07,3V26.54a2.87,2.87,0,0,0-5.75,0v5.27l-18.07-3v-8A1.33,1.33,0,0,0,37,19.53l-3.72,1.35a1.33,1.33,0,0,0-.9,1.26V61.68A1.37,1.37,0,0,0,33,62.83a1.4,1.4,0,0,0,.72.2,1.57,1.57,0,0,0,.56-.11L38,61.23A1.37,1.37,0,0,0,38.77,60V51.11l18.07,3.06V96.29a2.55,2.55,0,0,0,.2,1H33.7a1.35,1.35,0,0,0,0,2.7h52a1.35,1.35,0,0,0,0-2.7H62.41a3,3,0,0,0,.18-1V54.17l18.07-3.06V60A1.37,1.37,0,0,0,81.46,61.23Zm-24.61-9.8-18.07-3V31.52l18.07,3Zm5.75,0V34.56l18.07-3V48.38Z"/><circle class="cls-2" cx="113.96" cy="80.82" r="25.99"/><path class="cls-1" d="M105.81,83.37H97.69l1-4.73,10.08-9.47h5l-2,9.88H114l-.81,4.33H110.9l-.79,3.51h-5Zm1-4.33L108,74h-.05l-5.09,5Z"/><path class="cls-1" d="M127.12,85.13l-.05-.05a5.87,5.87,0,0,1-4.91,2.24c-6.36,0-7.38-5.4-7.38-7.66,0-5.7,3.26-11.38,10.39-11.38,4.07,0,7.48,2.06,7.53,6.8H127.4a2.25,2.25,0,0,0-2.57-2.27c-3.08,0-4.45,3.28-4.45,6.41,0,2.14.92,3.56,3.18,3.56a3.22,3.22,0,0,0,3.33-2h-2.55l.81-3.89h7.43l-2.09,10H127Z"/><path class="cls-1" d="M118.83,88.3h.89l-.89,4.3h2.55l-.16.77h-3.44Z"/><path class="cls-1" d="M121.3,88.3h4.17l-.16.77h-1.61l-.89,4.3h-.89l.89-4.3h-1.67Z"/><path class="cls-1" d="M126,88.3h3.69l-.16.77h-2.81l-.28,1.33H129l-.15.72h-2.62L126,92.6h2.84l-.16.77H125Z"/><path class="cls-1" d="M105.38,69.88H95.93a.71.71,0,1,1,0-1.42h9.45a.71.71,0,0,1,0,1.42Z"/><path class="cls-1" d="M103.59,72.16H97.72a.71.71,0,0,1,0-1.42h5.87a.71.71,0,0,1,0,1.42Z"/><path class="cls-1" d="M116,90.8H105.33a.71.71,0,1,1,0-1.42H116a.71.71,0,1,1,0,1.42Z"/><path class="cls-1" d="M116,93.09h-6.64a.71.71,0,0,1,0-1.42H116a.71.71,0,1,1,0,1.42Z"/></svg>