<svg id="Capa_1" data-name="Capa 1" xmlns="http://www.w3.org/2000/svg" viewBox="0 0 380.33 69.64"><defs><style>.cls-1{fill:#fff;}</style></defs><title>con-movil-exito</title><path class="cls-1" d="M27,42.85C26,37.89,22,35.7,17,36.13c-8.56.74-12.19,8.06-12.19,15.5,0,8.15,3.63,14.63,12.24,13.88,6.29-.55,9.92-5.26,10.38-11.2l4.78-.42c-.91,9-6.5,14.86-15.56,15.65C5.44,70.52,0,62.8,0,52.4S5.94,33.09,17,32.13c7.5-.65,13.7,2.81,14.81,10.31Z"/><path class="cls-1" d="M47.7,39.56C56,38.84,60.34,44.41,60.34,52S56,65.89,47.7,66.6s-12.64-4.85-12.64-12.4S39.44,40.28,47.7,39.56Zm0,23.29c4.48-.39,8.11-4.2,8.11-10.45s-3.63-9.48-8.11-9.09-8.11,4.2-8.11,10.5S43.22,63.25,47.7,62.86Z"/><path class="cls-1" d="M64.42,38.71l4-.35v4.1h.1A10.07,10.07,0,0,1,77,37c6.85-.59,9,3.12,9,8.67v17l-4.28.37V45.56c0-3.15-2-5-5.29-4.74-5.19.45-7.71,4.12-7.71,8.77v14.6l-4.28.37Z"/><path class="cls-1" d="M106.93,25.17,122.7,23.8l5.14,20.55h.1l5.14-21.44,15.76-1.37V57.22l-10.47.91V35.24h-.1L132,58.68l-8.26.72L117.51,37h-.1V60l-10.48.91Z"/><path class="cls-1" d="M166.57,56.33c-9.82.85-14.25-5.21-14.25-12.41s4.43-14,14.25-14.83,14.25,5.16,14.25,12.36S176.39,55.48,166.57,56.33Zm1.66-29.24-6.85.59,5-7.88,10.53-.91Zm-1.66,9.19c-3.78.33-4.28,4-4.28,6.77s.5,6.41,4.28,6.08,4.28-4.07,4.28-6.82S170.34,36,166.57,36.29Z"/><path class="cls-1" d="M201.32,52.67l-11.79,1L181,28.49l10.53-.91L195.58,43h.1l4.13-16.15L210,26Z"/><path class="cls-1" d="M221.42,22.18l-10,.87V16.1l10-.87Zm-10,3.67,10-.87V50.92l-10,.87Z"/><path class="cls-1" d="M226.36,14.8l10-.87V49.63l-10,.87Z"/><path class="cls-1" d="M257.08,12.13l29.76-2.58V18.7l-18.68,1.62v4.45l17-1.47v8.5l-17,1.47v4.45L287.4,36v9.15l-30.32,2.63ZM273.6,8.2l-6.85.59,5-7.88L282.26,0Z"/><path class="cls-1" d="M297.12,30.7l-8.21-11.58,11-1,2.87,4.9,2.92-5.4,10.68-.93-8.21,13,9.27,12.84-11,1-3.83-6-3.68,6.67L288,45.14Z"/><path class="cls-1" d="M328.65,12.87l-10,.87V6.79l10-.87Zm-10,3.67,10-.87V41.61l-10,.87Z"/><path class="cls-1" d="M345.38,14.21l5.34-.46v6.1l-5.34.46v9c0,2.4.55,3.4,3.07,3.18a17.66,17.66,0,0,0,2.27-.35v7.5c-2,.17-4.28.67-6.4.86-4.23.37-8.91.12-8.91-7V21.18l-4.43.38v-6.1l4.43-.38V7.18l10-.87Z"/><path class="cls-1" d="M366.07,39c-9.82.85-14.25-5.21-14.25-12.41s4.43-14,14.25-14.83,14.25,5.16,14.25,12.36S375.89,38.16,366.07,39Zm0-20c-3.78.33-4.28,4-4.28,6.77s.5,6.41,4.28,6.08,4.28-4.07,4.28-6.82S369.85,18.64,366.07,19Z"/></svg>