<svg id="Capa_1" data-name="Capa 1" xmlns="http://www.w3.org/2000/svg" viewBox="0 0 520.58 208.31"><defs><style>.cls-1{fill:#fff;}.cls-2{fill:#542878;}.cls-3{fill:none;stroke:#ecde28;stroke-miterlimit:10;stroke-width:4.19px;fill-rule:evenodd;}.cls-4{fill:#fbea00;}</style></defs><title>copy-central-2</title><polygon class="cls-1" points="494.86 85.48 495.02 140.15 0.16 181.41 0 126.75 494.86 85.48"/><path class="cls-1" d="M168.57,99l-3.22-2.74a12.87,12.87,0,0,1-5.44,1.37c-9.48.8-10.12-4.94-10.14-12.88V80.54c.23-7.6.83-13.28,10.06-14.06s9.87,4.8,10.14,12.36v4.25c0,3.81-.18,7.87-1.66,10.3l3.18,2.79Zm-5.18-9.92.29.25a14.65,14.65,0,0,0,.32-3l0-8.25c0-2.3.35-7.53-4.19-7.15s-4.15,5.55-4.14,7.85l0,8.25c0,2.46.22,6.45,4.18,6.12a5.6,5.6,0,0,0,1.48-.32l-1.12-.94Z"/><path class="cls-1" d="M187.39,64.87l5.77-.49.06,20.75c0,6.59-2.2,9.91-9.74,10.54s-9.86-2.3-9.88-8.89L173.54,66l5.77-.49.06,20.27c0,2.86.22,5.7,4.14,5.37,3.75-.32,3.95-3.19,3.94-6Z"/><path class="cls-1" d="M197,93.82l-.09-29.75,16.24-1.37v4.36l-10.47.88,0,7.5,9.64-.81V79l-9.65.81,0,9.16,10.47-.88v4.36Z"/><path class="cls-1" d="M238.5,60.56l5.77-.49.09,29.75-6,.51-4.52-10.21a90.19,90.19,0,0,1-4.16-11.48h-.08c.21,2.44.47,5.44.64,8.44s.31,5.93.31,8.31l0,5.59-5.77.49-.09-29.75,6-.5,4.53,10.45a90,90,0,0,1,4.16,11.47h.08c-.21-2.68-.43-5.56-.6-8.4s-.3-5.69-.31-8.35Z"/><path class="cls-1" d="M248,72.27c.22-7.6.83-13.28,10.06-14.06s9.87,4.8,10.14,12.36v4.25c0,7.93-.58,13.78-10.06,14.58S248,84.45,248,76.51Zm6,6.52c0,2.46.22,6.45,4.18,6.12,4.12-.35,4.15-4.44,4.14-7.29l0-7.62c0-2.38.1-7.67-4.19-7.3-4.54.38-4.15,5.55-4.14,7.85Z"/><path class="cls-2" d="M37.9,155.92c0,.69-.1,1.43-.15,2.11-.34,6.72-2.65,12.05-10.57,12.72-11.67,1-12.46-6.08-12.48-15.86l0-5.23c.28-9.36,1-16.36,12.39-17.32,6.35-.44,9.91,2.39,10.43,8.6a17.06,17.06,0,0,1,.16,2.77l-7,.59c-.31-2.32-.07-6.74-3.57-6.44-5.58.47-5.11,6.83-5.1,9.67l0,10.16c0,3,.28,7.94,5.15,7.53,3.91-.33,3.43-6.35,3.58-8.71Z"/><path class="cls-2" d="M41.18,147.43c.28-9.36,1-16.36,12.39-17.32S65.72,136,66,145.34l0,5.23c0,9.77-.71,17-12.38,18s-12.46-6.09-12.48-15.86Zm7.33,8c0,3,.28,7.94,5.15,7.53,5.07-.43,5.11-5.46,5.1-9l0-9.38c0-2.93.13-9.44-5.15-9-5.58.47-5.11,6.83-5.1,9.67Z"/><path class="cls-2" d="M87.48,128.14l7.11-.6.11,36.64-7.41.63-5.57-12.58a111,111,0,0,1-5.12-14.13h-.1c.26,3,.58,6.7.79,10.39s.38,7.3.39,10.23l0,6.89-7.11.6-.11-36.64,7.36-.62,5.57,12.87A110.69,110.69,0,0,1,88.52,156h.1c-.26-3.3-.53-6.85-.74-10.35s-.37-7-.38-10.28Z"/><path class="cls-2" d="M114,137c0-3.28-.27-6.48-4.18-6.15-2.39.2-3.91,1.26-3.9,3.75,0,2.79,1.84,3.71,4.08,4.88a58.78,58.78,0,0,1,8.65,5.28c2.44,2.09,3.21,4.23,3.22,7.4,0,6.94-4.74,11-11.69,11.54-8.53.72-11.58-3.62-11.6-10.17v-2.69l7.11-.6v2.15c-.14,3.58,1,6.08,4.48,5.78,3-.25,4.41-1.89,4.4-4.67a5,5,0,0,0-2.86-4.6c-3.71-2.47-8.34-4.09-11.24-7.51A9.25,9.25,0,0,1,98.62,136c0-6.25,3.62-10,11.14-10.61,11.32-1,11,7.47,11.1,11.09Z"/><path class="cls-2" d="M142.7,123.48l7.11-.6.08,25.55c0,8.11-2.71,12.2-12,13s-12.14-2.84-12.17-10.95l-.07-25.55,7.11-.6.07,25c0,3.52.28,7,5.1,6.61,4.62-.39,4.86-3.93,4.85-7.45Z"/><path class="cls-2" d="M161.79,158.53l-7.11.6-.11-36.64,11.32-1,3.86,16.68a76.22,76.22,0,0,1,1.35,8.34h.1a79.5,79.5,0,0,1,1.09-8.55L176,120.67l11.27-1,.11,36.64-7.11.6,0-11.53c0-7.28.11-14.57.55-21.89h-.1l-7.52,34-4.31.36-7.56-32.74-.25,0c.48,7.24.65,14.51.67,21.79Z"/><path class="cls-2" d="M192,156l-.11-36.64,20-1.69,0,5.37L199,124.11l0,9.23,11.88-1,0,5.37-11.87,1,0,11.29L212,148.92l0,5.37Z"/><path class="cls-2" d="M232.44,115.92l7.11-.6.11,36.64-7.41.62L226.68,140a111.16,111.16,0,0,1-5.12-14.13h-.1c.26,3,.58,6.7.79,10.39s.38,7.3.39,10.23l0,6.89-7.11.6-.11-36.64,7.36-.62,5.57,12.87a110.71,110.71,0,0,1,5.12,14.13h.1c-.26-3.3-.53-6.85-.74-10.35s-.38-7-.39-10.28Z"/><path class="cls-2" d="M252.49,114.23l23.7-2,0,5.37-8.27.7.09,31.27-7.11.6-.09-31.27-8.32.7Z"/><path class="cls-2" d="M295.48,110.61l7.11-.6.08,25.55c0,8.11-2.71,12.2-12,13s-12.14-2.84-12.16-10.95L278.43,112l7.11-.6.07,25c0,3.52.27,7,5.1,6.61,4.62-.39,4.86-3.93,4.85-7.45Z"/><path class="cls-2" d="M322,119.52c0-3.28-.27-6.48-4.18-6.15-2.39.2-3.91,1.26-3.9,3.75,0,2.79,1.84,3.71,4.08,4.88a58.7,58.7,0,0,1,8.65,5.28c2.44,2.09,3.21,4.23,3.22,7.4,0,6.94-4.74,11-11.69,11.54-8.53.72-11.59-3.62-11.61-10.17v-2.69l7.11-.6v2.15c-.14,3.58,1,6.08,4.48,5.78,3-.25,4.41-1.89,4.4-4.67a5,5,0,0,0-2.86-4.6c-3.71-2.47-8.34-4.09-11.24-7.51a9.25,9.25,0,0,1-1.84-5.47c0-6.25,3.63-10,11.14-10.61,11.32-1,11,7.47,11.1,11.09Z"/><path class="cls-2" d="M344.58,143.12l-.11-36.64,14.82-1.25a8.15,8.15,0,0,1,7.37,3.53c1.63,2.4,2.1,6.42,2.12,12.48,0,7.23,0,15.59-5.78,19.35a11.4,11.4,0,0,1-5.28,1.42Zm10.19-6.23c6.34-.54,6.74-3.79,6.71-14.4,0-8.65-.95-12-5.21-11.63l-4.67.39.08,25.9Z"/><path class="cls-2" d="M370.36,141l9-37.41,9.59-.81,8.74,35.92-7.61.64-1.91-9.12-8.32.7L378,140.31Zm10.56-15.55,6.09-.51-2-10.25c-.36-1.68-.52-3.33-.73-5-.05-.83-.16-1.65-.26-2.42H384c-.1.79-.2,1.63-.25,2.46-.2,1.73-.34,3.4-.69,5.14Z"/><path class="cls-2" d="M394.06,102.3l23.7-2,0,5.37-8.27.7.09,31.27-7.11.6L402.4,107l-8.32.7Z"/><path class="cls-2" d="M419.69,115.53c.28-9.36,1-16.36,12.39-17.32s12.15,5.92,12.48,15.22l0,5.23c0,9.77-.71,17-12.38,18s-12.46-6.08-12.48-15.86Zm7.33,8c0,3,.28,7.94,5.15,7.53,5.07-.43,5.11-5.46,5.1-9l0-9.38c0-2.93.13-9.44-5.15-9-5.58.47-5.11,6.83-5.1,9.67Z"/><path class="cls-2" d="M463.53,107.59c0-3.28-.27-6.48-4.18-6.15-2.39.2-3.91,1.26-3.9,3.75,0,2.79,1.84,3.71,4.08,4.89a58.78,58.78,0,0,1,8.65,5.28c2.44,2.09,3.21,4.23,3.22,7.4,0,6.94-4.74,11-11.69,11.54-8.53.72-11.58-3.62-11.6-10.17v-2.69l7.11-.6V123c-.14,3.58,1,6.07,4.48,5.78,3-.25,4.41-1.89,4.4-4.67a5,5,0,0,0-2.86-4.6c-3.71-2.47-8.34-4.09-11.24-7.51a9.25,9.25,0,0,1-1.84-5.46c0-6.25,3.63-10,11.14-10.61,11.32-1,11,7.47,11.1,11.09Z"/><path class="cls-2" d="M483.75,111.21,481,107.68a8.1,8.1,0,0,1-.46-.7,6.59,6.59,0,0,1-.61,1l-2.73,3.85-3.36-2,2.78-3.95a3.89,3.89,0,0,1,.56-.73l-1-.21-4.47-1,1.21-3.82,4.52,1a6,6,0,0,1,.92.22,5.9,5.9,0,0,1-.05-1V95.79l4.06-.34V100a5.37,5.37,0,0,1,0,.88c.3-.12.66-.25,1.06-.43l4.36-1.78,1.38,3.7-4.56,1.7a3.21,3.21,0,0,1-.91.27,3.73,3.73,0,0,1,.71.82l2.75,3.43Z"/><polyline class="cls-3" points="0.23 206.22 518.48 160.4 518.18 57.09 289.46 77.26"/><path class="cls-4" d="M147.35,52.64l-.09-32.36,13.09-1.1a7.21,7.21,0,0,1,6.51,3.12c1.44,2.12,1.85,5.67,1.87,11,0,6.39,0,13.77-5.11,17.09A10,10,0,0,1,159,51.66Zm9-5.51c5.61-.47,6-3.35,5.93-12.71,0-7.64-.84-10.59-4.6-10.27l-4.12.35.07,22.87Z"/><path class="cls-4" d="M172.6,50.51l-.1-32.36,17.67-1.49v4.75l-11.39,1,0,8.16,10.49-.88v4.75l-10.49.88,0,10,11.39-1V49Z"/><path class="cls-4" d="M224.38,30.52c.64,3.18,1,7.3,1.42,11.4h.09c.09-.78.13-1.56.22-2.35.21-2.78.48-5.57.92-8.36l2.46-17.86,6.5-.55-6.14,32.89-7.53.63-2.55-12.56c-.68-3.35-.92-6.79-1.37-10.2h-.09c-.44,3.49-.65,7-1.31,10.43l-2.21,13-7.53.63-6.51-31.82,6.5-.55,2.88,17.41c.46,2.72.73,5.46,1,8.21.09.77.14,1.54.19,2.32h.09c.48-4.18.78-8.35,1.4-11.64l3-17,5.2-.44Z"/><path class="cls-4" d="M238.37,45l-.09-32.36,6.28-.53,0,12.82,8.79-.74,0-12.82,6.28-.53.09,32.36-6.28.53,0-14.8-8.79.74,0,14.8Z"/><path class="cls-4" d="M261.32,43l7.93-33,8.47-.71L285.45,41l-6.73.57L277,33.51l-7.35.62L268,42.47Zm9.33-13.74,5.38-.45-1.73-9c-.32-1.48-.46-2.94-.64-4.44,0-.73-.14-1.46-.23-2.14h-.09c-.09.7-.17,1.44-.22,2.18-.18,1.53-.3,3-.62,4.54Z"/><path class="cls-4" d="M282.26,8.9,303.2,7.13v4.75l-7.31.62L296,40.12l-6.28.53L289.62,13l-7.35.62Z"/><path class="cls-4" d="M318,15.73c0-2.89-.24-5.72-3.69-5.43-2.11.18-3.45,1.11-3.45,3.31,0,2.46,1.63,3.27,3.6,4.31a51.82,51.82,0,0,1,7.64,4.67A7.64,7.64,0,0,1,325,29.13c0,6.13-4.19,9.68-10.33,10.19-7.53.63-10.23-3.19-10.25-9V28l6.28-.53v1.9c-.12,3.16.87,5.36,4,5.1,2.64-.22,3.9-1.67,3.89-4.12A4.42,4.42,0,0,0,316,26.26c-3.28-2.18-7.37-3.61-9.93-6.63a8.14,8.14,0,0,1-1.63-4.83c0-5.52,3.2-8.82,9.84-9.38,10-.84,9.75,6.6,9.81,9.79Z"/><path class="cls-4" d="M325.75,37.61l7.93-33,8.47-.71,7.72,31.72-6.72.57-1.68-8.06-7.36.62L332.48,37Zm9.33-13.74,5.38-.45-1.73-9c-.32-1.48-.46-2.94-.64-4.44,0-.73-.14-1.46-.23-2.14h-.09c-.09.7-.18,1.44-.22,2.18-.18,1.53-.3,3-.62,4.54Z"/><path class="cls-4" d="M351.53,35.43l-.09-32.36L364.26,2c6-.51,7.86,4,7.87,8.53,0,2.76-.74,5.93-3.12,7.95A12.1,12.1,0,0,1,362,21l-4.21.36,0,13.55Zm6.22-18.83,3.36-.28c2.73-.23,4.57-1.51,4.56-5.43,0-3.71-1.54-4.14-5.08-3.85l-2.87.24Z"/><path class="cls-4" d="M374.67,33.48l-.09-32.36L387.4,0c6-.51,7.86,4,7.87,8.53,0,2.76-.74,5.93-3.12,7.95a12.1,12.1,0,0,1-7,2.54l-4.21.36,0,13.55Zm6.22-18.82,3.36-.28c2.73-.23,4.57-1.51,4.56-5.43,0-3.71-1.54-4.14-5.08-3.85l-2.87.24Z"/></svg>