<svg id="Capa_1" data-name="Capa 1" xmlns="http://www.w3.org/2000/svg" viewBox="0 0 582.17 364.98"><defs><style>.cls-1{fill:#fff;}.cls-2{fill:#522481;}.cls-3{fill:#785399;}.cls-4{fill:#f4e229;}.cls-5{fill:#44215f;}.cls-6{fill:#7b3c8c;}</style></defs><title>copy-inicial</title><polygon class="cls-1" points="346.57 334.87 0 364.98 0.78 258.2 347.35 228.09 346.57 334.87"/><path class="cls-2" d="M109.73,26.93l11.58-1,9.81,38.22-9.59.83-1.43-7.32-9.43.82L109.29,66l-9.59.83Zm5.62,6.63h-.11L112,51.25l6.73-.58Z"/><path class="cls-2" d="M133.05,24.9l9.26-.8V38.71l7.39-.64V23.46l9.26-.8V61.72l-9.26.8V45.84l-7.39.64V63.17l-9.26.8Z"/><path class="cls-2" d="M176.61,61c-12.19,1.06-13.84-6.68-13.84-19.1s1.65-20.44,13.84-21.5c13.12-1.14,13.84,8.26,13.84,19.1S189.74,59.82,176.61,61Zm-.06-6.12c3.75-.33,4.3-3.82,4.3-14.54s-.55-14.12-4.3-13.8S172.37,30.3,172.37,41,172.92,55.15,176.56,54.83Z"/><path class="cls-2" d="M194.26,19.59l15.55-1.35c7.88-.68,10.59,3.9,10.59,9.26,0,5.69-2.32,8.68-6.62,10.1v.11c5.9.31,6.23,3.95,6.34,9.19.17,7.7.44,8.44,1.76,8.88v.49l-10,.87c-.72-1.25-1-3.42-1-7.85,0-6.78-.94-8.13-3.86-7.87l-3.53.31V57.85l-9.26.8Zm9.26,15.67,2.87-.25c3.75-.33,4.74-3.2,4.74-5.5,0-3-1.1-4.83-4.8-4.51l-2.81.24Z"/><path class="cls-2" d="M232.14,16.3l11.58-1,9.81,38.22-9.59.83L242.51,47l-9.43.82-1.38,7.56-9.59.83Zm5.62,6.63h-.11L234.4,40.62l6.73-.58Z"/><path class="cls-2" d="M268,13.19l10-.87c3.42-.3,12.19-1.06,12.19,10.16,0,7.28-4.69,11.73-11.36,12.31l-6,.52V51.83l-4.85.42Zm4.85,18.18,5.79-.5c3.53-.31,6.51-3,6.51-8.17,0-4.27-2-6.88-6.84-6.46l-5.46.47Z"/><path class="cls-2" d="M293,11l4.85-.42V38.06c0,5.75,1.88,8.26,6.67,7.85,5.18-.45,6.73-3.54,6.73-9V9.43L316.12,9V36.48c0,7.5-3.86,12.7-11.58,13.37-7.88.68-11.52-3.32-11.52-11.37Z"/><path class="cls-2" d="M321,8.58l20.34-1.77v4.27l-15.49,1.35V24.69l14.61-1.27v4.27L325.88,29V43L342,41.56v4.27l-21,1.82Z"/><path class="cls-2" d="M346,6.41l10.53-.91c12.24-1.06,13.78,7.56,13.78,18.34,0,9.85-2.48,19.75-13.29,20.69l-11,1Zm4.85,34.71,5.07-.44c8.38-.73,9.32-9.35,9.32-16.35,0-7.55-.5-15.61-9.32-14.84l-5.07.44Z"/><path class="cls-2" d="M375.13,3.88l20.35-1.77V6.39L380,7.73V20l14.61-1.27V23L380,24.26v14l16.16-1.4v4.27l-21,1.82Z"/><path class="cls-2" d="M416.32,10.43c0-4.1-1.49-6.82-6.12-6.42-4.08.35-6.51,2.75-6.51,6.91,0,11,18.58,2.82,18.58,17.1,0,9-6.67,12.18-12.24,12.66-9.21.8-11.91-3.67-11.91-12l4.85-.42c0,4.38.28,9.06,7.39,8.44a7.33,7.33,0,0,0,6.84-7.49c0-11.05-18.58-3-18.58-17.37,0-3.61,1.54-10.91,11.52-11.78,7.5-.65,10.92,2.77,11,9.93Z"/><path class="cls-2" d="M8.43,96l32.49-2.82C57.39,91.74,63,101.31,63,112.52c0,11.89-4.84,18.14-13.82,21.09v.23c12.33.64,13,8.24,13.25,19.2.35,16.09.92,17.64,3.69,18.54v1l-20.85,1.81c-1.5-2.61-2.07-7.14-2.07-16.4,0-14.18-2-17-8.06-16.45l-7.37.64v33.72L8.43,177.62Zm19.35,32.73,6-.52c7.83-.68,9.91-6.69,9.91-11.49,0-6.17-2.3-10.09-10-9.42l-5.87.51Z"/><path class="cls-2" d="M72.36,90.44l47.58-4.13v15.55l-28.22,2.45v16.35l26.5-2.3v15.55l-26.5,2.3v18.63l29.49-2.56v15.55l-48.84,4.24Z"/><path class="cls-2" d="M162.21,111c0-11.89-1.38-17-7.83-16.47-7.72.67-8.41,8-8.41,29.42,0,24.24.81,30.45,8.87,29.75,7.14-.62,7.95-8.81,8.06-21.51l18.66-1.62v2.86c0,17.61-5,31.18-28.91,33.26-24.77,2.15-26.73-16.08-26.73-40.66,0-20.92,1.15-41.94,28.57-44.32,17-1.48,26.38,5,26.38,24.23v3.43Z"/><path class="cls-2" d="M202.64,79.13,226.83,77l20.5,79.84-20,1.74-3-15.29L204.6,145l-2.88,15.8-20,1.74ZM214.39,93l-.23,0-6.8,36.94,14.05-1.22Z"/><path class="cls-2" d="M251.36,74.9l32.49-2.82C300.32,70.65,306,80.22,306,91.42c0,11.89-4.84,18.14-13.82,21.09v.23c12.33.64,13,8.24,13.25,19.2.35,16.09.92,17.64,3.69,18.54v1l-20.85,1.81c-1.5-2.61-2.07-7.14-2.07-16.4,0-14.18-2-17-8.06-16.45l-7.37.64v33.72l-19.35,1.68Zm19.35,32.73,6-.52c7.83-.68,9.91-6.69,9.91-11.49,0-6.17-2.3-10.09-10-9.42l-5.87.51Z"/><path class="cls-2" d="M350.08,91.14c0-5.26-.58-13.55-7.72-12.93-7.95.69-8.87,8.77-8.87,30.49,0,22.29,1.15,29.39,8.87,28.72,6.57-.57,8.87-6.71,8.87-17.92v-2.63l-9.1.79v-12.8l27.07-2.35v43.78L356,147.44l-.46-7.73-.23,0c-3,7.58-10.25,10.26-17.74,10.91-20.62,1.79-24.08-13.11-24.08-38.61,0-26.75,1.84-44.29,29.26-46.67,25-2.17,26,14.89,26,24.15Z"/><path class="cls-2" d="M392.36,62.66l24.19-2.1,20.5,79.84-20,1.74-3-15.29-19.7,1.71-2.88,15.8-20,1.74ZM404.11,76.5l-.23,0-6.8,36.94,14.05-1.22Z"/><path class="cls-2" d="M441.08,58.43l32.49-2.82C490,54.18,495.69,63.75,495.69,75c0,11.89-4.84,18.14-13.82,21.09v.23c12.33.64,13,8.24,13.25,19.2.34,16.09.92,17.64,3.69,18.54v1l-20.85,1.81c-1.5-2.61-2.07-7.14-2.07-16.4,0-14.18-2-17-8.06-16.45l-7.37.64v33.72l-19.35,1.68Zm19.35,32.73,6-.52c7.83-.68,9.91-6.69,9.91-11.49,0-6.17-2.3-10.09-10-9.42l-5.88.51Z"/><path class="cls-1" d="M15.78,89.89l32.49-2.82c16.47-1.43,22.12,8.14,22.12,19.34,0,11.89-4.84,18.14-13.82,21.09v.23c12.33.65,13,8.24,13.25,19.2.35,16.09.92,17.64,3.69,18.54v1l-20.85,1.81c-1.5-2.61-2.07-7.14-2.07-16.4,0-14.18-2-17-8.06-16.45l-7.37.64v33.72l-19.35,1.68Zm19.35,32.73,6-.52C49,121.42,51,115.41,51,110.6c0-6.17-2.3-10.09-10-9.42l-5.87.51Z"/><path class="cls-1" d="M79.71,84.34l47.58-4.13V95.75L99.06,98.2v16.35l26.5-2.3V127.8l-26.5,2.3v18.63l29.49-2.56v15.55L79.71,166Z"/><path class="cls-1" d="M169.56,104.89c0-11.89-1.38-17-7.83-16.47-7.72.67-8.41,8-8.41,29.42,0,24.24.81,30.45,8.87,29.75,7.14-.62,7.95-8.81,8.06-21.51l18.66-1.62v2.86c0,17.61-5,31.18-28.92,33.26-24.77,2.15-26.73-16.08-26.73-40.66,0-20.92,1.15-41.94,28.57-44.32,17-1.48,26.38,5,26.38,24.23v3.43Z"/><path class="cls-1" d="M210,73l24.19-2.1,20.5,79.84-20,1.74-3-15.29L212,138.93l-2.88,15.8-20,1.74Zm11.75,13.84-.23,0-6.8,36.94,14.05-1.22Z"/><path class="cls-1" d="M258.72,68.79,291.2,66c16.47-1.43,22.12,8.14,22.12,19.34,0,11.89-4.84,18.14-13.82,21.09v.23c12.33.64,13,8.24,13.25,19.2.34,16.09.92,17.64,3.69,18.54v1l-20.85,1.81c-1.5-2.61-2.07-7.14-2.07-16.4,0-14.18-2-17-8.06-16.45l-7.37.64v33.72l-19.35,1.68Zm19.35,32.73,6-.52c7.83-.68,9.91-6.69,9.91-11.49,0-6.17-2.3-10.09-10-9.42l-5.88.51Z"/><path class="cls-1" d="M357.43,85c0-5.26-.58-13.55-7.72-12.93-7.95.69-8.87,8.77-8.87,30.49,0,22.29,1.15,29.39,8.87,28.72,6.57-.57,8.87-6.71,8.87-17.92v-2.63l-9.1.79V98.75l27.07-2.35v43.78l-13.25,1.15-.46-7.73-.23,0c-3,7.58-10.25,10.26-17.74,10.91-20.62,1.79-24.08-13.11-24.08-38.61,0-26.75,1.84-44.29,29.26-46.67,25-2.17,26,14.89,26,24.15Z"/><path class="cls-1" d="M399.71,56.55l24.19-2.1,20.5,79.84-20,1.74-3-15.29-19.7,1.71-2.88,15.8-20,1.74Zm11.75,13.84-.23,0-6.8,36.94,14.05-1.22Z"/><path class="cls-1" d="M448.43,52.32l32.49-2.82C497.39,48.07,503,57.64,503,68.84c0,11.89-4.84,18.14-13.82,21.09v.23c12.33.64,13,8.24,13.25,19.2.35,16.09.92,17.64,3.69,18.54v1l-20.85,1.81c-1.5-2.61-2.07-7.14-2.07-16.4,0-14.18-2-17-8.06-16.45l-7.37.64v33.72l-19.35,1.68Zm19.35,32.73,6-.52c7.83-.68,9.91-6.69,9.91-11.49,0-6.17-2.3-10.09-10-9.42l-5.87.51Z"/><path class="cls-3" d="M575.71,86c0,17.32-14.15,32.59-31.61,34.11s-31.61-11.3-31.61-28.62,14.15-32.59,31.61-34.11S575.71,68.72,575.71,86Z"/><path class="cls-4" d="M575.71,85c0,16.73-13.67,31.49-30.53,33S514.65,107,514.65,90.28s13.67-31.49,30.53-33S575.71,68.24,575.71,85Z"/><path class="cls-3" d="M575.71,84.16c0,16.28-13.3,30.64-29.71,32.07s-29.71-10.62-29.71-26.91S529.59,58.68,546,57.26,575.71,67.88,575.71,84.16Z"/><path class="cls-1" d="M534.41,73.63l5.56-.48,6,16.51h.09l5.83-17.53,5.29-.46-8.94,24.82c-1.65,4.25-2.85,8.05-8.14,8.51a22.85,22.85,0,0,1-3.51,0v-4.23a14.64,14.64,0,0,0,2.4.1c2.36-.2,2.93-1.49,3.56-3.48l.58-1.81Z"/><path class="cls-5" d="M5.4,214.81c.07-5.18,1.62-8.46,4.3-10.51s5.91-3,10.63-3.37c9.37-.81,13.52,2,13.52,10v19.43c0,2.87,0,6.5,1.34,8.06l-11,1a16.79,16.79,0,0,1-.63-4.28h-.14a10.79,10.79,0,0,1-8.94,6.09c-6.41.56-10.14-2.47-10.14-10.65,0-4.4,1.83-8.26,4.65-10s7-2.85,10.21-4c3.45-1.21,4.08-1.82,4.08-4.69,0-2.31-1.06-3.68-3.59-3.46-3.17.27-4.08,2.24-4.15,5.53ZM18.63,233c2.39-.21,4.58-1.79,4.58-5.57,0-3.14.07-5.11.07-6.65-3.59,2.2-5.14,2.4-6.2,3.33a5.09,5.09,0,0,0-1.76,4.35C15.33,231.49,16.52,233.21,18.63,233Z"/><path class="cls-5" d="M58.21,212.88c0-5.52-1.27-7.72-4.3-7.45-3.8.33-4.29,5.13-4.29,12.88,0,8.53.49,12.4,4.29,12.07,3.38-.29,4.15-2.67,4.3-9.32l10.56-.92c-.07,11.68-4.72,16.76-15.07,17.66-14.37,1.25-15.49-8.65-15.49-19.9,0-10.62,3.1-18.79,15.49-19.86,12-1,15.07,4.91,15.07,13.93Z"/><path class="cls-5" d="M73.49,205.13l-4.72.41v-7.83l4.72-.41V186.19l11.41-1v11.11l5.28-.46v7.83l-5.28.46v19.08c0,2.66,1,3.41,3.66,3.18a13,13,0,0,0,1.62-.28v7.55a53,53,0,0,1-6.55,1c-7.89.68-10.14-.52-10.14-9.32Z"/><path class="cls-5" d="M93.13,182.95l11.41-1v8.67l-11.41,1Zm0,12.65,11.41-1v37.81l-11.41,1Z"/><path class="cls-5" d="M107.42,194.35l11.83-1,4.44,27.5h.14l4.51-28.28,11.41-1-9.43,38.63-13.52,1.17Z"/><path class="cls-5" d="M142.14,202.94c.07-5.18,1.62-8.46,4.3-10.51s5.91-3,10.63-3.37c9.37-.81,13.52,2,13.52,10V218.5c0,2.87,0,6.5,1.34,8.06l-11,1a16.74,16.74,0,0,1-.63-4.28h-.14a10.78,10.78,0,0,1-8.94,6.09c-6.41.56-10.14-2.47-10.14-10.65,0-4.4,1.83-8.27,4.65-10s7-2.85,10.21-4c3.45-1.21,4.08-1.82,4.08-4.69,0-2.31-1.06-3.68-3.59-3.46-3.17.28-4.08,2.24-4.15,5.53Zm13.24,18.21c2.39-.21,4.58-1.79,4.58-5.57,0-3.14.07-5.11.07-6.64-3.59,2.2-5.14,2.4-6.2,3.33a5.08,5.08,0,0,0-1.76,4.35C152.07,219.62,153.26,221.33,155.37,221.15Z"/><path class="cls-5" d="M176.22,188.38l11-1v5.31h.14c1.48-3.48,4.37-6.67,9.15-7.08a8.7,8.7,0,0,1,1.83,0v10.62a16.06,16.06,0,0,0-3.17,0c-4.58.4-7.53,2.54-7.53,7.5V225.2l-11.41,1Z"/><path class="cls-5" d="M219.38,192.46l-4.72.41V185l4.72-.41V173.52l11.41-1v11.11l5.28-.46V191l-5.28.46v19.08c0,2.66,1,3.41,3.66,3.18a13.2,13.2,0,0,0,1.62-.28V221a53,53,0,0,1-6.55,1c-7.89.68-10.14-.52-10.14-9.32Z"/><path class="cls-5" d="M268.95,218.14l-11,1v-4.47h-.14a10.85,10.85,0,0,1-9.15,6.25c-6.48.56-9.93-2.35-9.93-9.62V183l11.41-1v25.79c0,2.73,1.2,4.23,3.31,4s4.08-2,4.08-5.74V181.32l11.41-1Z"/><path class="cls-5" d="M282.68,204.93a10.3,10.3,0,0,0,.77,4.2,3.42,3.42,0,0,0,3.52,1.44,4.1,4.1,0,0,0,4.08-4.2c0-1.75-.85-3.35-4.37-4.23-9.37-2.33-13.87-3.76-13.87-11.73,0-7.55,5.35-11.86,14.51-12.65,10.7-.93,13.8,4,13.8,9.42v1.26l-10.14.88v-.7c0-3.29-1.34-4.08-3.73-3.87-3,.26-3.87,1.8-3.87,3.83,0,6.71,18.24.65,18.24,15.33,0,7.62-5.14,12.82-14.57,13.64-10.21.89-14.51-2.51-14.51-10.06v-1.68Z"/><path class="cls-5" d="M322.18,175.71l11-1v4.61h.14a9,9,0,0,1,8.24-6.31c7.67-.67,11.76,4.43,11.76,18.55,0,11.74-1.69,20.34-11.05,21.16-3.17.28-6.62-.47-8.52-4.36h-.14v16.42l-11.41,1Zm15.35,29.21c4.15-.36,4.37-4.92,4.37-11.77,0-6.08-.14-11.87-4.44-11.5-3.38.29-4.08,4.41-4.08,11.75C333.38,200.1,333.66,205.25,337.53,204.92Z"/><path class="cls-5" d="M357.18,184.27c.07-5.18,1.62-8.46,4.3-10.51s5.91-3,10.63-3.37c9.37-.81,13.52,2,13.52,10v19.43c0,2.87,0,6.5,1.34,8.06l-11,1a16.79,16.79,0,0,1-.63-4.28h-.14a10.78,10.78,0,0,1-8.94,6.09c-6.41.56-10.14-2.47-10.14-10.65,0-4.4,1.83-8.27,4.65-10s7-2.85,10.21-4c3.45-1.21,4.08-1.82,4.08-4.69,0-2.31-1.06-3.68-3.59-3.46-3.17.28-4.08,2.24-4.15,5.53Zm13.24,18.21c2.39-.21,4.58-1.79,4.58-5.57,0-3.14.07-5.11.07-6.64-3.59,2.2-5.14,2.4-6.2,3.33a5.08,5.08,0,0,0-1.76,4.35C367.1,200.95,368.3,202.66,370.41,202.48Z"/><path class="cls-5" d="M410.06,201.76h-.14a9.65,9.65,0,0,1-8.52,5.84c-9.37.81-11.06-7.5-11.06-19.24,0-14.12,4.08-19.92,11.76-20.59,5.07-.44,7.39,2.36,8.24,4.88h.14V168l11-1V217.2l-11.41,1Zm-3.87-26.08c-4.29.37-4.43,6.19-4.43,12.27,0,6.85.21,11.37,4.37,11,3.87-.34,4.15-5.53,4.15-12.24C410.27,179.38,409.56,175.39,406.18,175.68Z"/><path class="cls-5" d="M456.67,201.84l-11,1v-4.47h-.14a10.85,10.85,0,0,1-9.15,6.25c-6.48.56-9.93-2.35-9.93-9.62v-28.3l11.41-1v25.79c0,2.73,1.2,4.23,3.31,4s4.08-2,4.08-5.74V165l11.41-1Z"/><path class="cls-5" d="M471.81,183.47v2.31c0,5.87.84,8.66,4.15,8.38,3-.26,3.87-2.5,4.15-7.28l10.56-.92c-.21,9.38-5.35,14.37-14.79,15.19-14.37,1.25-15.49-8.65-15.49-19.9,0-10.62,3.1-18.79,15.49-19.86C490,160.16,491,168.94,491,181.8Zm8.24-7.29c0-5.31-.71-8.12-3.87-7.84-3.73.32-4.37,3.45-4.37,8.56Z"/><path class="cls-5" d="M495.68,168.47l-4.72.41v-7.83l4.72-.41V149.53l11.41-1v11.11l5.28-.46V167l-5.28.46v19.08c0,2.66,1,3.41,3.66,3.18a13,13,0,0,0,1.62-.28V197a53,53,0,0,1-6.55,1c-7.89.68-10.14-.52-10.14-9.32Z"/><path class="cls-5" d="M525.18,178.84v2.31c0,5.87.84,8.66,4.15,8.38,3-.26,3.87-2.5,4.15-7.28l10.56-.92c-.21,9.38-5.35,14.37-14.79,15.19-14.37,1.25-15.49-8.65-15.49-19.9,0-10.62,3.1-18.79,15.49-19.86,14.15-1.23,15.14,7.56,15.14,20.42Zm8.24-7.29c0-5.31-.7-8.12-3.87-7.84-3.73.32-4.37,3.45-4.37,8.56Z"/><path class="cls-5" d="M556.3,181.17a10.28,10.28,0,0,0,.77,4.2,3.41,3.41,0,0,0,3.52,1.44,4.1,4.1,0,0,0,4.08-4.2c0-1.75-.84-3.35-4.37-4.23-9.37-2.33-13.87-3.76-13.87-11.73,0-7.55,5.35-11.86,14.5-12.65,10.7-.93,13.8,4,13.8,9.42v1.26l-10.14.88v-.7c0-3.29-1.34-4.08-3.73-3.87-3,.26-3.87,1.8-3.87,3.83,0,6.71,18.24.65,18.24,15.33,0,7.62-5.14,12.82-14.58,13.64-10.21.89-14.51-2.52-14.51-10.06V182Z"/><path class="cls-6" d="M38.71,313.55v3.33c0,8.47,1.22,12.5,6,12.09,4.27-.37,5.59-3.61,6-10.51L66,317.13c-.31,13.55-7.73,20.75-21.35,21.93-20.74,1.8-22.37-12.48-22.37-28.73,0-15.33,4.47-27.12,22.37-28.68,20.44-1.77,21.86,10.92,21.86,29.48ZM50.6,303c0-7.67-1-11.71-5.59-11.32-5.39.47-6.3,5-6.3,12.35Z"/><path class="cls-6" d="M69,281l15.86-1.38V286l.2,0a15.67,15.67,0,0,1,13.22-9c9.35-.81,14.34,3.4,14.34,13.89v40.86l-16.47,1.43V295.95c0-3.94-1.73-6.11-4.78-5.84s-5.9,2.93-5.9,8.28V334.1L69,335.53Z"/><path class="cls-6" d="M140.68,257.27l16.47-1.43v72l-16.47,1.43Z"/><path class="cls-6" d="M163.15,272.78l16.47-1.43v54.58l-16.47,1.43Zm7.12-20.7,15.86-1.38L176,265.92l-10.78.94Z"/><path class="cls-6" d="M185.21,270.86l15.86-1.38v6.46l.2,0a15.67,15.67,0,0,1,13.22-9c9.35-.81,14.33,3.4,14.33,13.89v40.86l-16.47,1.43V285.86c0-3.94-1.73-6.11-4.78-5.84s-5.9,2.93-5.9,8.28V324l-16.47,1.43Z"/><path class="cls-6" d="M248.65,295.32v3.33c0,8.47,1.22,12.5,6,12.09,4.27-.37,5.59-3.61,6-10.51l15.25-1.32c-.3,13.55-7.73,20.75-21.35,21.93-20.74,1.8-22.37-12.48-22.37-28.73,0-15.33,4.47-27.12,22.37-28.68,20.43-1.77,21.86,10.92,21.86,29.48Zm11.9-10.52c0-7.67-1-11.72-5.59-11.32-5.39.47-6.3,5-6.3,12.35Z"/><path class="cls-6" d="M278.64,279.5c.1-7.47,2.34-12.21,6.2-15.17s8.54-4.27,15.35-4.86c13.52-1.17,19.52,2.95,19.52,14.45v28c0,4.14,0,9.38,1.93,11.64L305.79,315a24.27,24.27,0,0,1-.91-6.18l-.2,0a15.57,15.57,0,0,1-12.91,8.79c-9.25.8-14.64-3.57-14.64-15.37,0-6.36,2.64-11.93,6.71-14.51S294,283.61,298.57,282c5-1.74,5.9-2.63,5.9-6.77,0-3.33-1.53-5.32-5.19-5-4.57.4-5.9,3.24-6,8Zm19.11,26.29c3.46-.3,6.61-2.59,6.61-8,0-4.54.1-7.37.1-9.59-5.19,3.17-7.42,3.47-8.95,4.81-1.73,1.46-2.54,3.25-2.54,6.27C293,303.58,294.71,306.05,297.76,305.79Z"/><polygon class="cls-2" points="380.62 314.12 408.67 279.46 431.78 298.16 443.33 307.51 452.67 295.95 471.38 272.85 494.49 291.56 506.03 300.9 515.38 289.35 534.08 266.24 568.74 294.28 578.09 282.74 543.43 254.68 531.88 245.34 522.53 256.89 503.83 280 480.72 261.3 469.17 251.96 459.82 263.5 441.12 286.61 418.02 267.91 406.46 258.56 397.11 270.11 369.06 304.77 380.62 314.12"/><path class="cls-2" d="M566.54,273.39,535,247.88l-3.15-2.54-2.53,3.13-18.7,23.11L503.83,280l-8.4-6.81L472.32,254.5,469.17,252l-2.53,3.13-18.71,23.1-6.8,8.42-8.4-6.81-23.11-18.69-3.16-2.55-2.53,3.14-25.51,31.53L373.14,289l25.51-31.51,6.81-8.41,8.41,6.8L437,274.54l3.15,2.54,2.54-3.13,18.7-23.11,6.81-8.41,8.4,6.8,23.11,18.7,3.15,2.55,2.54-3.14,18.7-23.11,6.81-8.41,8.4,6.8,31.52,25.52ZM361.77,290.15l3.14,2.54L376.47,302l3.15,2.55,2.54-3.15,25.51-31.53,20,16.15,11.54,9.35,3.15,2.55,2.55-3.14,9.35-11.56,16.16-20,20,16.16,11.55,9.34,3.15,2.55,2.53-3.14,9.35-11.56,16.16-20,31.52,25.5,3.15,2.55,2.54-3.15,9.34-11.56,2.55-3.13L579,264.39l-34.66-28.06L532.82,227l-3.15-2.55-2.53,3.14-9.35,11.54-16.16,20-20-16.15-11.55-9.34L467,231l-2.54,3.14-9.35,11.54-16.16,20-20-16.15-11.55-9.35-3.15-2.54-2.53,3.13-9.35,11.56L364.32,287Z"/></svg>