<svg id="Capa_1" data-name="Capa 1" xmlns="http://www.w3.org/2000/svg" viewBox="0 0 579.8 171.04"><defs><style>.cls-1{fill:#faeb15;}.cls-2{fill:#fff;}</style></defs><title>copy-final</title><path class="cls-1" d="M1.33,98.78a15.13,15.13,0,0,1,5.5-11.89,23.46,23.46,0,0,1,12.82-4.75c12.76-1.11,17,6,17,9.75,0,9.15-5.81,9.66-5.81,9.85v.13c0,.5,7.2-.12,7.2,9.59,0,5.33-4,14.08-18.45,15.33C-.19,128.51-.25,114.72.06,111.43l12-1c-.06,2.33.51,4,1.71,5.06,1.2,1.34,3,1.68,5.24,1.49,3.6-.31,5.88-1.83,5.88-5.4,0-3.83-3-4.26-5.87-4a22.66,22.66,0,0,0-3.66.63V99.63c.95,0,2,.08,3.66-.07,2.65-.23,6-1.08,6-4.47,0-2.76-3.16-3.55-5.75-3.33-3.41.3-6.19,2.36-6.06,6Z"/><path class="cls-1" d="M42,99.08c-.7-11.92,6.82-19.46,18.64-20.49,10.68-.93,17.94,2.89,17.94,12.17,0,11.16-11,15.63-19.27,21.36v.06l19.9-1.73v10.66l-38.1,3.31a17.47,17.47,0,0,1,3.16-11.06c3.66-5.4,10-9.27,15.61-13.14,2.27-1.58,5.94-3.65,5.94-6.85,0-3.95-2.34-5.13-5.3-4.87-5.05.44-6.76,4.22-6.63,9.54Z"/><path class="cls-1" d="M137.35,116.06l-12.07,1v-3.57h-.12c-1.58,2.21-3.48,4.69-9.6,5.22-9.29.81-13.77-7.9-13.77-16,0-7.65,3-17.19,14-18.14a9.81,9.81,0,0,1,9,3.61h.13V72.38l12.51-1.09Zm-17.56-22.8c-4.48.39-5.5,4.68-5.5,8.5s1,8,5.5,7.61,5.5-4.68,5.5-8.57S124.28,92.87,119.79,93.26Z"/><path class="cls-1" d="M153.53,101.18c.32,3.67,2.46,6.12,6.38,5.78a6.92,6.92,0,0,0,5.24-2.78l11.69-1c-2.53,7.24-9.41,11.1-16.87,11.75-10.49.91-18.38-4.55-18.38-15.39A18.62,18.62,0,0,1,158.9,80.84c13-1.13,18.64,5.59,18.64,18.26Zm12-7.5a4.84,4.84,0,0,0-5.5-5,6.57,6.57,0,0,0-6.44,6Z"/><path class="cls-1" d="M181.58,79.68l12.07-1v3.57h.13c1.58-2.21,3.47-4.69,9.6-5.22,9.29-.81,13.77,7.9,13.77,16,0,7.65-3,17.19-14,18.14a9.82,9.82,0,0,1-9-3.61h-.12v14.11l-12.51,1.09Zm17.56,22.8c4.49-.39,5.5-4.68,5.5-8.5s-1-8-5.5-7.61-5.49,4.68-5.49,8.56S194.66,102.88,199.14,102.49Z"/><path class="cls-1" d="M253.29,98.73c0,2.45.13,5.19,1.52,7.14L242,107a8.28,8.28,0,0,1-.44-3h-.13c-2.65,3.24-6.51,4.45-10.55,4.8-6.32.55-11.56-2-11.56-8.84,0-10.28,12.13-11,18.51-12.71,1.71-.46,3.41-1.11,3.41-3.18s-2.09-2.83-4.11-2.65c-3.85.33-4.61,2.34-4.67,3.73l-11.62,1a10.46,10.46,0,0,1,5.69-9.27c3.16-1.78,7.33-2.52,11.18-2.85,15.67-1.36,15.54,5.11,15.54,11.38Zm-12-6.29a23.42,23.42,0,0,1-4.93,2c-2.78.87-4.23,1.68-4.23,3.88,0,1.5,1.64,2.87,3.92,2.67a5.49,5.49,0,0,0,5.24-5.53Z"/><path class="cls-1" d="M258.72,73l12-1v5.2h.13c2-4.06,4.68-6.42,9.22-6.82a14,14,0,0,1,3.66.18v11a12.34,12.34,0,0,0-4.93-.39c-4.93.43-7.58,3.54-7.58,10.5v12.85l-12.51,1.09Z"/><path class="cls-1" d="M300.61,69.35l6.7-.58v7.65l-6.7.58V88.35c0,3,.7,4.27,3.85,4a22.58,22.58,0,0,0,2.84-.43v9.4c-2.53.22-5.37.84-8,1.07-5.31.46-11.18.16-11.18-8.75V78.08l-5.56.48V70.92l5.56-.48V60.53l12.51-1.09Z"/><path class="cls-1" d="M342.05,91c0,2.45.13,5.19,1.52,7.14l-12.76,1.11a8.28,8.28,0,0,1-.44-3h-.13c-2.65,3.24-6.51,4.45-10.55,4.8-6.32.55-11.56-2-11.56-8.84,0-10.28,12.13-11,18.51-12.71,1.71-.46,3.41-1.11,3.41-3.18s-2.09-2.83-4.11-2.65c-3.85.33-4.61,2.34-4.67,3.73l-11.62,1a10.46,10.46,0,0,1,5.69-9.27c3.16-1.78,7.33-2.52,11.18-2.85,15.67-1.36,15.54,5.11,15.54,11.38Zm-12-6.29a23.42,23.42,0,0,1-4.93,2c-2.78.87-4.23,1.68-4.23,3.88,0,1.5,1.64,2.87,3.92,2.67A5.49,5.49,0,0,0,330,87.73Z"/><path class="cls-1" d="M347.42,65.29l12.07-1v4.33h.13c2.53-4,6.19-5.68,10.74-6.07,3.54-.31,7.33,1.18,8.84,4.31.51-.42,3-5.34,11.18-6,8.4-.73,11.25,4.79,11.25,10.06V93.12l-12.51,1.09V76.59c0-3.07-.31-5.8-4.11-5.47-3.16.27-4.23,2.81-4.23,6.2V94.93L368.27,96V78.4c0-3.07-.32-5.8-4.11-5.47-3.16.27-4.23,2.81-4.23,6.2V96.74l-12.51,1.09Z"/><path class="cls-1" d="M417.68,78.25c.32,3.67,2.46,6.12,6.38,5.78a6.92,6.92,0,0,0,5.24-2.78l11.69-1c-2.53,7.24-9.41,11.1-16.87,11.75-10.49.91-18.38-4.55-18.38-15.4A18.62,18.62,0,0,1,423,57.9c13-1.13,18.64,5.59,18.64,18.26Zm12-7.5a4.84,4.84,0,0,0-5.5-5,6.57,6.57,0,0,0-6.44,6Z"/><path class="cls-1" d="M445.73,56.75l12.07-1v4.14h.13c2.34-3.46,5.69-5.45,10.68-5.88,5.88-.51,11.25,2.6,11.25,10.06V86.33l-12.51,1.09V70.36c0-3.76-.44-6.36-4.11-6-2.15.19-5,1.5-5,6.7V88.2l-12.51,1.09Z"/><path class="cls-1" d="M500.51,52l6.7-.58v7.65l-6.7.58V71c0,3,.7,4.27,3.85,4a22.35,22.35,0,0,0,2.84-.43V84c-2.53.22-5.37.84-8,1.07-5.31.46-11.18.16-11.18-8.75V60.73l-5.56.48V53.56l5.56-.48V43.17l12.51-1.09Z"/><path class="cls-1" d="M526.47,83.09c-12.32,1.07-17.88-6.54-17.88-15.57S514.15,50,526.47,48.92s17.88,6.47,17.88,15.5S538.79,82,526.47,83.09Zm0-25.14c-4.74.41-5.37,5-5.37,8.49s.63,8,5.37,7.62,5.37-5.11,5.37-8.55S531.21,57.54,526.47,58Z"/><path class="cls-1" d="M567.54,55.64a2.82,2.82,0,0,0-1.45-2.32,4.09,4.09,0,0,0-2.78-.7c-1.77.15-3.79.71-3.79,2.84,0,.94.76,1.31,1.45,1.57,2.08.7,6.82.54,11,1.55s7.83,3.08,7.83,8.41c0,9-8.72,12.23-16.68,12.92-7.71.67-16.17-1.67-16.36-10.05l11.94-1a3.59,3.59,0,0,0,1.52,2.75,4.88,4.88,0,0,0,3.35.65c1.64-.14,4.23-1,4.23-2.87S566.72,67,560.9,66.5c-9.54-.8-13.39-3.48-13.39-9.06,0-8.21,8.91-11.12,15.48-11.69,7.08-.61,15.61.59,15.92,8.9Z"/><path class="cls-2" d="M45.43,39.47l-10.7.93V36.83l25.66-2.23v3.57l-10.7.93V67.38l-4.27.37Z"/><path class="cls-2" d="M66.51,38.71,62.69,39V34.41l3.82-.33ZM62.69,43.2l3.82-.33V65.92l-3.82.33Z"/><path class="cls-2" d="M91.4,56.45c-1,5.17-4.72,8.26-9.93,8.71C74.06,65.8,70.55,61,70.33,54c0-6.91,4.58-12.39,10.92-12.94,8.22-.71,10.74,6.69,10.52,12.29L74.37,54.85c-.13,4,2.16,7.4,7.23,7,3.15-.27,5.35-2,6-5Zm-3.69-6.1A6,6,0,0,0,81,44.41a7.33,7.33,0,0,0-6.65,7.09Z"/><path class="cls-2" d="M94.86,40.4l3.6-.31v3.66h.09a9,9,0,0,1,7.55-4.85c6.11-.53,8,2.78,8,7.74V61.79l-3.82.33V46.51c0-2.81-1.8-4.48-4.72-4.23-4.63.4-6.87,3.67-6.87,7.82v13l-3.82.33Z"/><path class="cls-2" d="M138.81,52.33c-1,5.17-4.72,8.26-9.93,8.71-7.41.64-10.92-4.14-11.14-11.16,0-6.91,4.58-12.4,10.92-12.95,8.22-.71,10.74,6.69,10.52,12.29l-17.39,1.51c-.13,4,2.16,7.4,7.23,7,3.15-.27,5.35-2,6-5Zm-3.69-6.1a6,6,0,0,0-6.7-5.93,7.34,7.34,0,0,0-6.65,7.09Z"/><path class="cls-2" d="M144.61,51.87c.13,3.38,3.1,4.19,6.25,3.92,2.38-.21,5.62-1,5.62-3.92s-3.78-3.11-7.59-3.62-7.59-1.44-7.59-5.85c0-4.64,4.63-7,8.67-7.31,5.12-.44,9.21.81,9.53,6.4l-3.82.33c-.27-2.92-2.87-3.63-5.39-3.41-2.29.2-4.94,1.05-4.94,3.37,0,2.72,4,2.82,7.59,3.35,3.82.52,7.6,1.44,7.6,5.9,0,5.49-5.17,7.72-9.89,8.13-5.21.45-9.62-1.26-9.84-7Z"/><path class="cls-2" d="M177.87,49c.13,3.38,3.1,4.19,6.25,3.92,2.38-.21,5.62-1,5.62-3.92s-3.77-3.11-7.59-3.62-7.6-1.44-7.6-5.85c0-4.64,4.63-7,8.67-7.31,5.12-.44,9.21.81,9.53,6.4l-3.82.33c-.27-2.92-2.87-3.63-5.39-3.41-2.29.2-4.94,1.05-4.94,3.37,0,2.72,4,2.82,7.59,3.36,3.82.52,7.59,1.44,7.59,5.9,0,5.49-5.17,7.72-9.88,8.13-5.21.45-9.62-1.26-9.84-7Z"/><path class="cls-2" d="M217,45.54c-1,5.17-4.72,8.26-9.93,8.71-7.42.64-10.92-4.14-11.14-11.17,0-6.91,4.58-12.39,10.92-12.94,8.22-.71,10.74,6.69,10.51,12.29l-17.39,1.51c-.13,4,2.16,7.4,7.23,7,3.14-.27,5.35-2,6-5Zm-3.68-6.1a6,6,0,0,0-6.7-5.93,7.33,7.33,0,0,0-6.65,7.09Z"/><path class="cls-2" d="M220.43,29.5l3.6-.31v3.66h.09A9,9,0,0,1,231.66,28c6.11-.53,8,2.78,8,7.74V50.89l-3.82.33V35.61c0-2.81-1.8-4.48-4.72-4.23-4.63.4-6.87,3.67-6.87,7.82v13l-3.82.33Zm17.44-10.17A9.11,9.11,0,0,1,236.47,23a4.87,4.87,0,0,1-3.55,1.69,8.89,8.89,0,0,1-3-.63,9.81,9.81,0,0,0-3-.58c-1,.08-2.25,1-2.16,2.06l-2.34.2c.72-2.69,1.89-5.07,4.72-5.32a8.12,8.12,0,0,1,3.33.6,7.54,7.54,0,0,0,3,.63c1.17-.1,1.8-1.23,2.07-2.14Z"/><path class="cls-2" d="M265.15,48.59a5.54,5.54,0,0,1-2.74.86c-2,.17-3.23-.79-3.23-3.29A11.38,11.38,0,0,1,251,50.44c-4.22.37-7.68-1.21-7.68-5.8,0-5.22,3.91-6.67,7.86-7.77,4.22-1.17,7.82-1.21,7.82-4.07,0-3.3-2.74-3.6-5.17-3.39-3.23.28-5.62,1.47-5.8,4.87l-3.82.33c.22-5.73,4.67-8.12,9.84-8.57,4.18-.36,8.72.18,8.72,5.58V43.49c0,1.78,0,2.59,1.21,2.48a3.48,3.48,0,0,0,1.17-.33Zm-6.2-11.28c-1.48,1.2-4.36,1.49-6.92,2.16s-4.67,1.74-4.67,4.55c0,2.5,2.16,3.2,4.49,3,5-.44,7.1-3.74,7.1-5.83Z"/><path class="cls-2" d="M268.07,16.58l3.82-.33V48.09l-3.82.33Z"/><path class="cls-2" d="M309.37,44.84l-3.82.33V42h-.09c-1.26,2.65-4.22,4-7.41,4.3-7.14.62-10.69-4.69-10.69-11.2s3.5-12.3,10.6-12.92c2.38-.21,5.8.39,7.5,3h.09V13.32l3.82-.33ZM298.58,43c5.12-.44,7.1-5,7.1-9.31,0-4.55-2.07-8.56-7.32-8.11s-7,5-7,9.53C291.39,39.39,293.64,43.39,298.58,43Z"/><path class="cls-2" d="M318.45,16.84l-3.82.33V12.53l3.82-.33Zm-3.82,4.48,3.82-.33V44l-3.82.33Z"/><path class="cls-2" d="M325.86,36.13c.13,3.38,3.1,4.19,6.25,3.92,2.38-.21,5.62-1,5.62-3.92s-3.78-3.11-7.59-3.62-7.6-1.44-7.6-5.85c0-4.64,4.63-7,8.67-7.31,5.12-.45,9.21.8,9.53,6.4l-3.82.33c-.27-2.92-2.88-3.63-5.39-3.41-2.29.2-4.94,1.05-4.94,3.37,0,2.72,4,2.82,7.59,3.36,3.82.52,7.59,1.44,7.59,5.9,0,5.49-5.17,7.72-9.88,8.13-5.21.45-9.62-1.26-9.84-7Z"/><path class="cls-2" d="M345.28,18.66l3.82-.33v3.12h.09c1.26-2.65,4.22-4,7.41-4.3,7.15-.62,10.7,4.69,10.7,11.2s-3.51,12.3-10.61,12.92c-2.38.21-5.8-.39-7.5-3h-.09V50.22l-3.82.33Zm10.78,1.87c-5.12.44-7.1,5-7.1,9.31,0,4.55,2.07,8.56,7.32,8.11s7-5,7-9.53C363.25,24.1,361,20.1,356.06,20.53Z"/><path class="cls-2" d="M381,15c7.37-.64,11.28,4.33,11.28,11.11s-3.91,12.38-11.28,13-11.28-4.33-11.28-11.06S373.59,15.67,381,15Zm0,20.78c4-.35,7.23-3.75,7.23-9.33S385,18,381,18.37s-7.23,3.75-7.23,9.37S377,36.16,381,35.81Z"/><path class="cls-2" d="M395.88,14.27l3.6-.31v3.66h.09a9,9,0,0,1,7.55-4.85c6.11-.53,8,2.78,8,7.74V35.65l-3.82.33V20.38c0-2.81-1.8-4.48-4.72-4.23-4.63.4-6.87,3.67-6.87,7.82V37l-3.82.33Z"/><path class="cls-2" d="M424.06,7.67,420.24,8V3.36L424.06,3Zm-3.82,4.48,3.82-.33V34.88l-3.82.33Z"/><path class="cls-2" d="M429.27,2.58l3.82-.33V14.16h.09c1.26-2.65,4.22-4,7.41-4.3,7.15-.62,10.7,4.69,10.7,11.2s-3.5,12.3-10.61,12.92c-2.38.21-5.8-.39-7.5-3h-.09v3.08l-3.82.33Zm10.79,10.66c-5.12.44-7.1,5-7.1,9.31,0,4.55,2.07,8.56,7.32,8.11s7-5,7-9.53C447.25,16.81,445,12.81,440.06,13.24Z"/><path class="cls-2" d="M455.16.33,459,0V31.85l-3.82.33Z"/><path class="cls-2" d="M483.87,22.37c-1,5.17-4.72,8.26-9.93,8.71-7.41.64-10.92-4.14-11.14-11.16C462.8,13,467.38,7.52,473.72,7c8.22-.71,10.74,6.69,10.52,12.29l-17.39,1.51c-.13,4,2.16,7.4,7.23,7,3.15-.27,5.35-2,6-5Zm-3.69-6.1a6,6,0,0,0-6.7-5.93,7.34,7.34,0,0,0-6.65,7.09Z"/><path class="cls-2" d="M518.79,19.34c-1,5.17-4.72,8.26-9.93,8.71-7.41.64-10.92-4.14-11.14-11.17,0-6.91,4.58-12.39,10.92-12.94,8.22-.71,10.74,6.69,10.52,12.29l-17.39,1.51c-.13,4,2.16,7.4,7.23,7,3.15-.27,5.35-2,6-5Zm-3.69-6.1a6,6,0,0,0-6.7-5.93,7.33,7.33,0,0,0-6.65,7.09Z"/><path class="cls-2" d="M522.25,3.29l3.6-.31V6.64h.09a9,9,0,0,1,7.55-4.85c6.11-.53,8,2.78,8,7.74V24.68l-3.82.33V9.4c0-2.81-1.8-4.48-4.72-4.23-4.63.4-6.87,3.67-6.87,7.82V26l-3.82.33Z"/><path class="cls-2" d="M159.75,169l-4.94.43v-4h-.12c-1.63,3.43-5.47,5.21-9.59,5.57-9.25.8-13.84-6.07-13.84-14.49s4.53-15.92,13.72-16.72c3.08-.27,7.5.5,9.71,3.83h.12V128.23l4.94-.43Zm-14-2.42c6.63-.58,9.19-6.45,9.19-12,0-5.89-2.67-11.08-9.48-10.49s-9,6.5-9,12.33C136.49,162,139.4,167.14,145.8,166.58Z"/><path class="cls-2" d="M191.91,156.75c-1.34,6.69-6.11,10.69-12.85,11.27-9.59.83-14.13-5.35-14.42-14.44,0-8.95,5.93-16,14.13-16.75,10.64-.92,13.9,8.66,13.61,15.9l-22.5,2c-.17,5.21,2.79,9.57,9.36,9,4.07-.35,6.92-2.56,7.79-6.5Zm-4.77-7.9a7.77,7.77,0,0,0-8.66-7.67c-5.17.45-8.26,4.58-8.61,9.17Z"/><path class="cls-2" d="M241.45,133.12c-1.16-5.73-5.87-8.26-11.63-7.76-9.88.86-14.07,9.3-14.07,17.9,0,9.41,4.19,16.89,14.13,16,7.27-.63,11.45-6.07,12-12.93l5.52-.48c-1,10.36-7.5,17.16-18,18.06-12.91,1.12-19.19-7.8-19.19-19.8s6.86-22.29,19.65-23.41c8.66-.75,15.82,3.24,17.09,11.9Z"/><path class="cls-2" d="M265.29,129.32c9.54-.83,14.59,5.6,14.59,14.37s-5.06,16-14.59,16.85-14.59-5.6-14.59-14.31S255.76,130.15,265.29,129.32Zm0,26.89c5.17-.45,9.36-4.85,9.36-12.07s-4.19-10.95-9.36-10.5-9.36,4.85-9.36,12.12S260.12,156.66,265.29,156.21Z"/><path class="cls-2" d="M284.89,116.94l4.94-.43v41.2l-4.94.43Z"/><path class="cls-2" d="M309.37,125.49c9.54-.83,14.59,5.6,14.59,14.37s-5.06,16-14.59,16.85-14.59-5.6-14.59-14.31S299.83,126.32,309.37,125.49Zm0,26.89c5.17-.45,9.36-4.85,9.36-12.07s-4.19-10.95-9.36-10.5S300,134.67,300,141.94,304.2,152.83,309.37,152.38Z"/><path class="cls-2" d="M328.68,124.51l4.65-.4v4.39h.12a12.31,12.31,0,0,1,9.71-5.92c3.66-.32,7,.83,8.26,4.36a12.38,12.38,0,0,1,9.42-5.9c6-.52,10,1.61,10,7.79v21.87l-4.94.43V131.55c0-3.69-1-6.55-5.81-6.13s-7.85,3.68-7.85,8.3V152.3l-4.94.43V133.16c0-3.87-1.22-6.53-5.64-6.15-5.87.51-8,6.06-8,8.32v18.58l-4.94.43Z"/><path class="cls-2" d="M377.35,108.91l4.94-.43v15.41h.12c1.63-3.43,5.47-5.21,9.59-5.57,9.25-.8,13.84,6.07,13.84,14.5s-4.53,15.92-13.72,16.71c-3.08.27-7.5-.5-9.71-3.83h-.12v4l-4.94.43Zm14,13.79c-6.63.58-9.19,6.45-9.19,12.05,0,5.89,2.67,11.08,9.48,10.49s9-6.5,9-12.32C400.61,127.32,397.7,122.15,391.3,122.71Z"/><path class="cls-2" d="M415.78,111.58l-4.94.43v-6l4.94-.43Zm-4.94,5.8,4.94-.43v29.83l-4.94.43Z"/><path class="cls-2" d="M449,143.78a7.17,7.17,0,0,1-3.55,1.12c-2.56.22-4.19-1-4.19-4.25a14.72,14.72,0,0,1-10.58,5.54c-5.46.47-9.94-1.56-9.94-7.5,0-6.75,5.06-8.63,10.18-10.06C436.37,127.1,441,127,441,123.35c0-4.27-3.55-4.66-6.69-4.38-4.19.36-7.27,1.9-7.5,6.31l-4.94.43c.29-7.41,6-10.51,12.73-11.09,5.41-.47,11.28.23,11.28,7.22v15.35c0,2.31,0,3.35,1.57,3.21A4.53,4.53,0,0,0,449,140Zm-8-14.6c-1.92,1.55-5.64,1.93-9,2.8s-6,2.26-6,5.89c0,3.23,2.79,4.14,5.81,3.88,6.51-.57,9.19-4.84,9.19-7.55Z"/></svg>