<svg id="Capa_1" data-name="Capa 1" xmlns="http://www.w3.org/2000/svg" xmlns:xlink="http://www.w3.org/1999/xlink" viewBox="0 0 1025.9 249.79"><defs><style>.cls-1{fill:#fbea00;}.cls-2{fill:none;stroke:#ecde28;stroke-miterlimit:10;stroke-width:4.19px;fill-rule:evenodd;}.cls-3{fill:#fff;}.cls-4{fill:#542878;}.cls-5{fill:url(#radial-gradient);}.cls-6{fill:url(#radial-gradient-2);}.cls-7{fill:url(#radial-gradient-3);}</style><radialGradient id="radial-gradient" cx="534.63" cy="152.81" r="152.67" gradientUnits="userSpaceOnUse"><stop offset="0.26" stop-color="#419f4b"/><stop offset="0.76" stop-color="#5ba860"/></radialGradient><radialGradient id="radial-gradient-2" cx="532.2" cy="159.33" r="165.9" gradientUnits="userSpaceOnUse"><stop offset="0.22" stop-color="#e6e6e6"/><stop offset="0.88" stop-color="#fcfcfc"/></radialGradient><radialGradient id="radial-gradient-3" cx="533.96" cy="124.58" r="74.22" gradientUnits="userSpaceOnUse"><stop offset="0.22" stop-color="#e6e6e6"/><stop offset="0.88" stop-color="#fff"/></radialGradient></defs><title>copy-central-completo</title><polygon class="cls-1" points="567.36 55.45 567.52 110.11 142.48 146.72 142.32 92.05 567.36 55.45"/><polyline class="cls-2" points="474.06 143.28 119.71 173.79 119.48 95.12"/><path class="cls-3" d="M0,62.66l14.18-1.2v3.22l-4.95.42.05,18.71L5,84.17,5,65.46l-5,.42Z"/><path class="cls-3" d="M15.33,70.58c.17-5.6.61-9.79,7.41-10.36s7.27,3.54,7.47,9.11v3.13c0,5.85-.42,10.15-7.41,10.74s-7.45-3.64-7.47-9.49Zm4.39,4.81c0,1.81.17,4.75,3.08,4.51s3.06-3.27,3.05-5.37l0-5.61c0-1.75.07-5.65-3.08-5.38-3.34.28-3.05,4.09-3.05,5.78Z"/><path class="cls-3" d="M33,81.81,33,59.88l8.87-.75a4.88,4.88,0,0,1,4.41,2.11c1,1.44,1.26,3.84,1.27,7.47,0,4.33,0,9.33-3.46,11.58a6.82,6.82,0,0,1-3.16.85Zm6.09-3.73c3.79-.32,4-2.27,4-8.61,0-5.17-.57-7.18-3.12-7l-2.79.24,0,15.5Z"/><path class="cls-3" d="M50,67.66c.17-5.6.61-9.79,7.41-10.36s7.27,3.54,7.47,9.11v3.13c0,5.85-.43,10.15-7.41,10.74S50,76.63,50,70.79Zm4.39,4.81c0,1.81.17,4.75,3.08,4.51s3.06-3.27,3.05-5.37l0-5.61c0-1.75.07-5.65-3.08-5.38-3.34.28-3.06,4.09-3.05,5.78Z"/><path class="cls-3" d="M76.24,62.9c0-2-.16-3.87-2.5-3.68-1.43.12-2.34.75-2.33,2.24,0,1.67,1.1,2.22,2.44,2.92A35,35,0,0,1,79,67.55,5.17,5.17,0,0,1,80.95,72c0,4.15-2.84,6.56-7,6.91-5.1.43-6.93-2.16-6.94-6.08V71.2l4.25-.36v1.29c-.08,2.14.59,3.63,2.68,3.46a2.54,2.54,0,0,0,2.63-2.8A3,3,0,0,0,74.87,70c-2.22-1.48-5-2.45-6.73-4.49A5.53,5.53,0,0,1,67,62.28c0-3.74,2.17-6,6.66-6.35,6.77-.57,6.6,4.47,6.64,6.63Z"/><path class="cls-3" d="M89.65,77l-.06-21.93,4.25-.36.05,18.71,7.89-.67V76Z"/><path class="cls-3" d="M103.37,63.16c.17-5.6.61-9.79,7.41-10.36s7.27,3.54,7.47,9.11V65c0,5.85-.43,10.15-7.41,10.74s-7.45-3.64-7.47-9.49ZM107.76,68c0,1.81.17,4.75,3.08,4.51s3.06-3.27,3.05-5.37l0-5.61c0-1.75.07-5.65-3.08-5.38-3.34.28-3.05,4.09-3.05,5.78Z"/><path class="cls-3" d="M129.6,58.41c0-2-.16-3.88-2.5-3.68-1.43.12-2.34.75-2.33,2.24,0,1.67,1.1,2.22,2.44,2.92a34.85,34.85,0,0,1,5.17,3.16,5.17,5.17,0,0,1,1.93,4.43c0,4.15-2.84,6.56-7,6.91-5.1.43-6.93-2.16-6.94-6.08V66.7l4.25-.36v1.29c-.09,2.14.59,3.63,2.68,3.46a2.54,2.54,0,0,0,2.63-2.8,3,3,0,0,0-1.71-2.75c-2.22-1.48-5-2.45-6.72-4.49a5.52,5.52,0,0,1-1.1-3.27c0-3.74,2.17-6,6.66-6.35,6.77-.57,6.6,4.47,6.64,6.63Z"/><path class="cls-1" d="M144.35,72.43l-.11-36.16,14.33-1.21c6.71-.57,8.78,4.47,8.8,9.53,0,3.09-.83,6.63-3.48,8.88A13.51,13.51,0,0,1,156,56.3l-4.71.4,0,15.14Zm7-21,3.76-.32c3.06-.26,5.11-1.68,5.09-6.07,0-4.15-1.72-4.63-5.68-4.3l-3.21.27Z"/><path class="cls-1" d="M165.39,70.66l8.86-36.92,9.47-.8,8.62,35.45-7.52.63L183,60l-8.21.69L172.91,70Zm10.43-15.35,6-.51L179.9,44.69c-.36-1.66-.51-3.28-.72-5-.05-.82-.15-1.63-.26-2.39h-.1c-.1.78-.2,1.61-.24,2.43-.2,1.7-.34,3.36-.69,5.07Z"/><path class="cls-1" d="M216.66,69.76l-3.92-3.33a15.62,15.62,0,0,1-6.61,1.67c-11.52,1-12.29-6-12.32-15.65l0-5.16c.27-9.24,1-16.15,12.23-17.09s12,5.84,12.32,15l0,5.16c0,4.63-.22,9.57-2,12.52l3.87,3.39Zm-6.3-12.06.35.31a18,18,0,0,0,.39-3.65l0-10c0-2.8.42-9.15-5.09-8.69s-5,6.74-5,9.54l0,10c0,3,.27,7.84,5.08,7.43a6.72,6.72,0,0,0,1.8-.39l-1.36-1.14Z"/><path class="cls-1" d="M239.54,28.23l7-.59.07,25.22c0,8-2.67,12-11.84,12.81s-12-2.8-12-10.8l-.07-25.22,7-.59.07,24.64c0,3.47.27,6.92,5,6.52,4.56-.38,4.8-3.88,4.79-7.35Z"/><path class="cls-1" d="M251.21,63.42l-.11-36.16,19.74-1.66v5.3L258.14,32l0,9.11,11.72-1,0,5.3-11.72,1,0,11.14,12.73-1.07,0,5.3Z"/><path class="cls-1" d="M271.8,25.52l23.4-2,0,5.3-8.17.69.09,30.86-7,.59L280,30.13l-8.22.69Z"/><path class="cls-1" d="M297.31,59.54l-.11-36.16,19.74-1.66V27l-12.72,1.07,0,9.11,11.72-1,0,5.3-11.72,1,0,11.14L317,52.57l0,5.3Z"/><path class="cls-1" d="M334.81,31.2c0-3.23-.27-6.39-4.13-6.07-2.36.2-3.86,1.24-3.85,3.7,0,2.75,1.82,3.66,4,4.82a58,58,0,0,1,8.54,5.21c2.41,2.06,3.17,4.17,3.18,7.3C342.59,53,337.89,57,331,57.56c-8.42.71-11.44-3.57-11.46-10V44.88l7-.59v2.12c-.14,3.53,1,6,4.43,5.7,3-.25,4.36-1.86,4.35-4.61A4.94,4.94,0,0,0,332.54,43c-3.66-2.44-8.23-4-11.1-7.41a9.12,9.12,0,0,1-1.82-5.39c0-6.17,3.58-9.85,11-10.48,11.17-.94,10.9,7.38,11,10.94Z"/><path class="cls-3" d="M355.71,54.62l-.06-21.93,8.87-.75a4.87,4.87,0,0,1,4.41,2.11c1,1.44,1.26,3.84,1.27,7.47,0,4.33,0,9.33-3.46,11.58a6.82,6.82,0,0,1-3.16.85Zm6.09-3.73c3.8-.32,4-2.27,4-8.61,0-5.17-.57-7.18-3.12-7l-2.79.24,0,15.5Z"/><path class="cls-3" d="M372.8,53.17l-.06-21.93,12-1v3.22l-7.71.65,0,5.53,7.11-.6v3.22l-7.11.6,0,6.75,7.71-.65v3.22Z"/><path class="cls-3" d="M396.36,37.85a8.48,8.48,0,0,0,2.67-.55,2.79,2.79,0,0,0,1.3-2.8c0-1.67-.64-2.4-2-2.29a2,2,0,0,0-2,1.9v1.55l-4,.33c-.26-4,1.62-6.63,6-7s6.2,1.64,6.21,5.12c0,1.9-.75,4.27-3,4.78V39c2,.07,3.5,1.67,3.45,5,0,4.3-1.92,7.06-6.6,7.46-5.89.5-6.36-3.62-6.3-5.9V44.27l4-.34c.1,1.81-.29,4.53,2.41,4.3,2.34-.2,2.27-2.3,2.27-4.34a3.8,3.8,0,0,0-.49-2.27c-.79-.84-2.64-.65-3.83-.55Z"/><path class="cls-3" d="M406.59,34.6c0-4.65,2.29-6.48,6.14-6.81s6.14,1.12,6.15,5.77l0,9.85c0,4.65-2.29,6.51-6.15,6.83s-6.14-1.15-6.15-5.8Zm4.28,9.49c-.11,2.46.77,3,1.86,2.94s2.06-.82,1.93-3.26l0-9.85c.11-2.44-.83-3-2-2.91s-2,.81-1.85,3.23Z"/><path class="cls-3" d="M427.71,48.55l-.06-21.93,8.87-.75A4.88,4.88,0,0,1,440.92,28c1,1.44,1.26,3.84,1.27,7.47,0,4.33,0,9.33-3.46,11.58a6.81,6.81,0,0,1-3.15.85Zm6.09-3.73c3.79-.32,4-2.27,4-8.61,0-5.17-.57-7.18-3.12-7l-2.79.24L432,45Z"/><path class="cls-3" d="M447.34,18.79l4.71-.4L447.56,23l-3.07.26ZM445,47.09l-.06-21.93,4.25-.36.06,21.93Z"/><path class="cls-3" d="M450.37,46.64l5.37-22.38,5.74-.48,5.23,21.49-4.55.38L461,40.19l-5,.42-1.11,5.65Zm6.32-9.31,3.64-.31-1.17-6.13c-.21-1-.31-2-.43-3,0-.5-.09-1-.16-1.45h-.06c-.06.47-.12,1-.15,1.47-.12,1-.21,2-.42,3.08Z"/><path class="cls-3" d="M476.47,29.17c0-2-.16-3.88-2.5-3.68-1.43.12-2.34.75-2.33,2.24,0,1.67,1.1,2.22,2.44,2.92a35.14,35.14,0,0,1,5.17,3.16,5.18,5.18,0,0,1,1.93,4.43c0,4.15-2.83,6.56-7,6.91-5.1.43-6.93-2.17-6.94-6.08V37.47l4.25-.36V38.4c-.08,2.14.59,3.63,2.68,3.46a2.53,2.53,0,0,0,2.63-2.8,3,3,0,0,0-1.71-2.75c-2.22-1.48-5-2.45-6.72-4.49a5.53,5.53,0,0,1-1.1-3.27c0-3.74,2.17-6,6.66-6.35,6.77-.57,6.6,4.47,6.64,6.63Z"/><path class="cls-4" d="M168.5,135.68,168.39,99l7.11-.6.11,36.64Z"/><path class="cls-4" d="M197.43,96.59l7.11-.6.11,36.64-7.41.63-5.57-12.58a111.1,111.1,0,0,1-5.12-14.13h-.1c.26,3,.58,6.7.79,10.39s.38,7.3.39,10.23l0,6.89-7.1.6L180.43,98l7.36-.62,5.57,12.87a110.77,110.77,0,0,1,5.12,14.13h.1c-.26-3.3-.53-6.85-.74-10.35s-.38-7-.39-10.28Z"/><path class="cls-4" d="M232,117.28c0,.69-.1,1.43-.15,2.11-.34,6.72-2.65,12.05-10.57,12.72-11.67,1-12.46-6.09-12.48-15.86l0-5.23c.28-9.36,1-16.36,12.39-17.32,6.35-.44,9.91,2.39,10.43,8.6a16.86,16.86,0,0,1,.16,2.77l-7,.59c-.31-2.32-.07-6.74-3.57-6.44-5.58.47-5.11,6.83-5.1,9.67l0,10.16c0,3,.28,7.94,5.15,7.53,3.91-.33,3.43-6.35,3.58-8.71Z"/><path class="cls-4" d="M235.71,130l-.11-36.64,7.11-.6L242.8,124l13.2-1.11,0,5.37Z"/><path class="cls-4" d="M276,90l7.11-.6.08,25.55c0,8.11-2.71,12.2-12,13S259,125.06,259,117l-.08-25.55,7.11-.6.07,25c0,3.52.28,7,5.1,6.61,4.62-.39,4.86-3.93,4.85-7.45Z"/><path class="cls-4" d="M296.89,97.83a22.47,22.47,0,0,1,1.69,5.48h.1A32.69,32.69,0,0,1,301,96.16l3.38-8.59,7.77-.65-10,21.9,0,15.59-7.11.6,0-15.59-10-20.22,7.77-.65Z"/><path class="cls-4" d="M314,123.41l-.11-36.64,20-1.69,0,5.37L321,91.54l0,9.23,11.88-1,0,5.37-11.87,1,0,11.29L334,116.35l0,5.37Z"/><path class="cls-4" d="M354.47,83.35l7.11-.6.11,36.64-7.41.63-5.57-12.58a111.18,111.18,0,0,1-5.12-14.13h-.1c.26,3,.58,6.7.79,10.39s.38,7.3.39,10.23l0,6.89-7.11.6-.11-36.64,7.36-.62L350.4,97a110.69,110.69,0,0,1,5.12,14.13h.1c-.26-3.3-.53-6.85-.74-10.35s-.37-7-.38-10.28Z"/><path class="cls-4" d="M399.72,103.14c0,.69-.1,1.42-.14,2.11C399.24,112,396.92,117.31,389,118c-11.67,1-12.46-6.09-12.48-15.86l0-5.23c.28-9.36,1-16.36,12.39-17.32,6.35-.44,9.91,2.39,10.43,8.6a16.86,16.86,0,0,1,.16,2.77l-7,.59c-.31-2.32-.07-6.74-3.57-6.44-5.58.47-5.11,6.83-5.1,9.67l0,10.16c0,3,.28,7.94,5.15,7.53,3.91-.33,3.43-6.35,3.58-8.71Z"/><path class="cls-4" d="M403.41,115.88l-.11-36.64,7.11-.6,0,14.51,9.95-.84,0-14.51,7.11-.6.11,36.64-7.11.6,0-16.76-9.95.84,0,16.76Z"/><path class="cls-4" d="M429.4,113.69l9-37.41,9.59-.81,8.74,35.92-7.61.64-1.91-9.12-8.32.7L437,113ZM440,98.14l6.09-.51-2-10.24c-.36-1.68-.52-3.33-.73-5-.05-.83-.16-1.65-.26-2.42H443c-.1.79-.2,1.63-.25,2.46-.2,1.73-.34,3.4-.69,5.14Z"/><path class="cls-4" d="M453.1,75l23.7-2,0,5.37-8.27.7.09,31.27-7.11.6-.09-31.27-8.32.7Z"/><polygon class="cls-3" points="1000.18 126.96 1000.34 181.62 505.48 222.89 505.32 168.22 1000.18 126.96"/><path class="cls-3" d="M673.89,140.51l-3.22-2.74a12.88,12.88,0,0,1-5.44,1.37c-9.48.8-10.12-4.94-10.14-12.88V122c.22-7.6.83-13.28,10.06-14.06s9.87,4.8,10.14,12.36v4.25c0,3.81-.18,7.87-1.66,10.3l3.18,2.79Zm-5.18-9.92.29.25a14.79,14.79,0,0,0,.32-3l0-8.25c0-2.3.35-7.53-4.18-7.15S661,118,661,120.29l0,8.25c0,2.46.22,6.45,4.18,6.12a5.6,5.6,0,0,0,1.48-.32l-1.12-.94Z"/><path class="cls-3" d="M692.71,106.35l5.77-.49.06,20.75c0,6.59-2.2,9.91-9.74,10.54s-9.86-2.3-9.88-8.89l-.06-20.75,5.77-.49.06,20.27c0,2.86.22,5.7,4.14,5.37,3.75-.32,3.95-3.19,3.94-6Z"/><path class="cls-3" d="M702.32,135.3l-.09-29.75,16.24-1.37v4.36l-10.47.88,0,7.5,9.65-.81v4.36l-9.64.81,0,9.16,10.47-.88v4.36Z"/><path class="cls-3" d="M743.82,102l5.77-.49.09,29.75-6,.51-4.53-10.21A90.51,90.51,0,0,1,735,110.13h-.08c.21,2.44.47,5.44.64,8.44s.31,5.93.31,8.31l0,5.59-5.77.49L730,103.2l6-.5,4.52,10.45a90,90,0,0,1,4.16,11.47h.08c-.21-2.68-.43-5.56-.6-8.4s-.3-5.69-.31-8.35Z"/><path class="cls-3" d="M753.29,113.74c.22-7.6.83-13.28,10.06-14.06s9.87,4.8,10.14,12.36v4.25c0,7.93-.58,13.78-10.06,14.58s-10.12-4.94-10.14-12.88Zm6,6.52c0,2.46.22,6.45,4.18,6.12,4.12-.35,4.15-4.44,4.14-7.29l0-7.62c0-2.38.1-7.67-4.19-7.3-4.53.38-4.15,5.55-4.14,7.85Z"/><path class="cls-4" d="M543.23,197.4c0,.69-.1,1.43-.15,2.11-.34,6.72-2.66,12.05-10.57,12.72-11.67,1-12.46-6.08-12.48-15.86l0-5.23c.28-9.36,1-16.36,12.39-17.32,6.34-.44,9.91,2.39,10.43,8.6a16.63,16.63,0,0,1,.16,2.77l-7,.59c-.31-2.32-.07-6.74-3.57-6.44-5.58.47-5.11,6.83-5.1,9.67l0,10.16c0,3,.28,7.94,5.15,7.53,3.91-.33,3.43-6.35,3.58-8.71Z"/><path class="cls-4" d="M546.5,188.91c.28-9.36,1-16.36,12.39-17.32s12.15,5.92,12.48,15.22l0,5.23c0,9.77-.71,17-12.38,18s-12.46-6.09-12.48-15.86Zm7.33,8c0,3,.28,7.94,5.15,7.53,5.07-.43,5.11-5.46,5.1-9l0-9.38c0-2.93.13-9.44-5.15-9-5.58.47-5.11,6.83-5.1,9.67Z"/><path class="cls-4" d="M592.8,169.61l7.11-.6.11,36.64-7.41.63L587,193.7a111.35,111.35,0,0,1-5.12-14.13h-.1c.26,3,.58,6.7.79,10.39s.38,7.3.39,10.23l0,6.89-7.11.6L575.8,171l7.36-.62,5.57,12.87a110.67,110.67,0,0,1,5.12,14.13h.1c-.26-3.3-.53-6.85-.74-10.35s-.37-7-.38-10.28Z"/><path class="cls-4" d="M619.33,178.52c0-3.28-.27-6.48-4.18-6.15-2.39.2-3.91,1.26-3.9,3.75,0,2.79,1.84,3.71,4.08,4.88a58.68,58.68,0,0,1,8.65,5.28c2.44,2.09,3.21,4.23,3.22,7.4,0,6.94-4.74,11-11.69,11.54-8.53.72-11.59-3.62-11.61-10.17v-2.69l7.11-.6v2.15c-.14,3.58,1,6.08,4.48,5.78,3-.25,4.41-1.89,4.4-4.67a5,5,0,0,0-2.86-4.6c-3.71-2.47-8.34-4.09-11.24-7.51a9.24,9.24,0,0,1-1.85-5.47c0-6.25,3.63-10,11.14-10.61,11.32-1,11,7.47,11.1,11.09Z"/><path class="cls-4" d="M648,165l7.11-.6.07,25.55c0,8.11-2.71,12.2-12,13s-12.14-2.84-12.16-10.95L631,166.4l7.11-.6.07,25c0,3.52.27,7,5.1,6.61,4.62-.39,4.86-3.93,4.85-7.45Z"/><path class="cls-4" d="M667.12,200l-7.11.6L659.9,164l11.32-1,3.86,16.68a76.22,76.22,0,0,1,1.34,8.34h.1a79.57,79.57,0,0,1,1.09-8.55l3.76-17.32,11.27-1,.11,36.64-7.11.6,0-11.53c0-7.28.11-14.57.54-21.89h-.1l-7.52,34-4.31.36-7.56-32.74-.25,0c.48,7.24.65,14.51.67,21.79Z"/><path class="cls-4" d="M697.32,197.46l-.11-36.64,20-1.69,0,5.37-12.89,1.09,0,9.23,11.88-1,0,5.37-11.88,1,0,11.29,12.89-1.09,0,5.37Z"/><path class="cls-4" d="M737.77,157.4l7.11-.6.11,36.64-7.41.62L732,181.49a111.46,111.46,0,0,1-5.12-14.13h-.1c.26,3,.58,6.7.79,10.39s.38,7.3.39,10.23l0,6.89-7.11.6-.11-36.64,7.36-.62,5.57,12.87a110.69,110.69,0,0,1,5.12,14.13h.1c-.26-3.3-.53-6.85-.74-10.35s-.37-7-.38-10.28Z"/><path class="cls-4" d="M757.82,155.71l23.7-2,0,5.37-8.27.7.09,31.27-7.11.6-.09-31.27-8.32.7Z"/><path class="cls-4" d="M800.81,152.08l7.11-.6L808,177c0,8.11-2.71,12.2-12,13s-12.14-2.84-12.17-10.95l-.07-25.55,7.11-.6.07,25c0,3.52.27,7,5.1,6.61,4.62-.39,4.86-3.93,4.85-7.45Z"/><path class="cls-4" d="M827.29,161c0-3.28-.27-6.48-4.18-6.15-2.38.2-3.9,1.26-3.9,3.75,0,2.79,1.84,3.71,4.08,4.88a58.7,58.7,0,0,1,8.65,5.28c2.44,2.09,3.21,4.23,3.22,7.4,0,6.94-4.74,11-11.69,11.54-8.53.72-11.58-3.62-11.6-10.17v-2.69l7.11-.6v2.15c-.14,3.58,1,6.08,4.48,5.78,3-.25,4.41-1.89,4.4-4.67a5,5,0,0,0-2.86-4.6c-3.71-2.47-8.34-4.09-11.24-7.51a9.25,9.25,0,0,1-1.84-5.47c0-6.25,3.63-10,11.14-10.61,11.32-1,11,7.47,11.1,11.09Z"/><path class="cls-4" d="M849.9,184.6,849.79,148l14.82-1.25a8.15,8.15,0,0,1,7.37,3.53c1.63,2.4,2.1,6.42,2.12,12.48,0,7.23,0,15.59-5.78,19.35a11.4,11.4,0,0,1-5.28,1.42Zm10.19-6.23c6.34-.54,6.74-3.79,6.71-14.4,0-8.65-.95-12-5.21-11.63l-4.67.39.08,25.9Z"/><path class="cls-4" d="M875.69,182.43l9-37.41,9.59-.81L903,180.12l-7.61.64-1.91-9.12-8.32.7-1.85,9.44Zm10.56-15.55,6.09-.51-2-10.25c-.36-1.68-.52-3.33-.72-5-.05-.83-.16-1.65-.26-2.42h-.1c-.1.79-.2,1.63-.25,2.46-.2,1.73-.35,3.4-.7,5.14Z"/><path class="cls-4" d="M899.38,143.78l23.7-2,0,5.37-8.27.7.09,31.27-7.11.6-.09-31.27-8.32.7Z"/><path class="cls-4" d="M925,157c.28-9.36,1-16.36,12.39-17.32s12.15,5.92,12.48,15.22l0,5.23c0,9.77-.71,17-12.38,18S925.06,172,925,162.24Zm7.33,8c0,3,.28,7.94,5.15,7.53,5.07-.43,5.11-5.46,5.1-9l0-9.38c0-2.93.13-9.44-5.15-9-5.58.47-5.11,6.83-5.1,9.67Z"/><path class="cls-4" d="M968.85,149.06c0-3.28-.27-6.48-4.18-6.15-2.39.2-3.91,1.26-3.9,3.75,0,2.79,1.84,3.71,4.08,4.89a58.68,58.68,0,0,1,8.65,5.28c2.44,2.09,3.21,4.23,3.22,7.4,0,6.94-4.74,11-11.69,11.54-8.53.72-11.59-3.62-11.61-10.17v-2.69l7.11-.6v2.15c-.14,3.58,1,6.07,4.48,5.78,3-.25,4.41-1.89,4.4-4.67a5,5,0,0,0-2.86-4.6c-3.71-2.47-8.34-4.09-11.24-7.51a9.23,9.23,0,0,1-1.84-5.46c0-6.25,3.63-10,11.14-10.61,11.32-1,11,7.47,11.1,11.09Z"/><path class="cls-4" d="M989.07,152.69l-2.75-3.53c-.15-.23-.3-.42-.46-.7a6.6,6.6,0,0,1-.61,1l-2.73,3.85-3.36-2,2.78-3.95a3.73,3.73,0,0,1,.56-.73l-1-.21-4.47-1,1.21-3.82,4.52,1a6.07,6.07,0,0,1,.91.22,5.91,5.91,0,0,1-.05-1v-4.54l4.06-.34v4.54a5.17,5.17,0,0,1,0,.88c.3-.12.66-.25,1.06-.43l4.36-1.78,1.38,3.7-4.56,1.7a3.22,3.22,0,0,1-.91.27,3.74,3.74,0,0,1,.71.82l2.75,3.43Z"/><polyline class="cls-2" points="505.56 247.7 1023.8 201.87 1023.5 98.57 794.79 118.73"/><path class="cls-1" d="M652.68,94.12l-.1-32.36,13.09-1.1a7.2,7.2,0,0,1,6.51,3.12c1.44,2.12,1.86,5.67,1.87,11,0,6.39,0,13.77-5.11,17.09a10.06,10.06,0,0,1-4.66,1.26Zm9-5.51c5.61-.47,6-3.35,5.93-12.71,0-7.64-.84-10.59-4.61-10.27l-4.12.35.07,22.87Z"/><path class="cls-1" d="M677.92,92l-.09-32.36,17.67-1.49v4.75l-11.39,1,0,8.16,10.49-.88v4.75l-10.49.88,0,10,11.39-1,0,4.75Z"/><path class="cls-1" d="M729.7,72c.64,3.18,1,7.3,1.42,11.4h.09c.09-.78.13-1.56.22-2.35.22-2.78.48-5.57.92-8.36l2.46-17.86,6.5-.55-6.14,32.89-7.53.63-2.55-12.56c-.68-3.35-.92-6.79-1.37-10.2h-.09c-.44,3.49-.65,7-1.31,10.43l-2.2,13-7.53.63-6.51-31.82,6.5-.55,2.88,17.41c.46,2.72.73,5.46,1,8.21.09.77.14,1.54.19,2.32h.09c.48-4.18.78-8.35,1.4-11.64l3-17,5.2-.44Z"/><path class="cls-1" d="M743.69,86.45l-.1-32.36,6.28-.53,0,12.82,8.79-.74,0-12.82,6.28-.53.1,32.36-6.28.53,0-14.8-8.79.74,0,14.8Z"/><path class="cls-1" d="M766.65,84.51l7.93-33,8.47-.71,7.72,31.72L784,83,782.36,75l-7.35.62-1.63,8.34ZM776,70.78l5.38-.45-1.73-9c-.32-1.48-.46-2.94-.64-4.44,0-.73-.14-1.46-.23-2.14h-.09c-.09.7-.18,1.44-.22,2.18-.17,1.53-.3,3-.61,4.54Z"/><path class="cls-1" d="M787.58,50.38l20.94-1.76v4.75l-7.31.62.08,27.62-6.28.53-.08-27.62-7.35.62Z"/><path class="cls-1" d="M823.34,57.2c0-2.89-.24-5.72-3.69-5.43-2.11.18-3.45,1.11-3.44,3.31,0,2.46,1.62,3.27,3.6,4.31a51.84,51.84,0,0,1,7.64,4.67,7.64,7.64,0,0,1,2.84,6.54c0,6.13-4.19,9.68-10.33,10.19-7.53.63-10.24-3.19-10.25-9V69.45l6.28-.53v1.9c-.12,3.16.87,5.36,4,5.1,2.64-.22,3.9-1.67,3.89-4.12a4.42,4.42,0,0,0-2.52-4.06c-3.28-2.18-7.37-3.61-9.93-6.63a8.17,8.17,0,0,1-1.63-4.83c0-5.52,3.2-8.82,9.84-9.38,10-.84,9.75,6.6,9.81,9.79Z"/><path class="cls-1" d="M831.08,79.08,839,46l8.47-.71L855.2,77l-6.73.57-1.68-8.06-7.35.62-1.63,8.34Zm9.33-13.74,5.38-.45-1.73-9c-.32-1.48-.46-2.94-.64-4.44,0-.73-.14-1.46-.23-2.14h-.09c-.09.7-.18,1.44-.22,2.18-.18,1.53-.3,3-.62,4.54Z"/><path class="cls-1" d="M856.86,76.91l-.1-32.36,12.83-1.08c6-.51,7.86,4,7.87,8.53,0,2.76-.74,5.93-3.12,7.95a12.1,12.1,0,0,1-7,2.53l-4.22.36,0,13.55Zm6.22-18.83,3.36-.28c2.74-.23,4.57-1.51,4.56-5.43,0-3.71-1.54-4.14-5.08-3.85l-2.87.24Z"/><path class="cls-1" d="M880,75l-.1-32.36,12.83-1.08c6-.51,7.86,4,7.87,8.53,0,2.76-.74,5.93-3.12,7.95a12.1,12.1,0,0,1-7,2.54l-4.22.36,0,13.55Zm6.22-18.82,3.36-.28c2.74-.23,4.57-1.51,4.56-5.43,0-3.71-1.54-4.14-5.08-3.85l-2.87.24Z"/><path class="cls-5" d="M562.62,6.18A70.65,70.65,0,0,0,501.88,112.9L493,148.82l35.41-10.19A70.65,70.65,0,1,0,562.62,6.18Z"/><path class="cls-6" d="M562.62,0a76.77,76.77,0,0,0-66,116l-9.68,39,38.47-11.08A76.77,76.77,0,1,0,562.62,0Zm.87,140.8a63.42,63.42,0,0,1-36.11-11.23l-21.91,6.31,5.6-22.57a63.73,63.73,0,1,1,52.42,27.49Z"/><path class="cls-7" d="M543.21,70.69l2.67-3.07c1.5-1.74,3.74-3.41,3.85-5.91a17.45,17.45,0,0,0-1.59-7c-.55-1.4-1.11-2.79-1.64-4.2-1-2.55-2.22-6.13-3.63-7.63a6.81,6.81,0,0,0-7.77-1.21S520,49,524.67,63.44c0,0,9,40.85,54.18,49.25,0,0,16.22,2.32,20.56-7.53a17.37,17.37,0,0,0,1.42-7.43c-.16-2.24-1.74-3.73-3.58-4.8-2.38-1.36-4.5-2.64-7.21-4-2.35-1.16-5.06-2.87-7.77-2.13-2,.55-3.41,2.36-4.76,3.81-1.76,1.86-3.55,3.7-5.32,5.54C572.18,96.18,549.3,87.77,543.21,70.69Z"/></svg>