<svg id="Capa_1" data-name="Capa 1" xmlns="http://www.w3.org/2000/svg" viewBox="0 0 851.65 153.31"><defs><style>.cls-1{fill:#fff;}.cls-2{fill:#522481;}</style></defs><title>en-movil-exito</title><polygon class="cls-1" points="851.65 0 851.65 79.84 0 153.31 0 73.46 851.65 0"/><path class="cls-2" d="M254.95,75.26l24.83-2.16v4l-20,1.74V90.19l18.68-1.62v4l-18.68,1.62v12.35l20.2-1.75v4l-25,2.17Z"/><path class="cls-2" d="M284.06,82.58l4-.35v4.1h.1a10.07,10.07,0,0,1,8.46-5.43c6.85-.6,9,3.12,9,8.67v17l-4.28.37V89.43c0-3.15-2-5-5.29-4.74-5.19.45-7.71,4.12-7.71,8.77v14.6l-4.28.37Z"/><path class="cls-2" d="M326.57,69l15.76-1.37,5.14,20.55h.1l5.14-21.44,15.76-1.37v35.69L358,102V79.11h-.1l-6.25,23.44-8.26.72-6.25-22.35H337v22.89l-10.48.91Z"/><path class="cls-2" d="M386.21,100.2C376.38,101.06,372,95,372,87.79s4.43-14,14.25-14.83,14.25,5.16,14.25,12.36S396,99.35,386.21,100.2ZM387.87,71l-6.85.59,5-7.88,10.53-.91Zm-1.66,9.19c-3.78.33-4.28,4-4.28,6.77s.5,6.41,4.28,6.08,4.28-4.07,4.28-6.82S390,79.83,386.21,80.16Z"/><path class="cls-2" d="M421,96.54l-11.79,1-8.56-25.2,10.53-.91,4.08,15.44h.1l4.13-16.15,10.17-.88Z"/><path class="cls-2" d="M441.06,66l-10,.87V60l10-.87Zm-10,3.66,10-.87V94.79l-10,.87Z"/><path class="cls-2" d="M446,58.67l10-.87V93.5l-10,.87Z"/><path class="cls-2" d="M476.72,56l29.76-2.58v9.15L487.8,64.19v4.45l17-1.47v8.5l-17,1.47v4.45L507,79.91v9.15l-30.32,2.63Zm16.52-3.93-6.85.59,5-7.88,10.53-.91Z"/><path class="cls-2" d="M516.76,74.57,508.55,63l11-1,2.87,4.9,2.92-5.4L536,60.6l-8.21,13,9.27,12.84-11,1-3.83-6-3.68,6.67L507.64,89Z"/><path class="cls-2" d="M548.29,56.74l-10,.87V50.65l10-.87Zm-10,3.66,10-.87V85.48l-10,.87Z"/><path class="cls-2" d="M565,58.09l5.34-.46v6.1l-5.34.46v9c0,2.4.55,3.4,3.07,3.18a17.81,17.81,0,0,0,2.27-.35v7.5c-2,.17-4.28.67-6.4.86-4.23.37-8.91.12-8.91-7V65l-4.43.38v-6.1L555,59v-7.9l10-.87Z"/><path class="cls-2" d="M585.71,82.88c-9.82.85-14.25-5.21-14.25-12.41s4.43-14,14.25-14.83S600,60.8,600,68,595.54,82,585.71,82.88Zm0-20c-3.78.33-4.28,4-4.28,6.77s.5,6.41,4.28,6.08S590,71.61,590,68.86,589.49,62.51,585.71,62.84Z"/></svg>