<svg id="Capa_1" data-name="Capa 1" xmlns="http://www.w3.org/2000/svg" viewBox="0 0 293.04 110.69"><defs><style>.cls-1{fill:#fff;}</style></defs><title>escalera-blanca</title><path class="cls-1" d="M272.39,64.27,229.74,31.1l-4.26-3.3L222.17,32,197.85,63.32,189,74.7l-11.37-8.86-31.28-24.3-4.26-3.3-3.3,4.24L114.49,73.73l-8.85,11.4L94.26,76.28,63,52l-4.28-3.32-3.29,4.25L22.26,95.57,15.12,90,48.29,47.37,57.14,36l11.38,8.84L99.79,69.15l4.26,3.3,3.3-4.24,24.31-31.28,8.85-11.38,11.37,8.84,31.28,24.32L187.42,62l3.3-4.26L215,26.5l8.86-11.38L235.27,24l42.65,33.18ZM0,91.9l4.26,3.3,15.64,12.16,4.26,3.32,3.3-4.26L60.63,63.77l27,21,15.62,12.16,4.26,3.32L110.83,96,123,80.36l21-27,27,21L186.63,86.5l4.27,3.32,3.29-4.26,12.16-15.64,21-27L270,76.06l4.26,3.32,3.3-4.26,12.14-15.64L293,55.25l-4.25-3.3L241.9,15.46,226.26,3.32,222,0l-3.29,4.26L206.54,19.88l-21,27-27-21L142.89,13.75l-4.27-3.32-3.3,4.26L123.17,30.31l-21,27-27-21L59.51,24.17l-4.26-3.3-3.3,4.24L39.8,40.74,3.31,87.65Z"/></svg>