<svg id="Capa_1" data-name="Capa 1" xmlns="http://www.w3.org/2000/svg" viewBox="0 0 213.32 80.58"><defs><style>.cls-1{fill:#f2df3c;}</style></defs><title>escalera-amarilla</title><path class="cls-1" d="M198.29,46.78l-31-24.14-3.1-2.4-2.4,3.08L144,46.09l-6.44,8.29-8.27-6.45L106.54,30.24l-3.1-2.4L101,30.92,83.34,53.67,76.9,62l-8.28-6.45L45.86,37.83l-3.11-2.42-2.4,3.1L16.2,69.57l-5.2-4,24.15-31L41.6,26.2l8.29,6.44L72.64,50.34l3.1,2.4,2.41-3.08,17.7-22.77,6.44-8.29L110.57,25l22.77,17.7,3.1,2.42,2.4-3.1,17.7-22.77L163,11l8.28,6.44L202.32,41.6ZM0,66.9l3.1,2.4,11.39,8.85,3.1,2.42,2.4-3.1L44.13,46.42,63.8,61.71l11.37,8.85L78.27,73l2.41-3.1L89.53,58.5l15.29-19.67,19.67,15.3L135.86,63,139,65.38l2.4-3.1,8.85-11.39,15.29-19.67,31,24.14,3.1,2.42,2.4-3.1,8.84-11.38,2.42-3.09-3.09-2.4L176.09,11.26,164.71,2.42,161.61,0l-2.4,3.1-8.85,11.37L135.06,34.14,115.4,18.85,104,10,100.91,7.6l-2.4,3.1L89.66,22.07,74.36,41.74,54.7,26.45,43.32,17.6l-3.1-2.4-2.4,3.08L29,29.66,2.41,63.8Z"/></svg>