<svg id="Capa_1" data-name="Capa 1" xmlns="http://www.w3.org/2000/svg" xmlns:xlink="http://www.w3.org/1999/xlink" viewBox="0 0 372.39 57.18"><defs><style>.cls-1{fill:none;}.cls-2{fill:#704790;}.cls-3{fill:#a990bc;}.cls-4{fill:#211915;opacity:0.5;}.cls-5{fill:#fff;}.cls-6{clip-path:url(#clip-path);}</style><clipPath id="clip-path"><rect class="cls-1" x="991.26" y="-135.34" width="389.8" height="240.12"/></clipPath></defs><title>facebook</title><rect class="cls-2" width="372.38" height="57.18" rx="12.49" ry="12.49"/><path class="cls-3" d="M372.39,12.49V13.8A12.12,12.12,0,0,0,360.27,1.68H12.12A12.12,12.12,0,0,0,0,13.8V12.49A12.49,12.49,0,0,1,12.49,0H359.89A12.49,12.49,0,0,1,372.39,12.49Z"/><path class="cls-4" d="M372.39,43.39v1.3a12.49,12.49,0,0,1-12.5,12.5H12.49A12.49,12.49,0,0,1,0,44.69v-1.3A12.11,12.11,0,0,0,12.12,55.49H360.27A12.11,12.11,0,0,0,372.39,43.39Z"/><path class="cls-5" d="M32.93,13.1A15.65,15.65,0,1,0,48.58,28.74,15.67,15.67,0,0,0,32.93,13.1Zm3.89,16.2H34.28v9.08H30.51V29.29H28.71V26.09h1.79V24a3.54,3.54,0,0,1,3.81-3.81h2.79v3.11h-2a.77.77,0,0,0-.8.87v1.89h2.88Zm0,0"/><path class="cls-5" d="M63.64,26.58H61.52v-2h2.13V22.52c0-2.24,1.22-3.42,3.5-3.42a4.72,4.72,0,0,1,1.35.21v2a3.6,3.6,0,0,0-1.17-.19c-1,0-1.59.35-1.59,1.55v1.92h2.45v2H65.72v11.8H63.64Z"/><path class="cls-5" d="M82,38.32a2.62,2.62,0,0,1-1.49.37c-1.08,0-1.76-.64-1.76-2.13a5.41,5.41,0,0,1-4.45,2.13c-2.3,0-4.18-1.12-4.18-3.87,0-3.12,2.13-3.79,4.28-4.24s4.26-.32,4.26-2c0-2-1.49-2.29-2.81-2.29-1.76,0-3.06.59-3.15,2.62H70.62c.12-3.42,2.54-4.62,5.36-4.62,2.27,0,4.74.56,4.74,3.79v7.1c0,1.07,0,1.55.66,1.55a1.66,1.66,0,0,0,.64-.13Zm-3.37-7.07c-.81.64-2.37.67-3.77.93s-2.54.8-2.54,2.48c0,1.5,1.17,2,2.45,2,2.74,0,3.87-1.87,3.87-3.12Z"/><path class="cls-5" d="M93.31,29a3,3,0,0,0-3.13-2.75c-3,0-3.94,2.59-3.94,5.39,0,2.54,1.05,5,3.69,5,2,0,3.2-1.28,3.47-3.36h2.13c-.46,3.36-2.4,5.36-5.58,5.36-3.86,0-5.92-2.94-5.92-7s2-7.39,6-7.39c2.86,0,5.16,1.47,5.46,4.75Z"/><path class="cls-5" d="M109.43,34c-.56,3-2.57,4.7-5.41,4.7-4,0-5.94-3-6.07-7.26s2.49-7.18,5.94-7.18c4.48,0,5.85,4.56,5.72,7.9h-9.47c-.07,2.4,1.17,4.54,3.94,4.54a3.1,3.1,0,0,0,3.28-2.7Zm-2-3.84a3.81,3.81,0,0,0-3.64-3.9c-2.18,0-3.47,1.79-3.62,3.9Z"/><path class="cls-5" d="M112.64,19.32h2.08v7.13h0a4.17,4.17,0,0,1,4-2.19c3.89,0,5.82,3.36,5.82,7.26s-1.91,7.18-5.77,7.18a4.71,4.71,0,0,1-4.09-2.16h0v1.84h-2.08Zm5.87,6.94c-2.79,0-3.86,2.62-3.86,5.2s1.13,5.23,4,5.23,3.79-2.64,3.79-5.34S121.2,26.26,118.51,26.26Z"/><path class="cls-5" d="M133.3,24.25c4,0,6.14,3.18,6.14,7.23s-2.13,7.21-6.14,7.21-6.14-3.18-6.14-7.21S129.29,24.25,133.3,24.25Zm0,12.44c2.18,0,3.94-1.87,3.94-5.2s-1.76-5.23-3.94-5.23-3.94,1.87-3.94,5.23S131.13,36.69,133.3,36.69Z"/><path class="cls-5" d="M148.13,24.25c4,0,6.14,3.18,6.14,7.23s-2.13,7.21-6.14,7.21S142,35.52,142,31.49,144.12,24.25,148.13,24.25Zm0,12.44c2.18,0,3.94-1.87,3.94-5.2s-1.76-5.23-3.94-5.23-3.94,1.87-3.94,5.23S146,36.69,148.13,36.69Z"/><path class="cls-5" d="M157.62,19.32h2.08V30.61l5.77-6h2.79l-5,5,5.38,8.78H166l-4.33-7.21-2,2v5.23h-2.08Z"/><path class="cls-5" d="M171.44,35.41h2.71v3h-2.71Z"/><path class="cls-5" d="M187.14,29A3,3,0,0,0,184,26.26c-3,0-3.94,2.59-3.94,5.39,0,2.54,1.05,5,3.69,5,2,0,3.2-1.28,3.47-3.36h2.13c-.46,3.36-2.4,5.36-5.58,5.36-3.86,0-5.92-2.94-5.92-7s2-7.39,6-7.39c2.86,0,5.16,1.47,5.46,4.75Z"/><path class="cls-5" d="M197.93,24.25c4,0,6.14,3.18,6.14,7.23s-2.13,7.21-6.14,7.21-6.14-3.18-6.14-7.21S193.92,24.25,197.93,24.25Zm0,12.44c2.18,0,3.94-1.87,3.94-5.2s-1.76-5.23-3.94-5.23S194,28.12,194,31.49,195.75,36.69,197.93,36.69Z"/><path class="cls-5" d="M207.29,24.57h2v2h0a4.57,4.57,0,0,1,4.09-2.35,3.35,3.35,0,0,1,3.47,2.35,4.6,4.6,0,0,1,4-2.35c2.52,0,4.21,1.15,4.21,4V38.37h-2.08v-9c0-1.71-.42-3.07-2.45-3.07a3.21,3.21,0,0,0-3.3,3.52v8.59h-2.08v-9c0-1.79-.51-3.07-2.37-3.07-2.47,0-3.37,2.48-3.37,3.52v8.59h-2.08Z"/><path class="cls-5" d="M234.18,18.86H236l-7.24,20h-1.79Z"/><path class="cls-5" d="M237.87,24.57h2v2h0A4.57,4.57,0,0,1,244,24.25a3.35,3.35,0,0,1,3.47,2.35,4.6,4.6,0,0,1,4-2.35c2.52,0,4.21,1.15,4.21,4V38.37h-2.08v-9c0-1.71-.42-3.07-2.45-3.07a3.21,3.21,0,0,0-3.3,3.52v8.59H245.7v-9c0-1.79-.51-3.07-2.37-3.07-2.47,0-3.37,2.48-3.37,3.52v8.59h-2.08Z"/><path class="cls-5" d="M265,24.25c4,0,6.14,3.18,6.14,7.23S269,38.69,265,38.69s-6.14-3.18-6.14-7.21S261,24.25,265,24.25Zm0,12.44c2.18,0,3.94-1.87,3.94-5.2s-1.76-5.23-3.94-5.23S261,28.12,261,31.49,262.79,36.69,265,36.69Z"/><path class="cls-5" d="M280,38.37h-2.23l-4.7-13.8h2.32L279,36.08h0l3.45-11.5h2.18Z"/><path class="cls-5" d="M289.55,22.09h-2.08V19.32h2.08Zm-2.08,2.48h2.08v13.8h-2.08Z"/><path class="cls-5" d="M293.69,19.32h2.08V38.37h-2.08Z"/><path class="cls-5" d="M310.56,34c-.56,3-2.57,4.7-5.41,4.7-4,0-5.94-3-6.07-7.26s2.49-7.18,5.94-7.18c4.48,0,5.85,4.56,5.72,7.9h-9.47c-.07,2.4,1.17,4.54,3.94,4.54a3.1,3.1,0,0,0,3.28-2.7Zm-2-3.84a3.81,3.81,0,0,0-3.64-3.9c-2.18,0-3.47,1.79-3.62,3.9Z"/><path class="cls-5" d="M317.09,31.11l-4.4-6.54h2.67l3,4.83,3.15-4.83H324l-4.36,6.35,4.89,7.45h-2.67l-3.52-5.71-3.52,5.71h-2.52Z"/><path class="cls-5" d="M329.35,22.09h-2.08V19.32h2.08Zm-2.08,2.48h2.08v13.8h-2.08Z"/><path class="cls-5" d="M336.25,24.57h2.52v2h-2.52v8.57c0,1,.27,1.23,1.57,1.23h1v2h-1.59c-2.15,0-3-.48-3-3V26.58H332v-2h2.15V20.44h2.08Z"/><path class="cls-5" d="M347.3,24.25c4,0,6.14,3.18,6.14,7.23s-2.13,7.21-6.14,7.21-6.14-3.18-6.14-7.21S343.29,24.25,347.3,24.25Zm0,12.44c2.18,0,3.94-1.87,3.94-5.2s-1.76-5.23-3.94-5.23-3.94,1.87-3.94,5.23S345.12,36.69,347.3,36.69Z"/><g class="cls-6"><path class="cls-5" d="M1026.24-89.46v49.15a28.41,28.41,0,0,1-28.41,28.41H168.15V104.78H1381.06V-117.88H1054.65A28.41,28.41,0,0,0,1026.24-89.46Z"/></g></svg>