<svg id="Capa_1" data-name="Capa 1" xmlns="http://www.w3.org/2000/svg" xmlns:xlink="http://www.w3.org/1999/xlink" viewBox="0 0 389.8 240.12"><defs><style>.cls-1{fill:none;}.cls-2{clip-path:url(#clip-path);}.cls-3{fill:#fff;}.cls-4{fill:#1d1612;}.cls-5{fill:#e2d335;}.cls-6{fill:#ab391b;}.cls-7{fill:#704790;}.cls-8{fill:#faeb15;}.cls-9{fill:#c43d27;}</style><clipPath id="clip-path"><rect class="cls-1" width="389.8" height="240.12"/></clipPath></defs><title>logo-cierre</title><g class="cls-2"><path class="cls-3" d="M35,45.87V95A28.41,28.41,0,0,1,6.57,123.43H-823.11V240.12H389.8V17.46H63.39A28.41,28.41,0,0,0,35,45.87Z"/><path class="cls-4" d="M315.21,91.34a2.54,2.54,0,0,1-1.27,2.22,2.54,2.54,0,0,1-1.29.35,2.45,2.45,0,0,1-1.27-.35,2.38,2.38,0,0,1-.94-.94,2.5,2.5,0,0,1-.35-1.28,2.56,2.56,0,0,1,.35-1.29,2.33,2.33,0,0,1,.94-.93,2.41,2.41,0,0,1,1.27-.34,2.49,2.49,0,0,1,1.29.34,2.44,2.44,0,0,1,.94.93,2.56,2.56,0,0,1,.33,1.29m-.49,0a2.06,2.06,0,0,0-2.08-2.07,2.06,2.06,0,0,0-2.06,2.07,2.07,2.07,0,0,0,4.14,0M311.49,90h1.23a1.11,1.11,0,0,1,.75.22.68.68,0,0,1,.24.56.71.71,0,0,1-.18.47,1.05,1.05,0,0,1-.56.3.84.84,0,0,1,.23.12,1.82,1.82,0,0,1,.22.29s.14.28.45.79h-.82a6.83,6.83,0,0,0-.53-.93.37.37,0,0,0-.27-.16h-.08v1.08h-.69Zm.69,1.18h.28a.72.72,0,0,0,.42-.1.28.28,0,0,0,.11-.24.28.28,0,0,0-.11-.24.59.59,0,0,0-.39-.1h-.32Z"/><path class="cls-4" d="M227.05,174.73a4.38,4.38,0,0,0-1.33-1.11,3.62,3.62,0,0,0-1.74-.42h-.48a3.08,3.08,0,0,0-.52.07l-.26,0v0a.55.55,0,0,0-.28-.48,1.09,1.09,0,0,0-1.26.11,1.34,1.34,0,0,0-.47.86q-.33,1.65-.73,3.7c-.26,1.36-.51,2.77-.75,4.19s-.44,2.82-.62,4.13a26.61,26.61,0,0,0-.27,3.48c0,.31,0,.71.05,1.19s.09,1,.17,1.48a10.41,10.41,0,0,0,.31,1.42,2.51,2.51,0,0,0,.51,1,2.71,2.71,0,0,0,.3.26.74.74,0,0,0,.46.15.72.72,0,0,0,.57-.25.86.86,0,0,0,.21-.58.79.79,0,0,0-.29-.69,1.64,1.64,0,0,1-.1-.38c-.06-.3-.12-.68-.17-1.1s-.11-.91-.15-1.41-.06-1-.06-1.43,0-.71,0-1.12.08-.84.14-1.26.13-.87.21-1.29.15-.71.24-1h.46a7.63,7.63,0,0,0,2.54-.44,7.18,7.18,0,0,0,2.22-1.26,6.33,6.33,0,0,0,1.57-2,5.68,5.68,0,0,0,.6-2.61,5.34,5.34,0,0,0-.29-1.72,5,5,0,0,0-.84-1.53m-5.66,7.9c-.18,0-.29-.05-.29-.31a1.1,1.1,0,0,1,0-.18c0-.06,0-.14,0-.23s.08-.56.16-1l.21-1.35c.08-.48.16-1,.25-1.49s.19-1,.29-1.43.2-.8.3-1.1.21-.47.22-.48a1.33,1.33,0,0,1,.51-.14,5.71,5.71,0,0,1,.91-.07,2.07,2.07,0,0,1,1.74.86,2.94,2.94,0,0,1,.43.9,3.89,3.89,0,0,1,.14,1.07,4.83,4.83,0,0,1-1.47,3.53,5,5,0,0,1-1.57,1,4.92,4.92,0,0,1-1.89.37"/><path class="cls-4" d="M237.8,183.49a5,5,0,0,1-.83-1.24,7.57,7.57,0,0,1-.51-1.44,9.54,9.54,0,0,1-.25-1.54c0-.52-.06-1-.06-1.56l.05-1.43a1.67,1.67,0,0,0-.13-.66.64.64,0,0,0-.65-.37.68.68,0,0,0-.59.31,2.13,2.13,0,0,0-.28.64c0,.07-.09.24-.27.64s-.34.71-.58,1.18-.5.93-.78,1.41-.57.95-.86,1.36a6.86,6.86,0,0,1-.82,1c-.31.31-.49.36-.56.36a.21.21,0,0,1-.18-.08.63.63,0,0,1-.13-.27,1.59,1.59,0,0,1-.06-.35q0-.18,0-.3a7.07,7.07,0,0,1,.42-2.29,11.94,11.94,0,0,1,1.07-2.3,8.44,8.44,0,0,1,1.37-1.77,2,2,0,0,1,1.29-.68,1.1,1.1,0,0,1,.33.07l.41.17.42.18c.49.2.72,0,.81-.13a.73.73,0,0,0,.11-.41,1,1,0,0,0-.24-.68,1.76,1.76,0,0,0-.56-.43,2.66,2.66,0,0,0-.68-.23,3.12,3.12,0,0,0-.59-.07,3.6,3.6,0,0,0-2.18.8,7.91,7.91,0,0,0-1.85,2,11.64,11.64,0,0,0-1.31,2.75,9.47,9.47,0,0,0-.51,3,8.87,8.87,0,0,0,.05.94,2.8,2.8,0,0,0,.24.9,1.66,1.66,0,0,0,1.6.94,2.28,2.28,0,0,0,1.34-.45,5.82,5.82,0,0,0,1.13-1.1,13.13,13.13,0,0,0,1-1.41c.21-.34.41-.68.6-1q.09.5.21,1a9.27,9.27,0,0,0,.46,1.45,5.27,5.27,0,0,0,.74,1.26,3.45,3.45,0,0,0,1.12.92l.24.1a1,1,0,0,0,.29,0,.77.77,0,0,0,.37-.09.44.44,0,0,0,.23-.4.78.78,0,0,0-.16-.44,2.19,2.19,0,0,0-.27-.34"/><path class="cls-4" d="M247.11,174.63a.52.52,0,0,0,.3-.51.87.87,0,0,0-.27-.66,1.74,1.74,0,0,0-.58-.35,2.61,2.61,0,0,0-.66-.16,4.73,4.73,0,0,0-.54,0,3.75,3.75,0,0,0-2.32.76,9.91,9.91,0,0,0-1.59,1.57s0-.1,0-.15,0-.31.05-.47a3.45,3.45,0,0,0,0-.35,1.31,1.31,0,0,0-.17-.64.7.7,0,0,0-.66-.36,1.08,1.08,0,0,0-.72.25.9.9,0,0,0-.34.6s0,.15,0,.35,0,.48-.08.79-.07.69-.13,1.1-.11.84-.18,1.3-.14.87-.21,1.39-.15,1-.22,1.59-.12,1.07-.17,1.58-.06,1-.06,1.36a1.65,1.65,0,0,0,.14.68.68.68,0,0,0,.69.38.74.74,0,0,0,.63-.26,1.42,1.42,0,0,0,.22-.65c0-.3.07-.66.11-1.08s.1-.85.19-1.32.19-1,.33-1.45a10.44,10.44,0,0,1,.52-1.5,13,13,0,0,1,.64-1.25,7.13,7.13,0,0,1,.9-1.24,5.46,5.46,0,0,1,1.16-1,2.48,2.48,0,0,1,1.33-.38,1.52,1.52,0,0,1,.56.09,1.32,1.32,0,0,0,1.09,0"/><path class="cls-4" d="M255.5,183.49a5,5,0,0,1-.83-1.24,7.57,7.57,0,0,1-.51-1.44,9.54,9.54,0,0,1-.25-1.54c0-.52-.06-1-.06-1.56l.05-1.43a1.67,1.67,0,0,0-.13-.66.64.64,0,0,0-.65-.37.68.68,0,0,0-.59.31,2.13,2.13,0,0,0-.28.64c0,.07-.09.24-.27.64s-.34.71-.58,1.18-.5.93-.78,1.41-.57.95-.86,1.36a6.86,6.86,0,0,1-.82,1c-.31.31-.49.36-.56.36a.21.21,0,0,1-.18-.08.63.63,0,0,1-.13-.27,1.59,1.59,0,0,1-.06-.35q0-.18,0-.3a7.07,7.07,0,0,1,.42-2.29,11.94,11.94,0,0,1,1.07-2.3,8.44,8.44,0,0,1,1.37-1.77,2,2,0,0,1,1.29-.68,1.1,1.1,0,0,1,.33.07l.41.17.42.18c.49.2.72,0,.81-.13a.73.73,0,0,0,.11-.41,1,1,0,0,0-.24-.68,1.72,1.72,0,0,0-.56-.43,2.66,2.66,0,0,0-.68-.23,3.12,3.12,0,0,0-.59-.07,3.6,3.6,0,0,0-2.18.8,7.91,7.91,0,0,0-1.85,2,11.64,11.64,0,0,0-1.31,2.75,9.47,9.47,0,0,0-.51,3,8.87,8.87,0,0,0,.05.94,2.7,2.7,0,0,0,.25.9,1.69,1.69,0,0,0,.57.67,1.72,1.72,0,0,0,1,.28,2.27,2.27,0,0,0,1.34-.45,5.82,5.82,0,0,0,1.13-1.1,13.13,13.13,0,0,0,1-1.41c.21-.34.41-.68.6-1q.09.5.21,1a8.87,8.87,0,0,0,.46,1.45,5.13,5.13,0,0,0,.73,1.26,3.45,3.45,0,0,0,1.12.92l.24.1a1,1,0,0,0,.29,0,.77.77,0,0,0,.37-.09.44.44,0,0,0,.23-.4.78.78,0,0,0-.16-.44,2.19,2.19,0,0,0-.27-.34"/><path class="cls-4" d="M268.38,174.4a1,1,0,0,0,.09-.43.7.7,0,0,0-.25-.55,1.51,1.51,0,0,0-.54-.29A3.44,3.44,0,0,0,267,173a5.67,5.67,0,0,0-.66,0,6.08,6.08,0,0,0-1.64.24,4.84,4.84,0,0,0-1.51.71,3.76,3.76,0,0,0-1.09,1.19,3.3,3.3,0,0,0-.42,1.68A2.2,2.2,0,0,0,262,178a3.73,3.73,0,0,0,.8.88,7.83,7.83,0,0,0,1,.68c.34.2.66.4,1,.61a3.74,3.74,0,0,1,.73.62,1,1,0,0,1,.26.68,1.39,1.39,0,0,1-.42.93,5.4,5.4,0,0,1-1.07.87,6.19,6.19,0,0,1-1.27.6,3.37,3.37,0,0,1-1,.22h-.3a1.56,1.56,0,0,0-.67.16.75.75,0,0,0-.39.75.63.63,0,0,0,.39.61,1.64,1.64,0,0,0,.64.14,5.78,5.78,0,0,0,1.84-.34,8.54,8.54,0,0,0,1.88-.91,6.14,6.14,0,0,0,1.48-1.33,2.62,2.62,0,0,0,.62-1.65,2.48,2.48,0,0,0-.33-1.31,3.55,3.55,0,0,0-.8-.93,8.26,8.26,0,0,0-1-.71c-.36-.21-.69-.42-1-.62a4,4,0,0,1-.74-.61,1,1,0,0,1-.26-.67,1.5,1.5,0,0,1,.27-.87,2.33,2.33,0,0,1,.67-.66,3.37,3.37,0,0,1,.92-.41,3.46,3.46,0,0,1,.94-.14,3.26,3.26,0,0,1,.74.09,2.06,2.06,0,0,0,1.07.06.86.86,0,0,0,.41-.35"/><path class="cls-4" d="M275.79,181a.86.86,0,0,0-.37.09,1.57,1.57,0,0,0-.32.19,6.6,6.6,0,0,1-1.76,1,5.62,5.62,0,0,1-2,.33,1.35,1.35,0,0,1-1.08-.34,1.55,1.55,0,0,1-.29-1s0-.14,0-.27,0-.26,0-.39a3.15,3.15,0,0,1,.06-.35v0a4.33,4.33,0,0,0,1.88-.48,6.1,6.1,0,0,0,1.65-1.22,5.88,5.88,0,0,0,1.16-1.71,4.65,4.65,0,0,0,.43-1.93,1.69,1.69,0,0,0-.5-1.35,1.81,1.81,0,0,0-1.21-.42,3,3,0,0,0-1.59.64,8.09,8.09,0,0,0-1.75,1.71,10.36,10.36,0,0,0-1.42,2.57,8.77,8.77,0,0,0-.58,3.2,3.19,3.19,0,0,0,.74,2.26,2.85,2.85,0,0,0,2.19.8,6.5,6.5,0,0,0,2.26-.41,7.55,7.55,0,0,0,2-1.1,3.36,3.36,0,0,0,.43-.4,3.07,3.07,0,0,0,.28-.39.91.91,0,0,0,.14-.48c0-.46-.32-.5-.42-.5m-5.2-2.53a5.39,5.39,0,0,1,.56-1,13.36,13.36,0,0,1,.9-1.18,11.44,11.44,0,0,1,.84-.89c.34-.32.42-.38.45-.4a.3.3,0,0,1,.19-.06.4.4,0,0,1,0,.11,2.62,2.62,0,0,1-.31,1.18,4.81,4.81,0,0,1-.79,1.12,4.62,4.62,0,0,1-1.05.83,2.37,2.37,0,0,1-.79.3"/><path class="cls-4" d="M293.68,172a1.22,1.22,0,0,0-1.08,0,3.84,3.84,0,0,0-.53.27,8.45,8.45,0,0,0-1.42,1.38,21.51,21.51,0,0,0-1.48,2c-.31.44-.59.9-.86,1.37s-.51.93-.74,1.39-.44.89-.63,1.3l-.26.56c-.15-.93-.3-1.94-.43-3-.17-1.27-.33-2.5-.48-3.66a1.78,1.78,0,0,0-.27-.74.79.79,0,0,0-.69-.37.68.68,0,0,0-.6.32,1.14,1.14,0,0,0-.07.17l-.26,0a4.76,4.76,0,0,0-.54,0,3.76,3.76,0,0,0-2.32.76,10.06,10.06,0,0,0-1.58,1.57s0-.1,0-.15,0-.31.05-.47,0-.28,0-.35a1.36,1.36,0,0,0-.17-.64.7.7,0,0,0-.66-.37,1.08,1.08,0,0,0-.72.26.89.89,0,0,0-.34.6s0,.15,0,.35,0,.48-.07.79-.08.69-.13,1.1-.11.85-.17,1.3-.14.87-.22,1.39-.15,1-.22,1.59-.12,1.07-.16,1.58-.07,1-.07,1.36a1.62,1.62,0,0,0,.14.68.68.68,0,0,0,.69.38.73.73,0,0,0,.63-.26,1.4,1.4,0,0,0,.22-.65c0-.3.07-.66.11-1.08s.11-.85.19-1.32.19-1,.32-1.45a11,11,0,0,1,.52-1.5,13.29,13.29,0,0,1,.64-1.25,6.78,6.78,0,0,1,.91-1.24,5.35,5.35,0,0,1,1.15-1,2.51,2.51,0,0,1,1.33-.38,1.62,1.62,0,0,1,.56.09l.1,0c0,.14,0,.27,0,.42.08.75.18,1.61.29,2.56s.25,2,.39,3,.29,2,.45,2.95a1.31,1.31,0,0,0,.21.44.62.62,0,0,0,.54.25,1.41,1.41,0,0,0,.59-.13,1.16,1.16,0,0,0,.5-.69,30.54,30.54,0,0,1,1.33-3.17,29.9,29.9,0,0,1,1.8-3.22,20.18,20.18,0,0,1,1.51-2.07,16.07,16.07,0,0,1,1.69-1.75,3.22,3.22,0,0,0,.28-.32.77.77,0,0,0,.18-.49.55.55,0,0,0-.24-.51"/><path class="cls-4" d="M295.74,170.48a1.07,1.07,0,0,0-.81.4,1.38,1.38,0,0,0-.35.94,2.15,2.15,0,0,0,.19.92.82.82,0,0,0,.73.49h0a1.09,1.09,0,0,0,.81-.38,1.36,1.36,0,0,0,.35-1,2.25,2.25,0,0,0-.18-.94.76.76,0,0,0-.75-.47"/><path class="cls-4" d="M295.43,174.76a.79.79,0,0,0-.9.86v.29c0,.26-.07.63-.15,1.08s-.17,1-.27,1.56-.18,1.18-.25,1.82a16.14,16.14,0,0,0-.12,1.91c0,.19,0,.43,0,.72a5,5,0,0,0,.13.87,2.41,2.41,0,0,0,.31.75.76.76,0,0,0,.66.37.85.85,0,0,0,.36-.09.44.44,0,0,0,.26-.43,1.5,1.5,0,0,0-.08-.48,1,1,0,0,1-.07-.33c0-.13,0-.36,0-.69s.06-.69.1-1.1.09-.82.14-1.24.11-.79.18-1.1l.38-1.75a8.09,8.09,0,0,0,.21-1.68c0-1.1-.52-1.33-1-1.33"/><path class="cls-4" d="M312.7,173.95a.76.76,0,0,0-.19-.49.77.77,0,0,0-.61-.24h-2.33l.8-2.55c.29-.91.57-1.84.86-2.79a1.56,1.56,0,0,0,.09-.48,1.08,1.08,0,0,0-.23-.64.87.87,0,0,0-.76-.33.82.82,0,0,0-.64.27,2,2,0,0,0-.35.6c-.34,1-.66,2-1,3s-.56,1.95-.81,2.91l-1,0-.89.05h-.14a1.89,1.89,0,0,0-.4-.22,2.86,2.86,0,0,0-.66-.16,4.93,4.93,0,0,0-.54,0,3.73,3.73,0,0,0-2.32.76,9.52,9.52,0,0,0-1.58,1.57c0-.05,0-.1,0-.16s0-.32.05-.47,0-.28,0-.35a1.34,1.34,0,0,0-.17-.64.7.7,0,0,0-.66-.37,1.08,1.08,0,0,0-.72.26.88.88,0,0,0-.34.6s0,.15,0,.35,0,.48-.08.8-.08.69-.13,1.1-.11.85-.18,1.3-.14.87-.22,1.39-.15,1-.21,1.59-.13,1.07-.17,1.58-.06,1-.06,1.36a1.59,1.59,0,0,0,.14.68.68.68,0,0,0,.68.38.73.73,0,0,0,.63-.26,1.41,1.41,0,0,0,.22-.65c0-.31.07-.66.12-1.08s.1-.85.19-1.32.19-1,.32-1.46a10.67,10.67,0,0,1,.53-1.49,11.29,11.29,0,0,1,.64-1.25,7,7,0,0,1,.9-1.24,5.46,5.46,0,0,1,1.15-1,2.52,2.52,0,0,1,1.33-.38l.26,0a.7.7,0,0,0,.36.19,4.72,4.72,0,0,0,1,.09h1.54a18.29,18.29,0,0,0-.71,3.08,22.55,22.55,0,0,0-.22,2.91,13.51,13.51,0,0,0,.22,2.69c.15.69.23,1.1.26,1.2a.72.72,0,0,0,.08.24l.15.37a4.12,4.12,0,0,0,.24.48,3.15,3.15,0,0,0,.34.47.88.88,0,0,0,.61.36c.43,0,.54-.24.57-.38a2.14,2.14,0,0,0,.06-.35,1.75,1.75,0,0,0-.07-.46,4.36,4.36,0,0,0-.17-.46,9,9,0,0,1-.38-1.48,11.55,11.55,0,0,1-.16-2.09V181c0-.17,0-.34,0-.52s.06-.7.13-1.26.16-1.14.26-1.73.23-1.17.35-1.69a4.17,4.17,0,0,1,.32-1l.29,0,.33,0h2.16c.78,0,.9-.51.9-.8"/><path class="cls-4" d="M319,181a.86.86,0,0,0-.36.09,1.57,1.57,0,0,0-.32.19,6.69,6.69,0,0,1-1.76,1,5.64,5.64,0,0,1-2,.33,1.35,1.35,0,0,1-1.08-.34,1.55,1.55,0,0,1-.29-1s0-.14,0-.27,0-.26,0-.39a3.15,3.15,0,0,1,.06-.35.06.06,0,0,1,0,0,4.34,4.34,0,0,0,1.88-.48,6.1,6.1,0,0,0,1.65-1.22,5.88,5.88,0,0,0,1.16-1.71,4.68,4.68,0,0,0,.43-1.93,1.69,1.69,0,0,0-.5-1.35,1.81,1.81,0,0,0-1.21-.42,3,3,0,0,0-1.59.64,8.1,8.1,0,0,0-1.75,1.71,10.48,10.48,0,0,0-1.42,2.57,8.77,8.77,0,0,0-.58,3.2,3.19,3.19,0,0,0,.74,2.26,2.86,2.86,0,0,0,2.19.8,6.5,6.5,0,0,0,2.27-.41,7.51,7.51,0,0,0,2-1.1,3.12,3.12,0,0,0,.43-.4,2.9,2.9,0,0,0,.28-.39.91.91,0,0,0,.14-.48c0-.46-.32-.5-.42-.5m-5.2-2.53a5.39,5.39,0,0,1,.56-1,13.36,13.36,0,0,1,.9-1.18,11.44,11.44,0,0,1,.84-.89c.34-.32.42-.38.45-.4a.3.3,0,0,1,.19-.06.25.25,0,0,1,0,.11,2.62,2.62,0,0,1-.31,1.18,4.87,4.87,0,0,1-.8,1.12,4.57,4.57,0,0,1-1,.83,2.37,2.37,0,0,1-.79.3"/><path class="cls-5" d="M318.21,99.94A51.26,51.26,0,1,0,267,151.2a51.25,51.25,0,0,0,51.26-51.26"/><path class="cls-4" d="M243.78,96.87a11.42,11.42,0,0,0-1.83-3.94,9.28,9.28,0,0,0-3.27-2.78,9.93,9.93,0,0,0-4.65-1,10.78,10.78,0,0,0-4.34.85,10,10,0,0,0-3.38,2.33,10.16,10.16,0,0,0-2.18,3.49,11.93,11.93,0,0,0-.76,4.34,12.7,12.7,0,0,0,.73,4.41,10.42,10.42,0,0,0,2.13,3.49,9.27,9.27,0,0,0,3.38,2.26,12,12,0,0,0,4.43.78,10.85,10.85,0,0,0,6-1.62,7.69,7.69,0,0,0,2.22-2.18,11.89,11.89,0,0,0,1.53-3.2l.14-.43s.07-.19-.16-.19h-5.36c-.28,0-.31.15-.31.15l-.06.18a1.94,1.94,0,0,1-.4.73,4.51,4.51,0,0,1-.87.76,4.41,4.41,0,0,1-2.59.74,5.91,5.91,0,0,1-1.9-.27,3.65,3.65,0,0,1-1.32-.79,3.52,3.52,0,0,1-.84-1.38,7,7,0,0,1-.34-1.67h14.11c.23,0,.23-.26.23-.26l0-.18c0-.35,0-.71,0-1a14.42,14.42,0,0,0-.42-3.54m-13.11-1.32a3.63,3.63,0,0,1,1.23-1,4.29,4.29,0,0,1,2-.4,4.65,4.65,0,0,1,1.59.25,2.52,2.52,0,0,1,1,.68,5.26,5.26,0,0,1,1.14,2.36h-7.78c0-.22.09-.45.16-.7a3.63,3.63,0,0,1,.66-1.23"/><path class="cls-4" d="M264.22,110.37l-7.59-10.91,6.85-9.75s.08-.12-.15-.12H256.4a.32.32,0,0,0-.28.13L253,94.38l-3.13-4.64a.42.42,0,0,0-.33-.15h-7.11c-.2,0-.1.14-.1.14l.49.7,6.34,9.16-7.4,10.82s-.14.2.11.2h6.94a.45.45,0,0,0,.4-.23l3.72-5.63,3.73,5.62a.51.51,0,0,0,.39.24h7c.28,0,.12-.23.12-.23"/><path class="cls-4" d="M273,89.59h-8c-.28,0-.23.19-.23.19l1.15,20.57s0,.26.24.26h5.66c.24,0,.23-.27.23-.27l1.16-20.51s0-.23-.2-.23"/><path class="cls-4" d="M288.19,94.3a.23.23,0,0,0,.21-.25V89.79a.2.2,0,0,0-.22-.21h-3.8V83.84a.21.21,0,0,0-.22-.24h-6.09a.22.22,0,0,0-.23.24v5.75h-3.07c-.28,0-.25.19-.25.19v4.3a.2.2,0,0,0,.21.23h3.11v11.25a5.6,5.6,0,0,0,.57,2.68,4.1,4.1,0,0,0,1.56,1.63,6,6,0,0,0,2.2.75,16.13,16.13,0,0,0,2.48.18c.56,0,1.1,0,1.69,0a14.56,14.56,0,0,0,1.6-.15l.25,0s.2,0,.2-.27v-4.9c0-.26-.21-.17-.21-.17l-.42.09c-.23,0-.49.08-.75.1a7.08,7.08,0,0,1-.84,0,4.25,4.25,0,0,1-1-.11.86.86,0,0,1-.45-.21.91.91,0,0,1-.21-.44,4.25,4.25,0,0,1-.11-1V94.3Z"/><path class="cls-4" d="M309.73,95.59a9.64,9.64,0,0,0-5.65-5.75,12.9,12.9,0,0,0-8.9,0,9.69,9.69,0,0,0-5.62,5.75,13.7,13.7,0,0,0,0,9,9.92,9.92,0,0,0,2.21,3.48,9.43,9.43,0,0,0,3.42,2.23,12.14,12.14,0,0,0,4.44.77,12.29,12.29,0,0,0,4.45-.77,9.52,9.52,0,0,0,3.45-2.23,10,10,0,0,0,2.21-3.48,13.8,13.8,0,0,0,0-9m-8,9.89a4.76,4.76,0,0,1-4.12,0,3.77,3.77,0,0,1-1.3-1.27,5.42,5.42,0,0,1-.72-1.87,10.84,10.84,0,0,1-.23-2.23,11.21,11.21,0,0,1,.23-2.25,5.25,5.25,0,0,1,.71-1.86,3.74,3.74,0,0,1,3.37-1.76,4,4,0,0,1,2.06.49A3.85,3.85,0,0,1,303,96a5.22,5.22,0,0,1,.72,1.86,11.5,11.5,0,0,1,.22,2.25,11.12,11.12,0,0,1-.22,2.23,5.58,5.58,0,0,1-.72,1.87,3.57,3.57,0,0,1-1.32,1.26"/><path class="cls-6" d="M272.87,115.61a3.92,3.92,0,1,0-3.91,3.91,3.92,3.92,0,0,0,3.91-3.91"/><path class="cls-4" d="M234.81,83.75l-3.07,3.85s-.19.22.06.22h3.62a.68.68,0,0,0,.46-.15L241,83.75s.19-.16-.05-.16h-5.8a.41.41,0,0,0-.37.16"/><path class="cls-4" d="M315.59,91.65a2.55,2.55,0,0,1-.33,1.28A2.6,2.6,0,0,1,313,94.21a2.45,2.45,0,0,1-1.28-.35,2.39,2.39,0,0,1-.94-.94,2.48,2.48,0,0,1-.36-1.28,2.54,2.54,0,0,1,.36-1.29,2.35,2.35,0,0,1,.94-.93,2.39,2.39,0,0,1,1.28-.34,2.59,2.59,0,0,1,2.23,1.27,2.62,2.62,0,0,1,.33,1.29m-.49,0A2.07,2.07,0,0,0,313,89.57a2,2,0,0,0-1.46.6,2.07,2.07,0,1,0,3.54,1.47m-3.24-1.38h1.23a1.12,1.12,0,0,1,.75.21.77.77,0,0,1,.06,1,1,1,0,0,1-.56.29.89.89,0,0,1,.23.12,1.53,1.53,0,0,1,.22.29s.15.28.45.79h-.81a7.14,7.14,0,0,0-.53-.94.37.37,0,0,0-.27-.16h-.08V93h-.69Zm.69,1.18h.28a.71.71,0,0,0,.43-.1.28.28,0,0,0,.11-.24.28.28,0,0,0-.11-.24.6.6,0,0,0-.39-.11h-.32Z"/><path class="cls-4" d="M315.27,91.31a2.57,2.57,0,0,1-2.57,2.57,2.44,2.44,0,0,1-1.28-.35,2.36,2.36,0,0,1-.94-.94,2.51,2.51,0,0,1-.36-1.28,2.56,2.56,0,0,1,.36-1.29,2.31,2.31,0,0,1,.94-.94,2.4,2.4,0,0,1,1.28-.34,2.49,2.49,0,0,1,1.29.34,2.45,2.45,0,0,1,.94.94,2.58,2.58,0,0,1,.34,1.29m-.49,0a2.07,2.07,0,0,0-2.08-2.08,2.07,2.07,0,1,0,0,4.15,2.06,2.06,0,0,0,2.08-2.06m-3.25-1.38h1.23a1.12,1.12,0,0,1,.75.22.69.69,0,0,1,.24.56.72.72,0,0,1-.18.48,1,1,0,0,1-.56.29.9.9,0,0,1,.23.12,1.63,1.63,0,0,1,.22.29s.14.28.45.79h-.82a6.82,6.82,0,0,0-.53-.94.37.37,0,0,0-.27-.16l-.08,0v1.08h-.69Zm.69,1.18h.28a.72.72,0,0,0,.42-.1.29.29,0,0,0,.11-.25.28.28,0,0,0-.11-.24.59.59,0,0,0-.39-.1h-.32Z"/><path class="cls-7" d="M98.22,79.41a19.1,19.1,0,1,0,19.11,19.1,19.09,19.09,0,0,0-19.11-19.1m-.49,6.5a2.45,2.45,0,1,1-2.45,2.45,2.45,2.45,0,0,1,2.45-2.45m-11.31,8a1.2,1.2,0,1,1-1.22,1.2,1.2,1.2,0,0,1,1.22-1.2m2.67,10.47a.9.9,0,0,1-.89.89H84a.9.9,0,0,1-.89-.89V94.6a.73.73,0,1,1,1.45,0v2.31h3.57a.9.9,0,0,1,.89.9Zm20.77-10.3a1.55,1.55,0,1,1-1.57,1.55,1.55,1.55,0,0,1,1.57-1.55m3.44,13.51a1.16,1.16,0,0,1-1.15,1.15H106.8a1.16,1.16,0,0,1-1.15-1.15V95a.94.94,0,1,1,1.88,0v3h4.62a1.16,1.16,0,0,1,1.15,1.16Zm-10.11-.26a1.83,1.83,0,0,1-1.82,1.81H92.94a1.83,1.83,0,0,1-1.83-1.81v-20a1.48,1.48,0,1,1,3,0V92.1h7.3a1.82,1.82,0,0,1,1.82,1.81Z"/><path class="cls-7" d="M123,90.17h3.17v3h.08a7.55,7.55,0,0,1,6.62-3.49c2.49,0,4.79,1,5.62,3.49a7.58,7.58,0,0,1,6.42-3.49c4.08,0,6.82,1.7,6.82,5.94v15h-3.37V97.22c0-2.54-.67-4.56-4-4.56A5,5,0,0,0,139,97.89v12.76h-3.37V97.22c0-2.66-.83-4.56-3.84-4.56a5.53,5.53,0,0,0-5.47,5.23v12.76H123Z"/><path class="cls-7" d="M164.64,89.69c6.5,0,9.95,4.72,9.95,10.74s-3.45,10.7-9.95,10.7-9.95-4.72-9.95-10.7,3.45-10.74,9.95-10.74m0,18.47c3.53,0,6.38-2.77,6.38-7.73s-2.85-7.77-6.38-7.77-6.38,2.77-6.38,7.77,2.85,7.73,6.38,7.73m1-26.47h4.32l-5.19,5.67h-2.54Z"/><polygon class="cls-7" points="186.83 110.65 183.22 110.65 175.62 90.17 179.38 90.17 185.13 107.25 185.21 107.25 190.79 90.17 194.32 90.17 186.83 110.65"/><path class="cls-7" d="M200,86.48h-3.37V82.36H200Zm-3.37,3.69H200v20.49h-3.37Z"/><rect class="cls-7" x="204.51" y="82.36" width="3.37" height="28.3"/><path class="cls-8" d="M318.28,99.93a51.41,51.41,0,1,0-51.41,51.41,51.41,51.41,0,0,0,51.41-51.41"/><path class="cls-4" d="M243.62,96.85a11.5,11.5,0,0,0-1.84-4,9.3,9.3,0,0,0-3.28-2.79,9.94,9.94,0,0,0-4.66-1,10.82,10.82,0,0,0-4.35.85,10.16,10.16,0,0,0-5.57,5.84,12,12,0,0,0-.77,4.35,12.71,12.71,0,0,0,.73,4.42A10.42,10.42,0,0,0,226,108a9.28,9.28,0,0,0,3.39,2.27,12,12,0,0,0,4.44.78,10.9,10.9,0,0,0,6.06-1.62,7.71,7.71,0,0,0,2.22-2.19,11.76,11.76,0,0,0,1.54-3.21l.14-.43s.07-.19-.16-.19h-5.38c-.28,0-.31.15-.31.15l-.06.18a2,2,0,0,1-.4.73A4.41,4.41,0,0,1,234,106a5.88,5.88,0,0,1-1.9-.27,3.65,3.65,0,0,1-1.33-.8,3.54,3.54,0,0,1-.84-1.38,6.94,6.94,0,0,1-.34-1.67h14.16c.23,0,.23-.26.23-.26l0-.18c0-.35,0-.71,0-1.05a14.42,14.42,0,0,0-.42-3.55m-13.15-1.33a3.65,3.65,0,0,1,1.23-1,4.28,4.28,0,0,1,2-.4,4.69,4.69,0,0,1,1.6.25,2.54,2.54,0,0,1,1,.68,5.29,5.29,0,0,1,1.14,2.37h-7.81c0-.22.09-.45.16-.7a3.64,3.64,0,0,1,.66-1.23"/><path class="cls-4" d="M264.12,110.39l-7.61-10.94,6.87-9.78s.08-.13-.15-.13h-6.95a.32.32,0,0,0-.28.13l-3.11,4.67-3.14-4.65a.42.42,0,0,0-.33-.15h-7.13c-.21,0-.1.14-.1.14l.49.7L249,99.56l-7.42,10.85s-.14.2.11.2h7a.46.46,0,0,0,.4-.23l3.73-5.65,3.75,5.64a.51.51,0,0,0,.39.24H264c.28,0,.12-.23.12-.23"/><path class="cls-4" d="M272.91,89.54h-8c-.28,0-.23.19-.23.19l1.15,20.63s0,.26.24.26h5.68c.24,0,.23-.27.23-.27l1.16-20.57s0-.23-.2-.23"/><path class="cls-4" d="M288.17,94.28a.23.23,0,0,0,.21-.25V89.75a.2.2,0,0,0-.22-.21h-3.81V83.78a.21.21,0,0,0-.22-.24H278a.22.22,0,0,0-.23.24v5.77h-3.08c-.28,0-.25.19-.25.19V94a.2.2,0,0,0,.21.23h3.12v11.28a5.62,5.62,0,0,0,.57,2.68,4.11,4.11,0,0,0,1.57,1.64,6,6,0,0,0,2.2.75,16,16,0,0,0,2.49.18c.56,0,1.1,0,1.69,0a15.09,15.09,0,0,0,1.6-.15l.25,0s.2,0,.2-.27v-4.92c0-.26-.21-.17-.21-.17l-.42.09c-.24,0-.49.08-.75.1a7.11,7.11,0,0,1-.84,0,4.29,4.29,0,0,1-1-.11.85.85,0,0,1-.45-.21.89.89,0,0,1-.21-.44,4.16,4.16,0,0,1-.11-1V94.28Z"/><path class="cls-4" d="M309.77,95.57a9.69,9.69,0,0,0-5.67-5.77,13,13,0,0,0-8.93,0,9.73,9.73,0,0,0-5.64,5.77,13.75,13.75,0,0,0,0,9.07,10,10,0,0,0,2.21,3.49,9.44,9.44,0,0,0,3.43,2.24,12.17,12.17,0,0,0,4.46.78,12.34,12.34,0,0,0,4.46-.78,9.52,9.52,0,0,0,3.46-2.24,10,10,0,0,0,2.22-3.49,13.85,13.85,0,0,0,0-9.07m-8.07,9.92a4.77,4.77,0,0,1-4.14,0,3.8,3.8,0,0,1-1.3-1.27,5.45,5.45,0,0,1-.72-1.88,10.77,10.77,0,0,1-.23-2.24,11.16,11.16,0,0,1,.23-2.26,5.24,5.24,0,0,1,.72-1.87,3.86,3.86,0,0,1,1.33-1.28,3.9,3.9,0,0,1,2.05-.49,4,4,0,0,1,2.07.49A3.84,3.84,0,0,1,303,96a5.21,5.21,0,0,1,.73,1.87,11.59,11.59,0,0,1,.22,2.26,11.18,11.18,0,0,1-.22,2.24,5.57,5.57,0,0,1-.73,1.88,3.61,3.61,0,0,1-1.33,1.27"/><path class="cls-9" d="M272.8,115.64a3.93,3.93,0,1,0-3.93,3.92,3.93,3.93,0,0,0,3.93-3.92"/><path class="cls-4" d="M315.65,91.61a2.55,2.55,0,0,1-.34,1.28,2.61,2.61,0,0,1-2.24,1.29,2.45,2.45,0,0,1-1.28-.35,2.37,2.37,0,0,1-.94-.94,2.49,2.49,0,0,1-.36-1.28,2.56,2.56,0,0,1,.36-1.29,2.33,2.33,0,0,1,.94-.93,2.39,2.39,0,0,1,1.28-.34,2.6,2.6,0,0,1,2.24,1.28,2.62,2.62,0,0,1,.34,1.29m-.49,0a2.07,2.07,0,0,0-2.09-2.08A2.07,2.07,0,0,0,311,91.61a2.06,2.06,0,0,0,2.07,2.07,2.07,2.07,0,0,0,2.09-2.07m-3.25-1.38h1.24a1.12,1.12,0,0,1,.75.22.76.76,0,0,1,.06,1,1,1,0,0,1-.56.29,1,1,0,0,1,.23.12,1.62,1.62,0,0,1,.22.29s.15.28.45.79h-.82a6.89,6.89,0,0,0-.53-.94.36.36,0,0,0-.27-.16h-.08V93h-.69Zm.69,1.18h.28a.71.71,0,0,0,.43-.1.29.29,0,0,0,.11-.24.27.27,0,0,0-.11-.24.59.59,0,0,0-.39-.11h-.32Z"/><path class="cls-4" d="M234.63,83.69l-3.08,3.86s-.19.22.06.22h3.64a.69.69,0,0,0,.46-.15l5.16-3.93s.19-.16-.05-.16H235a.41.41,0,0,0-.37.16"/></g></svg>