<svg id="Capa_1" data-name="Capa 1" xmlns="http://www.w3.org/2000/svg" viewBox="0 0 307.29 421.28"><defs><style>.cls-1{fill:#faeb15;}.cls-2{fill:#704790;}</style></defs><title>mapa-colombia</title><path class="cls-1" d="M12.06,285.14c.33.26.83,0,1.26,0s.9-.22,1.25,0c1.27.8,1.72,2.51,2.91,3.42,3.49,2.67,8.36,3.16,11.68,6,2.23,1.9,4.25-2,5.85.43.31.48-.23,1.19,0,1.7.95,2.1,3,1.61,4.6,2.14,1.39.47.9,5.73,1.65,6.82,1.31,1.88,4.8-.1,6.28.43s2,2.37,3.35,3c2.92,1.32,5.91-.5,8.38,0,1,.21,5.77,1.78,6.7.43s-.54-5.18,2.52-5.11c6.28.15,8.3,5.72,12.56,8.94,2.09,1.57,2.56,0,4.61.43,2.88.65,5.89,4.59,8.82,4.68,1.58,0,1.59-2.55,4.19-1.27,1.06.51,5.17,5.11,6.3,4.25.4-.31.33-1.18.84-1.28.89-.18,2.25,2.29,2.1,3-.08.39-1.09.54-.84.85l3.78.85a21.87,21.87,0,0,1,5.89,6.37c.61,1.16.33,2.62.85,3.83.05.14,2.16,2.38,1.68,2.54-5.83,2,5.61,3.72,5.89,3.82.71.27.28,1.62.85,2.13l2.52.84c1.4,1,1.3,2.67,3.37,3,1.89.27,3.67-.42,5.05,1.69.55.83,0,2.1.43,3,.9,1.63,3.22,1,2.54,3.81-.37,1.51-2.48.84-1.25,3,2.78,4.8,7.14.26,8.42,2.53.74,1.28,2.36,6.19,2.15,7.63,0,.15-2.06,2.82-2.08,3-.14,1,2.07,3.81,3,3.81.53,0,1.7-2.29,2.94,0,.35.64-.16,1.71.44,2.12,1,.69,4.34-2.26,5.45-1.71.53.26-.12,1.51.44,1.69,1,.32.67-2.32,1.66-2.55,1.58-.35,4.68,2.68,6.33,3s2.52-1.1,2.94-1.28c.91-.39,2,.8,2.95.42,3.22-1.37-1.14-1.19,2.09-2.55.91-.39,2,.78,2.95.42,2-.78,3.19-4,5-5.1,1-.61,2.12,1.39,2.4,1.55.9.53,2.26-.09,3.09.55l.85,2.54c.67.23.62-2,1.25-1.69,1.18.59,1.09,3.4,1.29,3.39,4.23-.36,4.36-1.71,7.14-3h2.53c.33-.45-.44-1.32,0-1.69s1.13.14,1.69.2a5.15,5.15,0,0,1,1.69.21c2.37,1.23,3.86,5,6.35,5.91.95.35,3-.8,4.22,0,2.37,1.52,3.53.63,3.38,1.26s-.54,1.8,0,1.7.75-.91,1.26-.85c1.13.12,1.69,1.5,2.54,2.25s4.21.11,3.81,2.39c-.88,5-17,23.92-16.64,27.12.05.48,4.53,2.21,5.07,2.1l3.77-2.13c3,0,8.76,11.85,11,8.85,1.74-2.31,2.94-15.52,3.52-19,2.25-13.5,4.48-27,7-40.45.79-4.16,3.79-12.06,2.9-15.81s-5.92-7.38-5.92-11c0-2.27,2.18-3.35,0-5.92-1.88-2.2-5.87-2.71-8-4.65a15.79,15.79,0,0,1-3-4.23v-4.12q0-4.13,0-8.25c0-1.37,0-2.76,0-4.12,0-.71-.4-1.55,0-2.12.28-.4,1,0,1.48,0,2.82,0,5.17-2.54,7.81-2.53.63,0,1.06.88,1.69.85,1.61-.12,1.7-2.82,3.79-2.12,2.92,1,5.07,3.89,8.44,2.54.5-.2-.36-1-.63-1.49-1.69-2.82,1.07-1.75-1-5.28-.59-1-.39-2.77-2.1-3.39-2.69-1-8.38-.95-11-1.27a6.7,6.7,0,0,0-1.69.21c-.56.07-1.3.63-1.68.21v-4.12c0-2.07,0-4.12,0-6.19,0-1.37,0-2.75,0-4.12,0-.69-.37-1.49,0-2.07.54-.83,6.55-.87,7.46-1,4.71-.59-.16-.36,4.35.56a12,12,0,0,0,2.23,0l4.46.06,15.61.23c2.67,0,8.88.25,8.93.13.52-1.4-2.91-1.54-3.37-3a27.4,27.4,0,0,1,2.13-4.64c3.52-.79,3.06,6.94,6.31,6.78,6.13-.34,9.51-10.39,13.54-10.13,1.71.11,8.33,11.14,8.84,13.1a7.89,7.89,0,0,1-.1,2.2q-.13,3.29-.27,6.59c0,.73-.49,1.58-.09,2.19.84,1.27,4.5-.19,5.49-.41-2-3.3-1.57-8.61-2.92-12.26-.9-2.4-3.23-4.68-3.79-7.18s.72-1.8-.83-4.22c-1.93-3,.83-4.91-.82-6.33-2.32-2-7.09-5.23-9.25-7.19-.77-.69,0-2.31-.84-3-2-1.65-8,1.81-6.31-1.7,2-4.24,13.36-9.86,14.42-13.48.45-1.55-1.52-1.5-2.1-2.12-1.4-1.49-1.4-4.56-2.91-5.92l-2.94-.43c-.59-.59-4.65-11.31-5-12.68-.45-1.81.28-4.17-.38-5.91-.25-.65-1.08-1-1.25-1.69-1-4,2.35-9,1.8-13.08-.23-1.67-2-4.47-1.21-6.34,1-2.39,5.16-3.7,5.95-5.89.71-1.92-1.4-4,.08-6.33.82-1.31,5-3.57,5.09-5,.11-1.31-1.88-2.08-2.06-3.38-.12-.81,1.61-1.35,1.28-2.11-.9-2.08-7.86-2.83-9.64-2.56-1.51.22-2.73,2.23-4.23,2.52l-3.78-.44c-4.1.42-8.5,2.07-12.65,2.06-3.34,0-8-3.14-11.33-1.74-1.29.55-2.05,3.27-3.82,2.94-.44-.08-.69-.57-1-.85s-.6-.77-1-.85c-.87-.16-1.74,1.24-2.53.83-3.7-1.83-13.44-20.48-16.9-22-1-.46-3.5,1.34-4.63,1.24-3-.27-4.54-2.76-6.65-3.84-3.45-1.77-7.16,1.3-10.09,2.06-4.65,1.2-10-1.52-14.65-1.36-2.72.09-5.7,1.87-8.4,1.64-7.63-.64-5.64-8.79-7.35-10.2-1.11-.93-4.13.25-5.42-.46-2-1.11-.87-15.54.36-16.5.43-.34,1.22.35,1.67,0s0-.84,0-1.27a9.92,9.92,0,0,0,0-1.26c-.87-7.73-5.25-6.86-8.06-12.34-1.5-2.93.06-10-2.19-12.28-1.82-1.86-2.47.65-4.18.39s-.44-5.08-1.53-5.09c-.72,0-1.33.55-2,.83s-7.12,3.17-7.26,2.46c-.51-2.55,9.63-12.77,10.47-16.82.26-1.25-.43-2.54-.3-3.81.93-9.39,6.2-16.19,10.7-24,.62-1.08,1.25-3.88,2.22-4.62,1.64-1.24,4.68-.18,5.84-.78,2.62-1.37,4.76-11,7.46-13,3.18-2.39,12.12-2.41,16.31-4.46H199a2.9,2.9,0,0,1,.65-1.69c3.19-3.74,7-.46,3.13-7.41-.51-.93-.63-2.54-1.55-3.11a83,83,0,0,0-7.77-3,7,7,0,0,0-3.35,1.23c-.23.16.22,1,0,.84-.44-.23-.32-1.11-.79-1.27-.73-.26.91,2.53-2.15,2.5-.43,0,.42-1.07,0-1.26-1-.53-3.88,2-3.8,2.06.43.57,4.92.71,1.16,2.54-.27.14-3.23,2-2.48,0,1.06-2.93,2-1.94-1.6-1.7-.83.05-1.42-.25-2.08.39-.2.2.86,2.81.72,3.39-.46,1.81-2.2,3.77-3.09,5.44-.68,1.3-5.43,2-6.71,2.46a53,53,0,0,0-6.28,2c-1.36.66-2.15,2.53-3.43,3.34-2.93,1.83-9.25,7.08-12.28,7.46a11.83,11.83,0,0,1-1.76,0l-5.29-.06-2.48,0a2.81,2.81,0,0,1-.83,0c-1.59-.49-3.62-2-5.3-2.18-1.88-.14-1.75.82-2.93.81-.31,0-.07-.85-.38-.86-2,0-3.15,13.73-6.35,15.16-2.37,1.05-1.41-.61-2-1.72-1.33-2.42-.62,3.15-1.72,1.67-.31-.41-.53-.75-.74-1a1.61,1.61,0,0,1-.89.18c-.43,0,0-.85,0-1.27s-.32-1.06,0-1.27a2.67,2.67,0,0,1,2.07,0c.38.11.41.85.8.85,0,0-1.4-2.25-.31-3,.68-.45,5.35,1,5.41-.78,0-.42-.83.13-1.25.2a9.11,9.11,0,0,1-3.33.17c-3.07-.44-7.09-3.9-9.79-3.93-.84,0-3.7,5.06-4.36,5.87-.94,1.13-5.11,1.35-5.89,2.47s1.4,1.91.74,2.13c-.41.14-.78-.43-1.22-.44a62.92,62.92,0,0,0-6.37,4.15c-.43.55.19,1.24.69,1.95.22,0,.31.21.32.51a1,1,0,0,1,.11,1c-.37.7-.08-.3-.11-1-.1-.17-.2-.34-.32-.51-.28,0-.77.37-1.65,1.43-1.34,1.63,3.35.19,1.12,3.41-.34.47-1.1.41-1.67.4-.2,0-.26-.57-.4-.43s-2.77,3.26-3,3.78S92.78,54.48,92.9,55c.05.27-3.43,11.88-3.75,12.26s-1.61.74-1.29,1.25,7.14-.43,1.86,6.39c-2.73,3.52-6.15-2.2-11.31,2.83C76.11,80,75,83.4,73.55,86.19c-.08.17-6.22,5-6.83,5.44-1.59,1.14-10,4.17-10.57,5.83,0,.08,3.85,1.84,4.44,3.88.27.92.38,12,0,12.33-1.22,1.19-4.58,0-4.53-1.75.12-3.94,2,2.93,2.17-2.95,0-.32.7-.67.44-.85-1.24-.88-2.56,2.14-2.91,0-.08-.51,1-.77.88-1.27s-1.09,0-1.24-.44.87-1.26.46-1.69-1.44.25-2.08,0c-1.39-.59-1.56-3-2.36-3.86s-2.08-.62-2.87-1.3c-1.07-.93-1.53-5.13-2.73-5.15-.36.56-3.23,4.11-3.07,4.65.36,1.14,2.44,1,2.84,2.16,0,0-.11,2.95-.1,3,.71,1.91,6.18,6.17,5.13,8.57-.54,1.21-2.73.44-3.78,1.23-2.58,2-.39,3-.56,4.68-.11,1.1-5.35,4.36-6.38,4.61-.81.2-2.72-4.18-4-4.73-.13-.05-.36-.13-.41,0-1.34,3.15.94,2,.7,4.26-.42,4-.87.14-2.55,1.68-.94.88-1.49,5.1-1.85,6.38l-.19.45c1.78,1.25,4.58,3.26,5,4.28,1.73,3.77-1.27,1.31-.14,5.11.08.27-.26-.86,0-.85,1.62,0,3.35,3,3.63,4.29.08.42-.46,1.28,0,1.28.7,0,1-1.18,1.7-1.26,1.08-.13,2.86,3.72,3,5.14.75,8.38-.91-5.24-1.09,2.13,0,.5,1,.8.79,1.28s-1.05-.38-1.25,0c0,0,1.15,3.84-.52,3.83-.14,0,.12-.32,0-.42-.48-.51-1-1.46-1.63-1.3l-.08,3c-.07,2.86,6.46,6.71,5.57,11.54-.62,3.38-3.26,2.46-5.08,3.37A13.63,13.63,0,0,0,39,175.19c7.29,1.93,3.61,9.54,4.68,16.23.31,1.95,2.79,3.4,2.43,3.85s-1.35-.46-1.67,0,.7.79.81,1.28c.06.27-.74-.27-.83,0a30.52,30.52,0,0,0-.52,5.11c0,.14.52-.09.42,0-.53.53-1.84,2.42-1.73,3.4.26,2.45,1.55,1.48,2.9,1.72.31,0,1,.15.82.43-2.07,4.09-4.53-4-4.67,5.08,0,.84-1.13.85,0,1.7.81.63.67,1.43,1.22,1.71.18.09,2-6.59,4.66-3.81.22.22-.27.57-.43.85-.31.5.14,1.71-.44,1.71s-3.58-.52-2.53,1.69c1.74,3.66,6.22-1.64,7.11-.39,1.14,1.59-3.06,2.67-3,3s.09.28.14.4c1-1,.84,2.32,0,0a3.49,3.49,0,0,0-.58.87c0,.06,0,.12.11.17l.1,0c.1,0,.2.06.29.1.26.08.48.12.33.11a.87.87,0,0,1-.33-.11,2.62,2.62,0,0,1-.29-.1l-.1,0c-.34-.18-.67-.36-.94-.17s0,1.07.4,1.28l.2.09c-.66-3.15,3.32,1.61,0,0a7.89,7.89,0,0,0,.21.77c.12.39,1.26-.42,1.25,0s-.83.31-1.26.42c-.14,0-.32-.1-.42,0-.54.54-.14,1.88-.87,2.12-2.3.78-1.4-.14-2.51.41-.63.32,1.54,1.09,1.23,1.71-.19.37-.91.23-1.26,0s.21-1.05,0-.85c-.85.84-.14,2-.46,3,0,0-.82-1.17-.83,0,0,.82,2.05,2.14,1.23,2.13-1.8,0,.19-1.23-1.65-1.71-.39-.1-.46.75-.85.85s-.54-.53-.83-.43c-2.18.72,3,1.29.8,3-.82.62-2.58.33-3,2.13-.15.72.63,2.16-.46,3-.58.44-3.75,0-3.76,0-2.72,2.73,1.67.51,1.64,2.14,0,.62,1.61,1.72-.44,2.13-.5.1-.77-1-1.25-.86s.43.86.83.86,1.09.26.83.43c-.79.52-2.93.42-2.52,1.27.22.46,1.75.87,1.25.86s-1-.86-1.66-.86-1.34.76-1.69,1.27c-.86,1.29,1.64,3.12,1.63,4.27-.05,4.75-3.82-1.6-4.58-1.29-2.11.85.94,3-1.29,3.41-.87.15-1.88-1.49-2.5-.86s.87,1.71-.85,1.71c-.9,0-2.83-1.87-3.32-1.73-9.72,2.93,7.17.05-2.54,3-.44.13-1.7-2.77-2.48-1.72-.35.47,0,1.34-.44,1.71s-1.19-.29-1.67,0c-.91.55.06,3.38-.83-.43,0-.22-.11.44-.21.64s-1.85,3.25-1.92,3.62c-.27,1.58-.73,7-.48,7.25s.75-.85,1.26-.84c.73,0,1.88,5.17.78,6.83-.32.5-.69-1.05-1.24-1.28a44.46,44.46,0,0,0-5.43-.44c-1.68.16-4.61,3.81-5,5.11s4.82,1.42,5,2.15a21,21,0,0,1,.47,2.94l.35,0c2.13,2,4.33,4.43,6.22,6"/><polygon class="cls-2" points="124.14 217.84 113.32 217.84 126.93 204.37 127.07 204.37 124.14 217.84"/><path class="cls-2" d="M143.14,153.09a69.51,69.51,0,1,0,69.51,69.51A69.51,69.51,0,0,0,143.14,153.09ZM93,191.43a1.9,1.9,0,0,1,1.9-1.9h25.28a1.9,1.9,0,1,1,0,3.79H94.92A1.9,1.9,0,0,1,93,191.43Zm4.79,6.12a1.9,1.9,0,0,1,1.9-1.9h15.7a1.9,1.9,0,0,1,0,3.79H99.7A1.9,1.9,0,0,1,97.81,197.55Zm4.41,19.21,27-25.33h13.48l-5.45,26.42h6.13l-2.18,11.57H135l-2.11,9.4H119.38l2-9.4H99.63Zm46.4,38.65H130.88a1.9,1.9,0,1,1,0-3.79h17.75a1.9,1.9,0,1,1,0,3.79Zm0-6.12H120.06a1.9,1.9,0,0,1,0-3.79h28.57a1.9,1.9,0,1,1,0,3.79Zm13.94,6.86h-9.2l2.81-13.54h2.37l-2.39,11.49H163Zm4.21,0h-2.37l2.39-11.49h-4.46l.42-2h11.15l-.44,2h-4.3Zm18-11.49h-7.53l-.74,3.55h7l-.4,1.93h-7l-.82,4h7.58l-.42,2h-9.92l2.81-13.54h9.86Zm2.61-5.84h-9.46l.41-4.7-.14-.14c-3.13,4.22-8,6-13.14,6-17,0-19.74-14.43-19.74-20.49,0-15.25,8.71-30.43,27.78-30.43,10.89,0,20,5.51,20.15,18.18H179.09c-.41-4.49-3.06-6.06-6.88-6.06-8.24,0-11.92,8.78-11.92,17.16,0,5.72,2.45,9.53,8.51,9.53,4,0,7.42-1.43,8.92-5.38h-6.81l2.18-10.42H193Z"/><path class="cls-2" d="M92.37,112.08a16.51,16.51,0,1,0,16.52,16.51A16.51,16.51,0,0,0,92.37,112.08Zm-.43,5.62a2.12,2.12,0,1,1-2.12,2.12A2.12,2.12,0,0,1,91.95,117.7Zm-9.78,6.9a1,1,0,1,1-1.05,1A1,1,0,0,1,82.17,124.6Zm2.31,9a.78.78,0,0,1-.77.77H80.12a.78.78,0,0,1-.77-.77v-8.44a.63.63,0,1,1,1.25,0v2H83.7a.78.78,0,0,1,.77.78Zm18-8.91a1.34,1.34,0,1,1-1.36,1.34A1.34,1.34,0,0,1,102.42,124.74Zm3,11.68a1,1,0,0,1-1,1H99.79a1,1,0,0,1-1-1v-10.9a.81.81,0,1,1,1.62,0v2.58h4a1,1,0,0,1,1,1Zm-8.74-.22a1.58,1.58,0,0,1-1.57,1.57H87.81a1.58,1.58,0,0,1-1.58-1.57V119a1.28,1.28,0,1,1,2.56,0v4.1h6.31a1.57,1.57,0,0,1,1.57,1.57Z"/><path class="cls-2" d="M249.34,217.85a16.51,16.51,0,1,0,16.52,16.51A16.51,16.51,0,0,0,249.34,217.85Zm-.43,5.62a2.12,2.12,0,1,1-2.12,2.12A2.12,2.12,0,0,1,248.91,223.47Zm-9.78,6.9a1,1,0,1,1-1.05,1A1,1,0,0,1,239.13,230.37Zm2.31,9a.78.78,0,0,1-.77.77h-3.58a.78.78,0,0,1-.77-.77V231a.63.63,0,1,1,1.25,0v2h3.09a.78.78,0,0,1,.77.78Zm18-8.91a1.34,1.34,0,1,1-1.36,1.34A1.34,1.34,0,0,1,259.39,230.51Zm3,11.68a1,1,0,0,1-1,1h-4.62a1,1,0,0,1-1-1v-10.9a.81.81,0,1,1,1.62,0v2.58h4a1,1,0,0,1,1,1Zm-8.74-.22a1.58,1.58,0,0,1-1.57,1.57h-7.28a1.58,1.58,0,0,1-1.58-1.57V224.72a1.28,1.28,0,1,1,2.56,0v4.1h6.31a1.57,1.57,0,0,1,1.57,1.57Z"/><path class="cls-2" d="M153.63,303.15a16.51,16.51,0,1,0,16.52,16.51A16.51,16.51,0,0,0,153.63,303.15Zm-.43,5.62a2.12,2.12,0,1,1-2.12,2.12A2.12,2.12,0,0,1,153.21,308.78Zm-9.78,6.9a1,1,0,1,1-1.05,1A1,1,0,0,1,143.42,315.67Zm2.31,9a.78.78,0,0,1-.77.77h-3.58a.78.78,0,0,1-.77-.77v-8.44a.63.63,0,1,1,1.25,0v2H145a.78.78,0,0,1,.77.78Zm18-8.91a1.34,1.34,0,1,1-1.36,1.34A1.34,1.34,0,0,1,163.68,315.82Zm3,11.68a1,1,0,0,1-1,1H161a1,1,0,0,1-1-1V316.6a.81.81,0,1,1,1.62,0v2.58h4a1,1,0,0,1,1,1Zm-8.74-.22a1.58,1.58,0,0,1-1.57,1.57h-7.28a1.58,1.58,0,0,1-1.58-1.57V310a1.28,1.28,0,1,1,2.56,0v4.1h6.31a1.57,1.57,0,0,1,1.57,1.57Z"/><path class="cls-2" d="M62.83,253.51A16.51,16.51,0,1,0,79.36,270,16.51,16.51,0,0,0,62.83,253.51Zm-.43,5.62a2.12,2.12,0,1,1-2.12,2.12A2.12,2.12,0,0,1,62.41,259.13ZM52.63,266a1,1,0,1,1-1.05,1A1,1,0,0,1,52.63,266Zm2.31,9a.78.78,0,0,1-.77.77H50.58a.78.78,0,0,1-.77-.77v-8.44a.63.63,0,1,1,1.25,0v2h3.09a.78.78,0,0,1,.77.78Zm18-8.91a1.34,1.34,0,1,1-1.36,1.34A1.34,1.34,0,0,1,72.88,266.17Zm3,11.68a1,1,0,0,1-1,1H70.25a1,1,0,0,1-1-1V267a.81.81,0,1,1,1.62,0v2.58h4a1,1,0,0,1,1,1Zm-8.74-.22a1.58,1.58,0,0,1-1.57,1.57H58.27a1.58,1.58,0,0,1-1.58-1.57V260.38a1.28,1.28,0,1,1,2.56,0v4.1h6.31A1.57,1.57,0,0,1,67.13,266Z"/><path class="cls-2" d="M129,53.87a11.4,11.4,0,1,0,11.4,11.4A11.39,11.39,0,0,0,129,53.87Zm-.29,3.88a1.46,1.46,0,1,1-1.46,1.46A1.46,1.46,0,0,1,128.68,57.74Zm-6.75,4.76a.72.72,0,1,1-.72.72A.72.72,0,0,1,121.93,62.51Zm1.59,6.25a.54.54,0,0,1-.53.53h-2.47a.53.53,0,0,1-.53-.53V62.93a.43.43,0,1,1,.87,0V64.3H123a.54.54,0,0,1,.53.54Zm12.39-6.15a.92.92,0,1,1-.94.92A.92.92,0,0,1,135.91,62.6ZM138,70.67a.69.69,0,0,1-.69.69h-3.19a.69.69,0,0,1-.68-.69V63.15a.56.56,0,1,1,1.12,0v1.78h2.75a.7.7,0,0,1,.69.69Zm-6-.15a1.09,1.09,0,0,1-1.09,1.08h-5a1.09,1.09,0,0,1-1.09-1.08V58.61a.88.88,0,1,1,1.76,0v2.83h4.35a1.09,1.09,0,0,1,1.09,1.08Z"/><path class="cls-2" d="M228.76,184.26a11.4,11.4,0,1,0,11.4,11.4A11.39,11.39,0,0,0,228.76,184.26Zm-.29,3.88A1.46,1.46,0,1,1,227,189.6,1.46,1.46,0,0,1,228.46,188.14Zm-6.75,4.76a.72.72,0,1,1-.72.72A.72.72,0,0,1,221.71,192.9Zm1.59,6.25a.54.54,0,0,1-.53.53H220.3a.53.53,0,0,1-.53-.53v-5.82a.43.43,0,1,1,.87,0v1.38h2.13a.54.54,0,0,1,.53.54ZM235.69,193a.92.92,0,1,1-.94.92A.92.92,0,0,1,235.69,193Zm2.06,8.06a.69.69,0,0,1-.69.69h-3.19a.69.69,0,0,1-.68-.69v-7.52a.56.56,0,1,1,1.12,0v1.78h2.75a.7.7,0,0,1,.69.69Zm-6-.15a1.09,1.09,0,0,1-1.09,1.08h-5a1.09,1.09,0,0,1-1.09-1.08V189a.88.88,0,1,1,1.76,0v2.83h4.35a1.09,1.09,0,0,1,1.09,1.08Z"/><path class="cls-2" d="M209.58,276.6A11.4,11.4,0,1,0,221,288,11.39,11.39,0,0,0,209.58,276.6Zm-.29,3.88a1.46,1.46,0,1,1-1.46,1.46A1.46,1.46,0,0,1,209.29,280.48Zm-6.75,4.76a.72.72,0,1,1-.72.72A.72.72,0,0,1,202.54,285.24Zm1.59,6.25a.54.54,0,0,1-.53.53h-2.47a.53.53,0,0,1-.53-.53v-5.82a.43.43,0,1,1,.87,0V287h2.13a.54.54,0,0,1,.53.54Zm12.39-6.15a.92.92,0,1,1-.94.92A.92.92,0,0,1,216.52,285.33Zm2.06,8.06a.69.69,0,0,1-.69.69H214.7a.69.69,0,0,1-.68-.69v-7.52a.56.56,0,1,1,1.12,0v1.78h2.75a.7.7,0,0,1,.69.69Zm-6-.15a1.09,1.09,0,0,1-1.09,1.08h-5a1.09,1.09,0,0,1-1.09-1.08v-11.9a.88.88,0,1,1,1.76,0v2.83h4.35a1.09,1.09,0,0,1,1.09,1.08Z"/><path class="cls-2" d="M198.19,340.75a11.4,11.4,0,1,0,11.4,11.4A11.39,11.39,0,0,0,198.19,340.75Zm-.29,3.88a1.46,1.46,0,1,1-1.46,1.46A1.46,1.46,0,0,1,197.9,344.63Zm-6.75,4.76a.72.72,0,1,1-.72.72A.72.72,0,0,1,191.15,349.39Zm1.59,6.25a.54.54,0,0,1-.53.53h-2.47a.53.53,0,0,1-.53-.53v-5.82a.43.43,0,1,1,.87,0v1.38h2.13a.54.54,0,0,1,.53.54Zm12.39-6.15a.92.92,0,1,1-.94.92A.92.92,0,0,1,205.13,349.48Zm2.06,8.06a.69.69,0,0,1-.69.69h-3.19a.69.69,0,0,1-.68-.69V350a.56.56,0,1,1,1.12,0v1.78h2.75a.7.7,0,0,1,.69.69Zm-6-.15a1.09,1.09,0,0,1-1.09,1.08h-5a1.09,1.09,0,0,1-1.09-1.08v-11.9a.88.88,0,1,1,1.76,0v2.83h4.35a1.09,1.09,0,0,1,1.09,1.08Z"/><path class="cls-2" d="M140.37,109.65a11.4,11.4,0,1,0,11.4,11.4A11.39,11.39,0,0,0,140.37,109.65Zm-.29,3.88a1.46,1.46,0,1,1-1.46,1.46A1.46,1.46,0,0,1,140.07,113.53Zm-6.75,4.76a.72.72,0,1,1-.72.72A.72.72,0,0,1,133.32,118.29Zm1.59,6.25a.54.54,0,0,1-.53.53h-2.47a.53.53,0,0,1-.53-.53v-5.82a.43.43,0,1,1,.87,0v1.38h2.13a.54.54,0,0,1,.53.54Zm12.39-6.15a.92.92,0,1,1-.94.92A.92.92,0,0,1,147.3,118.39Zm2.06,8.06a.69.69,0,0,1-.69.69h-3.19a.69.69,0,0,1-.68-.69v-7.52a.56.56,0,1,1,1.12,0v1.78h2.75a.7.7,0,0,1,.69.69Zm-6-.15a1.09,1.09,0,0,1-1.09,1.08h-5a1.09,1.09,0,0,1-1.09-1.08V114.4a.88.88,0,1,1,1.76,0v2.83h4.35a1.09,1.09,0,0,1,1.09,1.08Z"/><path class="cls-2" d="M265.86,175.34a6.84,6.84,0,1,0,6.84,6.84A6.83,6.83,0,0,0,265.86,175.34Zm-.18,2.33a.88.88,0,1,1-.88.88A.88.88,0,0,1,265.68,177.67Zm-4,2.86a.43.43,0,1,1-.43.43A.43.43,0,0,1,261.63,180.52Zm1,3.75a.32.32,0,0,1-.32.32h-1.48a.32.32,0,0,1-.32-.32v-3.49a.26.26,0,1,1,.52,0v.83h1.28a.32.32,0,0,1,.32.32Zm7.43-3.69a.55.55,0,1,1-.56.55A.55.55,0,0,1,270,180.58Zm1.23,4.84a.42.42,0,0,1-.41.41h-1.91a.41.41,0,0,1-.41-.41v-4.51a.34.34,0,1,1,.67,0V182h1.65a.42.42,0,0,1,.41.42Zm-3.62-.09a.65.65,0,0,1-.65.65h-3a.65.65,0,0,1-.65-.65v-7.14a.53.53,0,1,1,1.06,0v1.7H267a.65.65,0,0,1,.65.65Z"/><path class="cls-2" d="M26.38,263.19A6.84,6.84,0,1,0,33.22,270,6.83,6.83,0,0,0,26.38,263.19Zm-.18,2.33a.88.88,0,1,1-.88.88A.88.88,0,0,1,26.21,265.51Zm-4,2.86a.43.43,0,1,1-.43.43A.43.43,0,0,1,22.16,268.37Zm1,3.75a.32.32,0,0,1-.32.32H21.31a.32.32,0,0,1-.32-.32v-3.49a.26.26,0,1,1,.52,0v.83h1.28a.32.32,0,0,1,.32.32Zm7.43-3.69A.55.55,0,1,1,30,269,.55.55,0,0,1,30.54,268.43Zm1.23,4.84a.42.42,0,0,1-.41.41H29.45a.41.41,0,0,1-.41-.41v-4.51a.34.34,0,1,1,.67,0v1.07h1.65a.42.42,0,0,1,.41.42Zm-3.62-.09a.65.65,0,0,1-.65.65h-3a.65.65,0,0,1-.65-.65V266a.53.53,0,1,1,1.06,0v1.7h2.61a.65.65,0,0,1,.65.65Z"/><path class="cls-2" d="M117.3,91.5a6.84,6.84,0,1,0,6.84,6.84A6.83,6.83,0,0,0,117.3,91.5Zm-.18,2.33a.88.88,0,1,1-.88.88A.88.88,0,0,1,117.12,93.83Zm-4,2.86a.43.43,0,1,1-.43.43A.43.43,0,0,1,113.07,96.69Zm1,3.75a.32.32,0,0,1-.32.32h-1.48a.32.32,0,0,1-.32-.32V96.94a.26.26,0,1,1,.52,0v.83h1.28a.32.32,0,0,1,.32.32Zm7.43-3.69a.55.55,0,1,1-.56.55A.55.55,0,0,1,121.46,96.75Zm1.23,4.84a.42.42,0,0,1-.41.41h-1.91a.41.41,0,0,1-.41-.41V97.07a.34.34,0,1,1,.67,0v1.07h1.65a.42.42,0,0,1,.41.42Zm-3.62-.09a.65.65,0,0,1-.65.65h-3a.65.65,0,0,1-.65-.65V94.35a.53.53,0,1,1,1.06,0V96h2.61a.65.65,0,0,1,.65.65Z"/><path class="cls-2" d="M215.58,151.4a6.84,6.84,0,1,0,6.84,6.84A6.83,6.83,0,0,0,215.58,151.4Zm-.18,2.33a.88.88,0,1,1-.88.88A.88.88,0,0,1,215.4,153.73Zm-4,2.86a.43.43,0,1,1-.43.43A.43.43,0,0,1,211.35,156.58Zm1,3.75a.32.32,0,0,1-.32.32h-1.48a.32.32,0,0,1-.32-.32v-3.49a.26.26,0,1,1,.52,0v.83H212a.32.32,0,0,1,.32.32Zm7.43-3.69a.55.55,0,1,1-.56.55A.55.55,0,0,1,219.74,156.64Zm1.23,4.84a.42.42,0,0,1-.41.41h-1.91a.41.41,0,0,1-.41-.41V157a.34.34,0,1,1,.67,0V158h1.65a.42.42,0,0,1,.41.42Zm-3.62-.09a.65.65,0,0,1-.65.65h-3a.65.65,0,0,1-.65-.65v-7.14a.53.53,0,1,1,1.06,0v1.7h2.61a.65.65,0,0,1,.65.65Z"/><path class="cls-2" d="M69.25,158.24a11.4,11.4,0,1,0,11.4,11.4A11.39,11.39,0,0,0,69.25,158.24ZM69,162.12a1.46,1.46,0,1,1-1.46,1.46A1.46,1.46,0,0,1,69,162.12Zm-6.75,4.76a.72.72,0,1,1-.72.72A.72.72,0,0,1,62.21,166.88Zm1.59,6.25a.54.54,0,0,1-.53.53H60.8a.53.53,0,0,1-.53-.53V167.3a.43.43,0,1,1,.87,0v1.38h2.13a.54.54,0,0,1,.53.54ZM76.19,167a.92.92,0,1,1-.94.92A.92.92,0,0,1,76.19,167ZM78.24,175a.69.69,0,0,1-.69.69H74.37a.69.69,0,0,1-.68-.69v-7.52a.56.56,0,1,1,1.12,0v1.78h2.75a.7.7,0,0,1,.69.69Zm-6-.15A1.09,1.09,0,0,1,71.13,176h-5A1.09,1.09,0,0,1,65,174.88V163a.88.88,0,1,1,1.76,0v2.83h4.35a1.09,1.09,0,0,1,1.09,1.08Z"/></svg>