<svg id="Capa_1" data-name="Capa 1" xmlns="http://www.w3.org/2000/svg" viewBox="0 0 618.04 33.27"><defs><style>.cls-1{fill:#fff;}</style></defs><title>siguenos</title><path class="cls-1" d="M5.46,17.73c0,3.41,2.65,4.74,5.67,4.74,2,0,5-.57,5-3.19S12.27,16,8.51,15,.86,12.56.86,7.75C.86,2.51,5.81,0,10.44,0c5.35,0,10.26,2.33,10.26,8.25H15.25c-.18-3.09-2.37-3.88-5.06-3.88-1.79,0-3.87.75-3.87,2.91,0,2,1.22,2.22,7.64,3.88,1.87.47,7.61,1.65,7.61,7.46,0,4.7-3.7,8.22-10.66,8.22C5.24,26.84-.07,24,0,17.73Z"/><path class="cls-1" d="M27.74,5.38H24.19L27.63.29h5.63Zm-3.41,2.3h5.1V26.23h-5.1Z"/><path class="cls-1" d="M51.1,25c0,3.05-1.08,8.22-9.62,8.22-3.66,0-7.93-1.72-8.18-6h5.06c.47,1.9,2,2.55,3.8,2.55,2.84,0,4.13-1.94,4.09-4.59V22.83h-.07a6.27,6.27,0,0,1-5.56,2.87c-5.56,0-7.93-4.24-7.93-9.33,0-4.81,2.76-9.19,8-9.19a5.77,5.77,0,0,1,5.53,3h.07V7.68H51.1Zm-4.84-8.33c0-3-1-5.71-4.34-5.71-2.87,0-4.13,2.51-4.13,5.28s1,5.56,4.13,5.56C44.82,21.86,46.26,19.38,46.26,16.72Z"/><path class="cls-1" d="M72.42,26.23H67.58V23.65h-.11a6.62,6.62,0,0,1-5.67,3.09c-5.42,0-6.78-3-6.78-7.64V7.68h5.1V18.16c0,3.05.9,4.56,3.27,4.56,2.76,0,3.95-1.54,3.95-5.31V7.68h5.1Z"/><path class="cls-1" d="M80.32,18.2c.14,3.23,1.72,4.7,4.56,4.7,2,0,3.7-1.26,4-2.4h4.49c-1.44,4.38-4.49,6.24-8.68,6.24-5.85,0-9.47-4-9.47-9.76,0-5.56,3.84-9.8,9.47-9.8,6.32,0,9.37,5.31,9,11ZM88.61,15C88.14,12.38,87,11,84.55,11A4,4,0,0,0,80.32,15Z"/><path class="cls-1" d="M96.54,7.68h4.85v2.58h.11a6.62,6.62,0,0,1,5.67-3.09c5.42,0,6.78,3.05,6.78,7.64V26.23h-5.1V15.75c0-3.05-.9-4.56-3.27-4.56-2.76,0-3.95,1.54-3.95,5.31v9.73h-5.1Z"/><path class="cls-1" d="M126.65,7.18c5.85,0,9.62,3.88,9.62,9.8s-3.77,9.76-9.62,9.76-9.58-3.87-9.58-9.76S120.84,7.18,126.65,7.18Zm0,15.72c3.48,0,4.52-3,4.52-5.92s-1-6-4.52-6-4.49,3-4.49,6S123.21,22.9,126.65,22.9Z"/><path class="cls-1" d="M143.34,20.21c0,2.22,1.9,3.12,3.91,3.12,1.47,0,3.34-.57,3.34-2.37,0-1.54-2.12-2.08-5.78-2.87-2.94-.65-5.89-1.69-5.89-5,0-4.74,4.09-6,8.07-6s7.79,1.36,8.18,5.92h-4.85c-.14-2-1.65-2.51-3.48-2.51-1.15,0-2.84.22-2.84,1.72,0,1.83,2.87,2.08,5.78,2.76s5.88,1.76,5.88,5.2c0,4.88-4.23,6.46-8.47,6.46s-8.51-1.61-8.72-6.53Z"/><path class="cls-1" d="M172.48,18.2c.14,3.23,1.72,4.7,4.56,4.7,2,0,3.7-1.26,4-2.4h4.49c-1.44,4.38-4.49,6.24-8.69,6.24-5.85,0-9.47-4-9.47-9.76,0-5.56,3.84-9.8,9.47-9.8,6.32,0,9.37,5.31,9,11ZM180.77,15c-.47-2.58-1.58-3.95-4.05-3.95A4,4,0,0,0,172.48,15Z"/><path class="cls-1" d="M188.7,7.68h4.85v2.58h.11a6.62,6.62,0,0,1,5.67-3.09c5.42,0,6.78,3.05,6.78,7.64V26.23H201V15.75c0-3.05-.9-4.56-3.27-4.56-2.76,0-3.95,1.54-3.95,5.31v9.73h-5.1Z"/><path class="cls-1" d="M219.6,7.68h4.85v2.58h.11a6.62,6.62,0,0,1,5.67-3.09c5.42,0,6.78,3.05,6.78,7.64V26.23h-5.1V15.75c0-3.05-.9-4.56-3.27-4.56-2.76,0-3.95,1.54-3.95,5.31v9.73h-5.1Z"/><path class="cls-1" d="M258.11,26.23h-4.85V23.65h-.11a6.62,6.62,0,0,1-5.67,3.09c-5.42,0-6.78-3-6.78-7.64V7.68h5.1V18.16c0,3.05.9,4.56,3.27,4.56,2.76,0,3.95-1.54,3.95-5.31V7.68h5.1Z"/><path class="cls-1" d="M266,18.2c.14,3.23,1.72,4.7,4.56,4.7,2,0,3.7-1.26,4-2.4h4.49c-1.44,4.38-4.49,6.24-8.69,6.24-5.85,0-9.47-4-9.47-9.76,0-5.56,3.84-9.8,9.47-9.8,6.32,0,9.37,5.31,9,11ZM274.3,15c-.47-2.58-1.58-3.95-4.05-3.95A4,4,0,0,0,266,15Z"/><path class="cls-1" d="M286.17,20.21c0,2.22,1.9,3.12,3.91,3.12,1.47,0,3.34-.57,3.34-2.37,0-1.54-2.12-2.08-5.78-2.87-2.94-.65-5.89-1.69-5.89-5,0-4.74,4.09-6,8.07-6s7.79,1.36,8.18,5.92h-4.85c-.14-2-1.65-2.51-3.48-2.51-1.15,0-2.84.22-2.84,1.72,0,1.83,2.87,2.08,5.78,2.76s5.88,1.76,5.88,5.2c0,4.88-4.23,6.46-8.47,6.46s-8.51-1.61-8.72-6.53Z"/><path class="cls-1" d="M307.78,7.68h3.73v3.41h-3.73v9.19c0,1.72.43,2.15,2.15,2.15a7.83,7.83,0,0,0,1.58-.14v4a19.54,19.54,0,0,1-3,.18c-3.12,0-5.85-.72-5.85-4.41V11.09H299.6V7.68h3.09V2.12h5.1Z"/><path class="cls-1" d="M313.77,7.68h4.85v3.45h.07a6.56,6.56,0,0,1,5.92-3.95,3.77,3.77,0,0,1,1.11.18v4.74a9.31,9.31,0,0,0-1.83-.18c-3.73,0-5,2.69-5,6v8.36h-5.1Z"/><path class="cls-1" d="M327.34,13.39c.29-4.77,4.56-6.21,8.72-6.21,3.7,0,8.15.83,8.15,5.28v9.65a9.5,9.5,0,0,0,.65,4.13h-5.17a7.53,7.53,0,0,1-.36-1.79,8.51,8.51,0,0,1-6.24,2.3c-3.52,0-6.32-1.76-6.32-5.56,0-4.2,3.16-5.2,6.32-5.63s6-.36,6-2.44-1.51-2.51-3.3-2.51-3.19.79-3.37,2.8Zm11.77,3.77c-.86.75-2.66.79-4.24,1.08s-3,.86-3,2.73,1.47,2.37,3.12,2.37c4,0,4.13-3.16,4.13-4.27Z"/><path class="cls-1" d="M351.92,20.21c0,2.22,1.9,3.12,3.91,3.12,1.47,0,3.34-.57,3.34-2.37,0-1.54-2.12-2.08-5.78-2.87-2.94-.65-5.88-1.69-5.88-5,0-4.74,4.09-6,8.07-6s7.79,1.36,8.18,5.92h-4.84c-.14-2-1.65-2.51-3.48-2.51-1.15,0-2.83.22-2.83,1.72,0,1.83,2.87,2.08,5.78,2.76s5.89,1.76,5.89,5.2c0,4.88-4.24,6.46-8.47,6.46s-8.51-1.61-8.72-6.53Z"/><path class="cls-1" d="M376.86,7.68h4.85v3.45h.07a6.56,6.56,0,0,1,5.92-3.95,3.77,3.77,0,0,1,1.11.18v4.74a9.31,9.31,0,0,0-1.83-.18c-3.73,0-5,2.69-5,6v8.36h-5.1Z"/><path class="cls-1" d="M394.2,18.2c.14,3.23,1.72,4.7,4.56,4.7,2,0,3.7-1.26,4-2.4h4.49c-1.44,4.38-4.49,6.24-8.69,6.24-5.85,0-9.47-4-9.47-9.76,0-5.56,3.84-9.8,9.47-9.8,6.32,0,9.37,5.31,9,11ZM402.49,15C402,12.38,400.91,11,398.43,11A4,4,0,0,0,394.2,15Z"/><path class="cls-1" d="M423.66,23.87h-.07A6.16,6.16,0,0,1,418,26.74c-5.6,0-8.33-4.81-8.33-9.94s2.76-9.62,8.22-9.62a6.38,6.38,0,0,1,5.49,2.76h.07V.61h5.1V26.23h-4.85ZM419.21,11c-3.34,0-4.49,2.87-4.49,5.92s1.33,6,4.49,6c3.37,0,4.38-2.94,4.38-6S422.51,11,419.21,11Z"/><path class="cls-1" d="M436.37,18.2c.14,3.23,1.72,4.7,4.56,4.7,2,0,3.7-1.26,4-2.4h4.49c-1.44,4.38-4.49,6.24-8.69,6.24-5.85,0-9.47-4-9.47-9.76,0-5.56,3.84-9.8,9.47-9.8,6.32,0,9.37,5.31,9,11ZM444.66,15c-.47-2.58-1.58-3.95-4.05-3.95A4,4,0,0,0,436.37,15Z"/><path class="cls-1" d="M456.54,20.21c0,2.22,1.9,3.12,3.91,3.12,1.47,0,3.34-.57,3.34-2.37,0-1.54-2.12-2.08-5.78-2.87-2.94-.65-5.88-1.69-5.88-5,0-4.74,4.09-6,8.07-6s7.79,1.36,8.18,5.92h-4.84c-.14-2-1.65-2.51-3.48-2.51-1.15,0-2.83.22-2.83,1.72,0,1.83,2.87,2.08,5.78,2.76s5.89,1.76,5.89,5.2c0,4.88-4.24,6.46-8.47,6.46s-8.51-1.61-8.72-6.53Z"/><path class="cls-1" d="M485.43,20.21c0,2.22,1.9,3.12,3.91,3.12,1.47,0,3.34-.57,3.34-2.37,0-1.54-2.12-2.08-5.78-2.87-2.94-.65-5.88-1.69-5.88-5,0-4.74,4.09-6,8.07-6s7.79,1.36,8.18,5.92h-4.84c-.14-2-1.65-2.51-3.48-2.51-1.15,0-2.83.22-2.83,1.72,0,1.83,2.87,2.08,5.78,2.76s5.89,1.76,5.89,5.2c0,4.88-4.24,6.46-8.47,6.46s-8.51-1.61-8.72-6.53Z"/><path class="cls-1" d="M509.58,7.18c5.85,0,9.62,3.88,9.62,9.8s-3.77,9.76-9.62,9.76S500,22.86,500,17,503.77,7.18,509.58,7.18Zm0,15.72c3.48,0,4.52-3,4.52-5.92s-1-6-4.52-6-4.49,3-4.49,6S506.14,22.9,509.58,22.9Z"/><path class="cls-1" d="M535,14.21A3.47,3.47,0,0,0,531.19,11c-3.27,0-4.34,3.3-4.34,6s1,5.85,4.23,5.85c2.37,0,3.73-1.51,4.06-3.77H540c-.65,4.92-4.05,7.61-8.94,7.61-5.6,0-9.37-3.95-9.37-9.51,0-5.78,3.45-10,9.47-10,4.38,0,8.4,2.3,8.72,7Z"/><path class="cls-1" d="M548,4.81h-5.1V.61H548Zm-5.1,2.87H548V26.23h-5.1Z"/><path class="cls-1" d="M551.61,13.39c.29-4.77,4.56-6.21,8.72-6.21,3.7,0,8.15.83,8.15,5.28v9.65a9.5,9.5,0,0,0,.65,4.13H564a7.53,7.53,0,0,1-.36-1.79,8.51,8.51,0,0,1-6.24,2.3c-3.52,0-6.32-1.76-6.32-5.56,0-4.2,3.16-5.2,6.32-5.63s6-.36,6-2.44-1.51-2.51-3.3-2.51-3.19.79-3.37,2.8Zm11.77,3.77c-.86.75-2.66.79-4.24,1.08s-3,.86-3,2.73,1.47,2.37,3.12,2.37c4,0,4.13-3.16,4.13-4.27Z"/><path class="cls-1" d="M572.39.61h5.1V26.23h-5.1Z"/><path class="cls-1" d="M585.52,18.2c.14,3.23,1.72,4.7,4.56,4.7,2,0,3.7-1.26,4-2.4h4.49c-1.44,4.38-4.49,6.24-8.69,6.24-5.85,0-9.47-4-9.47-9.76,0-5.56,3.84-9.8,9.47-9.8,6.32,0,9.37,5.31,9,11ZM593.81,15c-.47-2.58-1.58-3.95-4.05-3.95A4,4,0,0,0,585.52,15Z"/><path class="cls-1" d="M605.69,20.21c0,2.22,1.9,3.12,3.91,3.12,1.47,0,3.34-.57,3.34-2.37,0-1.54-2.12-2.08-5.78-2.87-2.94-.65-5.88-1.69-5.88-5,0-4.74,4.09-6,8.07-6s7.79,1.36,8.18,5.92h-4.84c-.14-2-1.65-2.51-3.48-2.51-1.15,0-2.83.22-2.83,1.72,0,1.83,2.87,2.08,5.78,2.76s5.89,1.76,5.89,5.2c0,4.88-4.24,6.46-8.47,6.46s-8.51-1.61-8.72-6.53Z"/></svg>