<svg id="Capa_1" data-name="Capa 1" xmlns="http://www.w3.org/2000/svg" xmlns:xlink="http://www.w3.org/1999/xlink" viewBox="0 0 339.74 57.18"><defs><style>.cls-1{fill:none;}.cls-2{fill:#704790;}.cls-3{fill:#a990bc;}.cls-4{fill:#211915;opacity:0.5;}.cls-5{fill:#fff;}.cls-6{clip-path:url(#clip-path);}</style><clipPath id="clip-path"><rect class="cls-1" x="499.41" y="-135.34" width="389.8" height="240.12"/></clipPath></defs><title>twitter</title><rect class="cls-2" width="339.74" height="57.18" rx="12.49" ry="12.49"/><path class="cls-3" d="M339.74,12.49V13.8A12.12,12.12,0,0,0,327.63,1.68H12.12A12.12,12.12,0,0,0,0,13.8V12.49A12.49,12.49,0,0,1,12.49,0H327.25A12.49,12.49,0,0,1,339.74,12.49Z"/><path class="cls-4" d="M339.74,43.39v1.3a12.49,12.49,0,0,1-12.5,12.5H12.49A12.49,12.49,0,0,1,0,44.69v-1.3A12.11,12.11,0,0,0,12.12,55.49H327.63A12.11,12.11,0,0,0,339.74,43.39Z"/><path class="cls-5" d="M33.33,12.94A15.65,15.65,0,1,0,49,28.59,15.67,15.67,0,0,0,33.33,12.94Zm7,12.07c0,.15,0,.31,0,.47a10.24,10.24,0,0,1-15.77,8.63,7.24,7.24,0,0,0,5.33-1.49,3.61,3.61,0,0,1-3.36-2.5,3.46,3.46,0,0,0,.68.06,3.56,3.56,0,0,0,.95-.13,3.6,3.6,0,0,1-2.89-3.53.23.23,0,0,1,0,0,3.55,3.55,0,0,0,1.63.45,3.6,3.6,0,0,1-1.12-4.81,10.23,10.23,0,0,0,7.42,3.76,3.61,3.61,0,0,1,6.14-3.29,7.12,7.12,0,0,0,2.29-.87,3.62,3.62,0,0,1-1.59,2,7.14,7.14,0,0,0,2.07-.57A7.33,7.33,0,0,1,40.32,25Zm0,0"/><path class="cls-5" d="M67,24.42h2.52v2H67V35c0,1,.27,1.23,1.57,1.23h1v2H67.9c-2.15,0-3-.48-3-3V26.42H62.74v-2h2.15V20.28H67Z"/><path class="cls-5" d="M85.1,38.22H82.9l-2.57-11h0l-2.54,11H75.48l-4.06-13.8h2.3l2.86,11.29h0l2.54-11.29h2.27l2.64,11.29h0L87,24.42h2.15Z"/><path class="cls-5" d="M94.1,21.94H92V19.16H94.1ZM92,24.42H94.1v13.8H92Z"/><path class="cls-5" d="M101,24.42h2.52v2H101V35c0,1,.27,1.23,1.57,1.23h1v2h-1.59c-2.15,0-3-.48-3-3V26.42H96.76v-2h2.15V20.28H101Z"/><path class="cls-5" d="M109.48,24.42H112v2h-2.52V35c0,1,.27,1.23,1.57,1.23h1v2h-1.59c-2.15,0-3-.48-3-3V26.42h-2.15v-2h2.15V20.28h2.08Z"/><path class="cls-5" d="M125.87,33.84c-.56,3-2.57,4.7-5.41,4.7-4,0-5.94-3-6.07-7.26s2.49-7.18,5.94-7.18c4.48,0,5.85,4.56,5.72,7.9H116.6c-.07,2.4,1.17,4.54,3.94,4.54a3.1,3.1,0,0,0,3.28-2.7Zm-2-3.84a3.81,3.81,0,0,0-3.64-3.9c-2.18,0-3.47,1.79-3.62,3.9Z"/><path class="cls-5" d="M128.93,24.42h2v2.91h0c1-2.21,2.4-3.31,4.65-3.23v2.4c-3.35,0-4.57,2.08-4.57,5.58v6.14h-2.08Z"/><path class="cls-5" d="M138.39,35.26h2.71v3h-2.71Z"/><path class="cls-5" d="M154.1,28.85A3,3,0,0,0,151,26.1c-3,0-3.94,2.59-3.94,5.39,0,2.54,1.05,5,3.69,5,2,0,3.2-1.28,3.47-3.36h2.13c-.46,3.36-2.4,5.36-5.58,5.36-3.86,0-5.92-2.94-5.92-7s2-7.39,6-7.39c2.86,0,5.16,1.47,5.46,4.75Z"/><path class="cls-5" d="M164.88,24.1c4,0,6.14,3.18,6.14,7.23s-2.13,7.21-6.14,7.21-6.14-3.18-6.14-7.21S160.87,24.1,164.88,24.1Zm0,12.44c2.18,0,3.94-1.87,3.94-5.2s-1.76-5.23-3.94-5.23-3.94,1.87-3.94,5.23S162.71,36.54,164.88,36.54Z"/><path class="cls-5" d="M174.25,24.42h2v2h0a4.57,4.57,0,0,1,4.08-2.35,3.35,3.35,0,0,1,3.47,2.35,4.6,4.6,0,0,1,4-2.35c2.52,0,4.21,1.15,4.21,4V38.22h-2.08v-9c0-1.71-.42-3.07-2.45-3.07a3.2,3.2,0,0,0-3.3,3.52v8.59h-2.08v-9c0-1.79-.51-3.07-2.37-3.07-2.47,0-3.37,2.48-3.37,3.52v8.59h-2.08Z"/><path class="cls-5" d="M201.13,18.71h1.79l-7.24,20h-1.79Z"/><path class="cls-5" d="M204.83,24.42h2v2h0a4.57,4.57,0,0,1,4.08-2.35,3.35,3.35,0,0,1,3.47,2.35,4.6,4.6,0,0,1,4-2.35c2.52,0,4.21,1.15,4.21,4V38.22h-2.08v-9c0-1.71-.42-3.07-2.45-3.07a3.2,3.2,0,0,0-3.3,3.52v8.59h-2.08v-9c0-1.79-.51-3.07-2.37-3.07-2.47,0-3.37,2.48-3.37,3.52v8.59h-2.08Z"/><path class="cls-5" d="M231.93,24.1c4,0,6.14,3.18,6.14,7.23s-2.13,7.21-6.14,7.21-6.14-3.18-6.14-7.21S227.92,24.1,231.93,24.1Zm0,12.44c2.18,0,3.94-1.87,3.94-5.2s-1.76-5.23-3.94-5.23S228,28,228,31.33,229.75,36.54,231.93,36.54Z"/><path class="cls-5" d="M247,38.22h-2.23l-4.7-13.8h2.32l3.55,11.5h0l3.45-11.5h2.18Z"/><path class="cls-5" d="M256.51,21.94h-2.08V19.16h2.08Zm-2.08,2.48h2.08v13.8h-2.08Z"/><path class="cls-5" d="M260.64,19.16h2.08V38.22h-2.08Z"/><path class="cls-5" d="M277.52,33.84c-.56,3-2.57,4.7-5.41,4.7-4,0-5.94-3-6.07-7.26s2.49-7.18,5.94-7.18c4.48,0,5.85,4.56,5.72,7.9h-9.47c-.07,2.4,1.17,4.54,3.94,4.54a3.1,3.1,0,0,0,3.28-2.7Zm-2-3.84a3.81,3.81,0,0,0-3.64-3.9c-2.18,0-3.47,1.79-3.62,3.9Z"/><path class="cls-5" d="M284.05,31l-4.4-6.54h2.67l3,4.83,3.16-4.83H291l-4.35,6.35,4.89,7.45h-2.67l-3.52-5.71-3.52,5.71H279.3Z"/><path class="cls-5" d="M296.3,21.94h-2.08V19.16h2.08Zm-2.08,2.48h2.08v13.8h-2.08Z"/><path class="cls-5" d="M303.2,24.42h2.52v2H303.2V35c0,1,.27,1.23,1.57,1.23h1v2h-1.59c-2.15,0-3-.48-3-3V26.42H299v-2h2.15V20.28h2.08Z"/><path class="cls-5" d="M314.26,24.1c4,0,6.14,3.18,6.14,7.23s-2.13,7.21-6.14,7.21-6.14-3.18-6.14-7.21S310.25,24.1,314.26,24.1Zm0,12.44c2.18,0,3.94-1.87,3.94-5.2s-1.76-5.23-3.94-5.23-3.94,1.87-3.94,5.23S312.08,36.54,314.26,36.54Z"/><g class="cls-6"><path class="cls-5" d="M534.39-89.46v49.15A28.41,28.41,0,0,1,506-11.91H-323.7V104.78H889.21V-117.88H562.8A28.41,28.41,0,0,0,534.39-89.46Z"/></g></svg>